<svg width="500" height="408" viewBox="0 0 500 408" fill="none" xmlns="http://www.w3.org/2000/svg">
<mask id="path-1-inside-1_148_597" fill="white">
<rect width="500" height="408" rx="30"/>
</mask>
<rect width="500" height="408" rx="30" fill="#D9D9D9" stroke="#8D7171" stroke-width="64" mask="url(#path-1-inside-1_148_597)"/>
<path d="M62.877 134.206C62.877 87.148 101.025 49 148.083 49V49C195.141 49 233.289 87.148 233.289 134.206V151.835H62.877V134.206Z" fill="#F0A961"/>
<rect x="57" y="141.555" width="180.696" height="20.567" rx="10.2835" fill="#9C2E2E"/>
<rect width="180.696" height="17.6288" rx="8.81442" transform="matrix(1 0 0 -1 57 179.751)" fill="#6C9D53"/>
<rect width="180.696" height="7.34535" rx="3.67268" transform="matrix(1 0 0 -1 57 169.47)" fill="#F5FF69"/>
<rect width="180.696" height="38.1958" rx="19.0979" transform="matrix(1 0 0 -1 57 217.946)" fill="#F0A961"/>
<ellipse cx="96.6692" cy="160.654" rx="14.6907" ry="8.81442" fill="#DF2626"/>
<ellipse cx="130.463" cy="160.654" rx="14.6907" ry="8.81442" fill="#DF2626"/>
<ellipse cx="164.244" cy="160.654" rx="14.6907" ry="8.81442" fill="#DF2626"/>
<ellipse cx="198.026" cy="160.654" rx="14.6907" ry="8.81442" fill="#DF2626"/>
<rect width="200.047" height="200.047" rx="82.9464" transform="matrix(0.902914 0.429821 0.429821 -0.902914 227 312.626)" fill="#F0A961"/>
<rect width="104.09" height="200.047" rx="52.0448" transform="matrix(0.902914 0.429821 0.429821 -0.902914 271.058 333.599)" fill="#6C9D53"/>
<rect width="74.8144" height="200.047" rx="37.4072" transform="matrix(0.902914 0.429821 0.429821 -0.902914 281.331 338.489)" fill="#FF2626"/>
<path d="M343.74 174.296C344.693 174.749 355.195 180.333 371.022 188.898C381.568 194.605 391.969 201.078 402.898 207.028C411.697 211.819 419.593 216.299 423.819 221.988C428.409 228.167 430.286 232.301 430.569 234.494C430.716 235.627 429.912 236.823 429.093 237.623C424.854 241.766 409.646 238.681 387.597 232.627C382.507 231.23 378.558 229.51 372.695 227.604C367.377 225.875 356.533 221.38 342.395 216.712C334.526 214.114 330.114 214.113 326.559 214.775C323.41 215.362 320.514 216.915 317.815 218.866C314.986 220.91 314.935 224.88 314.871 227.792C314.805 230.822 317.648 237.066 323.95 246.982C327.441 252.475 332.985 257.907 341.306 263.378C349.627 268.848 360.931 273.937 368.591 276.995C379.732 281.442 391.329 285.451 403.36 291.763C407.934 294.162 408.748 296.08 409.563 297.8C410.377 299.519 411.001 301.276 410.642 303.61C410.283 305.944 408.923 308.801 407.633 310.285C402.325 316.387 387.616 315.226 372.911 314.567C363.476 314.144 356.558 312.256 350.797 311.717C331.464 309.908 320.183 303.799 310.378 300.601C298.688 295.337 290.489 291.142 288.679 289.692C287.709 288.933 286.632 288.128 285.522 287.299" stroke="#F5FF69" stroke-width="4.8792" stroke-linecap="round"/>
</svg>
