<svg width="616" height="408" viewBox="0 0 616 408" fill="none" xmlns="http://www.w3.org/2000/svg">
<rect x="111.009" y="48.6538" width="393.401" height="204.346" fill="#A9E0FF"/>
<path d="M343.087 170.346V234.397H306.209V170.346H343.087ZM303.104 170.346V234.397H266.226V170.346H303.104Z" fill="#157BB7" stroke="#142654" stroke-width="3.10551"/>
<rect x="70" width="474.723" height="83.4066" fill="#157BB7"/>
<path d="M237.619 51.1979C236.54 51.1979 235.546 50.9209 234.636 50.3669C233.736 49.813 233.014 49.076 232.47 48.156C231.935 47.2262 231.668 46.2073 231.668 45.0993V43.7045C231.668 43.5957 231.718 43.5413 231.817 43.5413H235.23C235.309 43.5413 235.348 43.5957 235.348 43.7045V45.0993C235.348 45.7621 235.571 46.3359 236.016 46.8206C236.461 47.2954 236.995 47.5328 237.619 47.5328C238.252 47.5328 238.791 47.2905 239.236 46.8057C239.681 46.3111 239.904 45.7423 239.904 45.0993C239.904 44.3574 239.419 43.7095 238.45 43.1555C238.291 43.0566 238.084 42.9379 237.826 42.7994C237.579 42.651 237.282 42.4828 236.936 42.2949C236.59 42.1069 236.253 41.9239 235.927 41.7459C235.601 41.5579 235.284 41.3799 234.977 41.2117C233.869 40.5588 233.043 39.7427 232.499 38.7634C231.965 37.7741 231.698 36.6662 231.698 35.4396C231.698 34.3119 231.975 33.293 232.529 32.3829C233.083 31.4827 233.805 30.7704 234.695 30.2462C235.596 29.712 236.57 29.4449 237.619 29.4449C238.697 29.4449 239.686 29.712 240.586 30.2462C241.486 30.7902 242.204 31.5124 242.738 32.4126C243.282 33.3127 243.554 34.3218 243.554 35.4396V37.9324C243.554 38.0116 243.514 38.0511 243.435 38.0511H240.022C239.943 38.0511 239.904 38.0116 239.904 37.9324L239.874 35.4396C239.874 34.7273 239.651 34.1486 239.206 33.7035C238.761 33.2583 238.232 33.0358 237.619 33.0358C236.995 33.0358 236.461 33.2732 236.016 33.748C235.571 34.2228 235.348 34.7867 235.348 35.4396C235.348 36.1024 235.487 36.6563 235.764 37.1015C236.051 37.5466 236.57 37.972 237.322 38.3776C237.401 38.4171 237.584 38.5161 237.871 38.6743C238.158 38.8326 238.474 39.0107 238.82 39.2085C239.177 39.3965 239.498 39.5696 239.785 39.7279C240.072 39.8762 240.245 39.9653 240.304 39.9949C241.313 40.5588 242.11 41.2513 242.693 42.0723C243.287 42.8934 243.584 43.9024 243.584 45.0993C243.584 46.2567 243.316 47.2954 242.782 48.2154C242.238 49.1354 241.516 49.8624 240.616 50.3966C239.716 50.9308 238.717 51.1979 237.619 51.1979ZM251.285 51.1979C250.216 51.1979 249.227 50.9209 248.317 50.3669C247.407 49.813 246.68 49.0711 246.136 48.1412C245.602 47.2014 245.335 46.1776 245.335 45.0697L245.394 29.8752C245.394 29.7961 245.433 29.7565 245.513 29.7565H248.925C249.005 29.7565 249.044 29.7961 249.044 29.8752V45.0697C249.044 45.7522 249.262 46.3359 249.697 46.8206C250.132 47.2954 250.661 47.5328 251.285 47.5328C251.938 47.5328 252.482 47.2954 252.917 46.8206C253.352 46.3359 253.57 45.7522 253.57 45.0697V29.8752C253.57 29.7961 253.609 29.7565 253.688 29.7565H257.101C257.18 29.7565 257.22 29.7961 257.22 29.8752L257.279 45.0697C257.279 46.1875 257.012 47.2163 256.478 48.156C255.934 49.0859 255.212 49.8278 254.312 50.3818C253.412 50.9259 252.403 51.1979 251.285 51.1979ZM263.23 50.9011H259.817C259.718 50.9011 259.668 50.8517 259.668 50.7527L259.728 29.8752C259.728 29.7961 259.767 29.7565 259.846 29.7565H265.693C267.552 29.7565 269.021 30.3253 270.1 31.4629C271.188 32.5906 271.732 34.1289 271.732 36.0776C271.732 37.5021 271.45 38.7436 270.886 39.802C270.312 40.8506 269.57 41.6618 268.66 42.2355C267.75 42.8093 266.761 43.0962 265.693 43.0962H263.378V50.7527C263.378 50.8517 263.328 50.9011 263.23 50.9011ZM265.693 33.3622L263.378 33.3919V39.4162H265.693C266.336 39.4162 266.895 39.1096 267.369 38.4963C267.844 37.8731 268.082 37.0668 268.082 36.0776C268.082 35.2862 267.869 34.6383 267.444 34.1338C267.018 33.6194 266.435 33.3622 265.693 33.3622ZM283.499 50.9011H273.676C273.597 50.9011 273.557 50.8517 273.557 50.7527L273.587 29.8752C273.587 29.7961 273.626 29.7565 273.705 29.7565H283.469C283.548 29.7565 283.588 29.806 283.588 29.9049V33.3029C283.588 33.382 283.548 33.4216 283.469 33.4216H277.237V38.1698H283.469C283.548 38.1698 283.588 38.2094 283.588 38.2885L283.617 41.731C283.617 41.8102 283.578 41.8497 283.499 41.8497H277.237V47.1619H283.499C283.578 47.1619 283.617 47.2113 283.617 47.3102V50.7824C283.617 50.8616 283.578 50.9011 283.499 50.9011ZM289.879 50.9011H286.437C286.358 50.9011 286.318 50.8517 286.318 50.7527L286.377 29.8752C286.377 29.7961 286.417 29.7565 286.496 29.7565H292.639C293.737 29.7565 294.746 30.0236 295.666 30.5578C296.586 31.0919 297.318 31.8091 297.862 32.7093C298.416 33.6095 298.693 34.6284 298.693 35.766C298.693 36.5079 298.579 37.1806 298.352 37.784C298.124 38.3875 297.857 38.8969 297.551 39.3124C297.254 39.7279 296.982 40.0345 296.735 40.2324C297.833 41.4491 298.382 42.8785 298.382 44.5206L298.411 50.7527C298.411 50.8517 298.362 50.9011 298.263 50.9011H294.82C294.741 50.9011 294.702 50.8714 294.702 50.8121V44.5206C294.702 43.7886 294.444 43.1555 293.93 42.6213C293.416 42.0872 292.783 41.8201 292.031 41.8201H290.028L289.998 50.7527C289.998 50.8517 289.958 50.9011 289.879 50.9011ZM292.639 33.3919H290.028V38.1698H292.639C293.262 38.1698 293.816 37.9374 294.301 37.4724C294.796 37.0075 295.043 36.4387 295.043 35.766C295.043 35.123 294.806 34.5691 294.331 34.1041C293.856 33.6293 293.292 33.3919 292.639 33.3919ZM304.539 50.9011H301.097C301.018 50.9011 300.978 50.8517 300.978 50.7527L301.038 29.8752C301.038 29.7961 301.077 29.7565 301.156 29.7565H304.866C304.945 29.7565 305.014 29.7961 305.074 29.8752L307.848 33.8815L310.608 29.8752C310.668 29.7961 310.742 29.7565 310.831 29.7565H314.555C314.644 29.7565 314.689 29.7961 314.689 29.8752L314.748 50.7527C314.748 50.8517 314.709 50.9011 314.63 50.9011H311.187C311.108 50.9011 311.068 50.8517 311.068 50.7527L311.039 35.2467L307.848 39.8762L304.688 35.2467L304.658 50.7527C304.658 50.8517 304.619 50.9011 304.539 50.9011ZM316.277 50.7527L320.046 29.8752C320.065 29.7961 320.115 29.7565 320.194 29.7565H324.601C324.68 29.7565 324.73 29.7961 324.749 29.8752L328.37 50.7527C328.38 50.8517 328.34 50.9011 328.251 50.9011H324.883C324.784 50.9011 324.73 50.8517 324.72 50.7527L324.393 48.527H320.253L319.927 50.7527C319.917 50.8517 319.867 50.9011 319.778 50.9011H316.395C316.316 50.9011 316.277 50.8517 316.277 50.7527ZM322.227 36.7453L320.862 45.2774H323.785L322.538 36.7453L322.36 35.6176L322.227 36.7453ZM333.83 50.9011H330.388C330.309 50.9011 330.269 50.8517 330.269 50.7527L330.329 29.8752C330.329 29.7961 330.368 29.7565 330.447 29.7565H336.59C337.688 29.7565 338.697 30.0236 339.617 30.5578C340.537 31.0919 341.269 31.8091 341.813 32.7093C342.367 33.6095 342.644 34.6284 342.644 35.766C342.644 36.5079 342.531 37.1806 342.303 37.784C342.076 38.3875 341.808 38.8969 341.502 39.3124C341.205 39.7279 340.933 40.0345 340.686 40.2324C341.784 41.4491 342.333 42.8785 342.333 44.5206L342.362 50.7527C342.362 50.8517 342.313 50.9011 342.214 50.9011H338.772C338.692 50.9011 338.653 50.8714 338.653 50.8121V44.5206C338.653 43.7886 338.396 43.1555 337.881 42.6213C337.367 42.0872 336.734 41.8201 335.982 41.8201H333.979L333.949 50.7527C333.949 50.8517 333.909 50.9011 333.83 50.9011ZM336.59 33.3919H333.979V38.1698H336.59C337.214 38.1698 337.767 37.9374 338.252 37.4724C338.747 37.0075 338.994 36.4387 338.994 35.766C338.994 35.123 338.757 34.5691 338.282 34.1041C337.807 33.6293 337.243 33.3919 336.59 33.3919ZM348.491 50.9011H345.048C344.969 50.9011 344.929 50.8517 344.929 50.7527L344.989 29.9049C344.989 29.806 345.028 29.7565 345.107 29.7565H348.52C348.599 29.7565 348.639 29.806 348.639 29.9049V37.1015L353.402 29.8752C353.481 29.7961 353.555 29.7565 353.625 29.7565H357.112C357.201 29.7565 357.221 29.7961 357.171 29.8752L351.918 38.2589L357.809 50.7824C357.859 50.8616 357.809 50.9011 357.661 50.9011H353.951C353.852 50.9011 353.793 50.8616 353.773 50.7824L349.663 41.8497L348.609 43.5116V50.7527C348.609 50.8517 348.57 50.9011 348.491 50.9011ZM369.116 50.9011H359.293C359.214 50.9011 359.174 50.8517 359.174 50.7527L359.204 29.8752C359.204 29.7961 359.243 29.7565 359.323 29.7565H369.086C369.165 29.7565 369.205 29.806 369.205 29.9049V33.3029C369.205 33.382 369.165 33.4216 369.086 33.4216H362.854V38.1698H369.086C369.165 38.1698 369.205 38.2094 369.205 38.2885L369.235 41.731C369.235 41.8102 369.195 41.8497 369.116 41.8497H362.854V47.1619H369.116C369.195 47.1619 369.235 47.2113 369.235 47.3102V50.7824C369.235 50.8616 369.195 50.9011 369.116 50.9011ZM378.42 50.9011H374.992C374.903 50.9011 374.858 50.8517 374.858 50.7527V33.4216H370.911C370.812 33.4216 370.763 33.3721 370.763 33.2732L370.793 29.8752C370.793 29.7961 370.832 29.7565 370.911 29.7565H382.456C382.564 29.7565 382.619 29.7961 382.619 29.8752V33.2732C382.619 33.3721 382.579 33.4216 382.5 33.4216H378.509L378.538 50.7527C378.538 50.8517 378.499 50.9011 378.42 50.9011Z" fill="white"/>
<rect y="276" width="616" height="116" fill="#FF3D3D"/>
<path d="M137.382 360H128.132C127.863 360 127.729 359.866 127.729 359.598L127.89 303.012C127.89 302.798 127.998 302.691 128.212 302.691H154.594C154.863 302.691 154.997 302.798 154.997 303.012V312.302C154.997 312.517 154.889 312.624 154.675 312.624H137.784V325.413H154.675C154.889 325.413 154.997 325.547 154.997 325.815L155.077 335.146C155.077 335.36 154.943 335.468 154.675 335.468H137.784V359.598C137.784 359.866 137.65 360 137.382 360ZM189.342 360H162.718C162.504 360 162.397 359.866 162.397 359.598L162.477 303.093C162.477 302.825 162.611 302.691 162.879 302.691H172.049C172.317 302.691 172.451 302.825 172.451 303.093L172.37 349.865H189.342C189.61 349.865 189.744 349.999 189.744 350.267V359.598C189.744 359.866 189.61 360 189.342 360ZM192.358 359.598L202.574 303.012C202.627 302.798 202.761 302.691 202.976 302.691H214.92C215.135 302.691 215.269 302.798 215.322 303.012L225.135 359.598C225.162 359.866 225.055 360 224.814 360H215.684C215.416 360 215.269 359.866 215.242 359.598L214.357 353.565H203.137L202.252 359.598C202.225 359.866 202.091 360 201.85 360H192.68C192.466 360 192.358 359.866 192.358 359.598ZM208.485 321.633L204.785 344.758H212.708L209.33 321.633L208.847 318.576L208.485 321.633ZM244.279 360.804C241.356 360.804 238.662 360.054 236.195 358.552C233.755 357.051 231.798 355.053 230.323 352.56C228.876 350.04 228.152 347.278 228.152 344.275V340.495C228.152 340.2 228.286 340.052 228.554 340.052H237.804C238.018 340.052 238.125 340.2 238.125 340.495V344.275C238.125 346.071 238.729 347.627 239.935 348.94C241.142 350.227 242.59 350.871 244.279 350.871C245.995 350.871 247.456 350.214 248.662 348.9C249.869 347.56 250.472 346.018 250.472 344.275C250.472 342.264 249.158 340.508 246.531 339.007C246.102 338.739 245.539 338.417 244.842 338.041C244.171 337.639 243.367 337.183 242.429 336.674C241.49 336.165 240.579 335.669 239.694 335.186C238.809 334.677 237.951 334.194 237.12 333.738C234.117 331.969 231.878 329.757 230.404 327.102C228.956 324.421 228.232 321.418 228.232 318.094C228.232 315.037 228.983 312.276 230.484 309.809C231.986 307.369 233.943 305.439 236.356 304.018C238.796 302.57 241.437 301.846 244.279 301.846C247.201 301.846 249.882 302.57 252.322 304.018C254.762 305.492 256.706 307.45 258.154 309.889C259.628 312.329 260.366 315.064 260.366 318.094V324.85C260.366 325.065 260.258 325.172 260.044 325.172H250.794C250.579 325.172 250.472 325.065 250.472 324.85L250.392 318.094C250.392 316.163 249.788 314.595 248.582 313.388C247.375 312.182 245.941 311.579 244.279 311.579C242.59 311.579 241.142 312.222 239.935 313.509C238.729 314.796 238.125 316.324 238.125 318.094C238.125 319.89 238.501 321.392 239.252 322.598C240.029 323.805 241.437 324.957 243.474 326.057C243.689 326.164 244.185 326.432 244.962 326.861C245.74 327.29 246.598 327.773 247.536 328.309C248.501 328.818 249.373 329.288 250.15 329.717C250.928 330.119 251.397 330.36 251.558 330.44C254.293 331.969 256.451 333.845 258.033 336.071C259.642 338.296 260.446 341.031 260.446 344.275C260.446 347.412 259.722 350.227 258.274 352.721C256.8 355.214 254.842 357.185 252.403 358.633C249.963 360.08 247.255 360.804 244.279 360.804ZM275.809 360H266.479C266.264 360 266.157 359.866 266.157 359.598L266.237 303.012C266.237 302.798 266.371 302.691 266.639 302.691H275.809C276.077 302.691 276.211 302.798 276.211 303.012L276.131 325.413H288.477V303.012C288.477 302.798 288.585 302.691 288.799 302.691H297.969C298.237 302.691 298.371 302.798 298.371 303.012L298.532 359.598C298.532 359.866 298.398 360 298.129 360H288.879C288.611 360 288.477 359.866 288.477 359.598V335.387H276.131V359.598C276.131 359.866 276.023 360 275.809 360ZM319.243 360.804C316.321 360.804 313.626 360.054 311.16 358.552C308.72 357.051 306.763 355.053 305.288 352.56C303.84 350.04 303.116 347.278 303.116 344.275V340.495C303.116 340.2 303.25 340.052 303.519 340.052H312.768C312.983 340.052 313.09 340.2 313.09 340.495V344.275C313.09 346.071 313.693 347.627 314.9 348.94C316.106 350.227 317.554 350.871 319.243 350.871C320.959 350.871 322.421 350.214 323.627 348.9C324.834 347.56 325.437 346.018 325.437 344.275C325.437 342.264 324.123 340.508 321.496 339.007C321.067 338.739 320.504 338.417 319.806 338.041C319.136 337.639 318.332 337.183 317.393 336.674C316.455 336.165 315.543 335.669 314.659 335.186C313.774 334.677 312.916 334.194 312.085 333.738C309.082 331.969 306.843 329.757 305.368 327.102C303.921 324.421 303.197 321.418 303.197 318.094C303.197 315.037 303.947 312.276 305.449 309.809C306.95 307.369 308.908 305.439 311.321 304.018C313.76 302.57 316.401 301.846 319.243 301.846C322.166 301.846 324.847 302.57 327.287 304.018C329.727 305.492 331.67 307.45 333.118 309.889C334.593 312.329 335.33 315.064 335.33 318.094V324.85C335.33 325.065 335.223 325.172 335.009 325.172H325.759C325.544 325.172 325.437 325.065 325.437 324.85L325.356 318.094C325.356 316.163 324.753 314.595 323.547 313.388C322.34 312.182 320.906 311.579 319.243 311.579C317.554 311.579 316.106 312.222 314.9 313.509C313.693 314.796 313.09 316.324 313.09 318.094C313.09 319.89 313.466 321.392 314.216 322.598C314.994 323.805 316.401 324.957 318.439 326.057C318.654 326.164 319.15 326.432 319.927 326.861C320.705 327.29 321.563 327.773 322.501 328.309C323.466 328.818 324.338 329.288 325.115 329.717C325.893 330.119 326.362 330.36 326.523 330.44C329.257 331.969 331.416 333.845 332.998 336.071C334.606 338.296 335.411 341.031 335.411 344.275C335.411 347.412 334.687 350.227 333.239 352.721C331.764 355.214 329.807 357.185 327.367 358.633C324.927 360.08 322.219 360.804 319.243 360.804ZM338.347 359.598L348.562 303.012C348.615 302.798 348.749 302.691 348.964 302.691H360.908C361.123 302.691 361.257 302.798 361.311 303.012L371.123 359.598C371.15 359.866 371.043 360 370.802 360H361.672C361.404 360 361.257 359.866 361.23 359.598L360.345 353.565H349.125L348.24 359.598C348.213 359.866 348.079 360 347.838 360H338.668C338.454 360 338.347 359.866 338.347 359.598ZM354.474 321.633L350.774 344.758H358.696L355.318 321.633L354.836 318.576L354.474 321.633ZM403.217 360H376.593C376.379 360 376.271 359.866 376.271 359.598L376.352 303.093C376.352 302.825 376.486 302.691 376.754 302.691H385.923C386.191 302.691 386.326 302.825 386.326 303.093L386.245 349.865H403.217C403.485 349.865 403.619 349.999 403.619 350.267V359.598C403.619 359.866 403.485 360 403.217 360ZM435.953 360H409.33C409.115 360 409.008 359.866 409.008 359.598L409.088 303.012C409.088 302.798 409.196 302.691 409.41 302.691H435.873C436.088 302.691 436.195 302.825 436.195 303.093V312.302C436.195 312.517 436.088 312.624 435.873 312.624H418.982V325.494H435.873C436.088 325.494 436.195 325.601 436.195 325.815L436.275 335.146C436.275 335.36 436.168 335.468 435.953 335.468H418.982V349.865H435.953C436.168 349.865 436.275 349.999 436.275 350.267V359.678C436.275 359.893 436.168 360 435.953 360ZM451.357 344.838H445.726C445.485 344.838 445.351 344.704 445.324 344.436L443.595 325.494V303.093C443.595 302.825 443.702 302.691 443.916 302.691H453.166C453.435 302.691 453.569 302.825 453.569 303.093L453.488 325.494L451.759 344.436C451.732 344.704 451.598 344.838 451.357 344.838ZM453.166 360H443.916C443.702 360 443.595 359.866 443.595 359.598V350.629C443.595 350.388 443.702 350.267 443.916 350.267H453.166C453.381 350.267 453.488 350.388 453.488 350.629V359.598C453.488 359.866 453.381 360 453.166 360ZM468.087 344.838H462.457C462.215 344.838 462.081 344.704 462.054 344.436L460.325 325.494V303.093C460.325 302.825 460.432 302.691 460.647 302.691H469.897C470.165 302.691 470.299 302.825 470.299 303.093L470.219 325.494L468.489 344.436C468.462 344.704 468.328 344.838 468.087 344.838ZM469.897 360H460.647C460.432 360 460.325 359.866 460.325 359.598V350.629C460.325 350.388 460.432 350.267 460.647 350.267H469.897C470.111 350.267 470.219 350.388 470.219 350.629V359.598C470.219 359.866 470.111 360 469.897 360ZM484.817 344.838H479.187C478.946 344.838 478.812 344.704 478.785 344.436L477.055 325.494V303.093C477.055 302.825 477.163 302.691 477.377 302.691H486.627C486.895 302.691 487.029 302.825 487.029 303.093L486.949 325.494L485.219 344.436C485.193 344.704 485.059 344.838 484.817 344.838ZM486.627 360H477.377C477.163 360 477.055 359.866 477.055 359.598V350.629C477.055 350.388 477.163 350.267 477.377 350.267H486.627C486.842 350.267 486.949 350.388 486.949 350.629V359.598C486.949 359.866 486.842 360 486.627 360Z" fill="white"/>
</svg>
