<svg width="389" height="412" viewBox="0 0 389 412" fill="none" xmlns="http://www.w3.org/2000/svg">
<rect width="389" height="115" rx="57.5" fill="#804C18"/>
<mask id="mask0_148_558" style="mask-type:alpha" maskUnits="userSpaceOnUse" x="44" y="98" width="301" height="314">
<path d="M44 98H345L294 412H91.5L44 98Z" fill="#D53838"/>
</mask>
<g mask="url(#mask0_148_558)">
<path d="M44 98H345L294 412H91.5L44 98Z" fill="#804C18"/>
<rect x="-38" y="153" width="476" height="155" fill="#F0A961"/>
</g>
<ellipse cx="195" cy="50.5" rx="134" ry="40.5" fill="#FFE6D3"/>
<path d="M106.683 255.804C103.707 255.804 100.986 255.054 98.5191 253.552C96.0793 252.051 94.1354 250.04 92.6876 247.52C91.2666 244.973 90.5561 242.144 90.5561 239.034L90.6366 213.335C90.6366 210.279 91.3336 207.517 92.7278 205.05C94.122 202.557 96.0391 200.559 98.4789 199.058C100.946 197.53 103.68 196.766 106.683 196.766C109.74 196.766 112.461 197.503 114.847 198.978C117.26 200.452 119.177 202.45 120.598 204.97C122.046 207.463 122.77 210.252 122.77 213.335V217.115C122.77 217.33 122.663 217.437 122.448 217.437H113.198C112.984 217.437 112.877 217.33 112.877 217.115V213.335C112.877 211.512 112.287 209.943 111.107 208.63C109.927 207.316 108.453 206.659 106.683 206.659C104.726 206.659 103.225 207.329 102.179 208.67C101.133 210.01 100.61 211.566 100.61 213.335V239.034C100.61 241.045 101.2 242.694 102.38 243.981C103.56 245.241 104.994 245.871 106.683 245.871C108.453 245.871 109.927 245.174 111.107 243.779C112.287 242.358 112.877 240.777 112.877 239.034V235.213C112.877 234.999 112.984 234.891 113.198 234.891H122.529C122.743 234.891 122.85 234.999 122.85 235.213V239.034C122.85 242.117 122.127 244.932 120.679 247.479C119.204 250 117.26 252.024 114.847 253.552C112.434 255.054 109.713 255.804 106.683 255.804ZM144.085 255.804C141.163 255.804 138.468 255.054 136.001 253.552C133.562 252.051 131.591 250.053 130.09 247.56C128.615 245.04 127.878 242.278 127.878 239.275L127.958 213.174C127.958 210.118 128.695 207.37 130.17 204.93C131.618 202.463 133.575 200.492 136.042 199.018C138.508 197.516 141.189 196.766 144.085 196.766C147.088 196.766 149.783 197.503 152.169 198.978C154.582 200.452 156.512 202.436 157.96 204.93C159.435 207.396 160.172 210.144 160.172 213.174L160.252 239.275C160.252 242.278 159.528 245.026 158.081 247.52C156.606 250.04 154.649 252.051 152.209 253.552C149.769 255.054 147.061 255.804 144.085 255.804ZM144.085 245.871C145.747 245.871 147.195 245.2 148.429 243.86C149.662 242.492 150.279 240.964 150.279 239.275L150.198 213.174C150.198 211.351 149.622 209.809 148.469 208.549C147.316 207.289 145.855 206.659 144.085 206.659C142.396 206.659 140.948 207.276 139.742 208.509C138.535 209.742 137.932 211.297 137.932 213.174V239.275C137.932 241.071 138.535 242.627 139.742 243.94C140.948 245.227 142.396 245.871 144.085 245.871ZM176.138 255H166.888C166.62 255 166.486 254.866 166.486 254.598L166.647 198.012C166.647 197.798 166.754 197.691 166.969 197.691H193.351C193.619 197.691 193.753 197.798 193.753 198.012V207.302C193.753 207.517 193.646 207.624 193.432 207.624H176.54V220.413H193.432C193.646 220.413 193.753 220.547 193.753 220.815L193.834 230.146C193.834 230.36 193.7 230.468 193.432 230.468H176.54V254.598C176.54 254.866 176.406 255 176.138 255ZM210.805 255H201.555C201.287 255 201.153 254.866 201.153 254.598L201.314 198.012C201.314 197.798 201.421 197.691 201.636 197.691H228.018C228.286 197.691 228.42 197.798 228.42 198.012V207.302C228.42 207.517 228.313 207.624 228.099 207.624H211.207V220.413H228.099C228.313 220.413 228.42 220.547 228.42 220.815L228.501 230.146C228.501 230.36 228.367 230.468 228.099 230.468H211.207V254.598C211.207 254.866 211.073 255 210.805 255ZM262.766 255H236.142C235.928 255 235.82 254.866 235.82 254.598L235.901 198.012C235.901 197.798 236.008 197.691 236.223 197.691H262.685C262.9 197.691 263.007 197.825 263.007 198.093V207.302C263.007 207.517 262.9 207.624 262.685 207.624H245.794V220.494H262.685C262.9 220.494 263.007 220.601 263.007 220.815L263.088 230.146C263.088 230.36 262.98 230.468 262.766 230.468H245.794V244.865H262.766C262.98 244.865 263.088 244.999 263.088 245.267V254.678C263.088 254.893 262.98 255 262.766 255ZM297.353 255H270.729C270.514 255 270.407 254.866 270.407 254.598L270.488 198.012C270.488 197.798 270.595 197.691 270.809 197.691H297.272C297.487 197.691 297.594 197.825 297.594 198.093V207.302C297.594 207.517 297.487 207.624 297.272 207.624H280.381V220.494H297.272C297.487 220.494 297.594 220.601 297.594 220.815L297.674 230.146C297.674 230.36 297.567 230.468 297.353 230.468H280.381V244.865H297.353C297.567 244.865 297.674 244.999 297.674 245.267V254.678C297.674 254.893 297.567 255 297.353 255Z" fill="white"/>
</svg>
