<svg width="122" height="205" viewBox="0 0 122 205" fill="none" xmlns="http://www.w3.org/2000/svg">
<rect width="122" height="205" fill="#3E94C6"/>
<rect x="33" width="89" height="23" fill="#BBE6FF"/>
<rect x="16" y="42" width="89" height="134" fill="white"/>
<path d="M31.8528 116H26.9C26.7862 116 26.7292 115.929 26.7292 115.787L26.8146 85.7493C26.8146 85.6354 26.8715 85.5785 26.9854 85.5785H32.3225C32.4364 85.5785 32.536 85.6354 32.6214 85.7493L36.6136 91.5133L40.5844 85.7493C40.6698 85.6354 40.7765 85.5785 40.9046 85.5785H46.263C46.3911 85.5785 46.4552 85.6354 46.4552 85.7493L46.5406 115.787C46.5406 115.929 46.4836 116 46.3698 116H41.4169C41.3031 116 41.2462 115.929 41.2462 115.787L41.2035 93.4774L36.6136 100.138L32.0663 93.4774L32.0236 115.787C32.0236 115.929 31.9667 116 31.8528 116ZM55.3788 116H50.426C50.2837 116 50.2125 115.929 50.2125 115.787L50.2552 85.7493C50.2552 85.6354 50.3121 85.5785 50.426 85.5785H55.3361C55.45 85.5785 55.5069 85.6354 55.5069 85.7493L55.5496 115.787C55.5496 115.929 55.4927 116 55.3788 116ZM73.6958 116H59.5631C59.4493 116 59.3923 115.929 59.3923 115.787L59.435 85.792C59.435 85.6496 59.5062 85.5785 59.6485 85.5785H64.516C64.6583 85.5785 64.7294 85.6496 64.7294 85.792L64.6867 110.62H73.6958C73.8381 110.62 73.9093 110.691 73.9093 110.834V115.787C73.9093 115.929 73.8381 116 73.6958 116ZM81.8936 116H76.9408C76.8269 116 76.77 115.929 76.77 115.787L76.8554 85.792C76.8554 85.6496 76.9123 85.5785 77.0261 85.5785H81.9363C82.0501 85.5785 82.1071 85.6496 82.1071 85.792V96.146L88.9599 85.7493C89.0738 85.6354 89.1805 85.5785 89.2801 85.5785H94.297C94.4251 85.5785 94.4536 85.6354 94.3824 85.7493L86.8251 97.8111L95.3004 115.829C95.3716 115.943 95.3004 116 95.0869 116H89.7498C89.6075 116 89.5221 115.943 89.4936 115.829L83.5801 102.977L82.0644 105.368V115.787C82.0644 115.929 82.0074 116 81.8936 116Z" fill="#1E1E1E"/>
</svg>
