<svg width="237" height="244" viewBox="0 0 237 244" fill="none" xmlns="http://www.w3.org/2000/svg">
<path d="M0 0H236.5L214.5 244H21.5L0 0Z" fill="#F3C847"/>
<path d="M20.5 27H216.5L198.267 244H38.3182L20.5 27Z" fill="#FFE081"/>
<path d="M90.9316 144.845C87.862 144.845 85.0317 144.056 82.4408 142.479C79.8781 140.902 77.8082 138.804 76.2312 136.185C74.6823 133.538 73.9078 130.637 73.9078 127.483L73.9923 100.068C73.9923 96.8572 74.7668 93.9706 76.3157 91.4079C77.8364 88.817 79.8922 86.7471 82.4831 85.1982C85.074 83.6212 87.8902 82.8326 90.9316 82.8326C94.0857 82.8326 96.916 83.6071 99.4224 85.156C101.957 86.7049 103.985 88.7888 105.505 91.4079C107.054 93.9988 107.829 96.8854 107.829 100.068L107.913 127.483C107.913 130.637 107.153 133.524 105.632 136.143C104.083 138.79 102.027 140.902 99.4646 142.479C96.9019 144.056 94.0576 144.845 90.9316 144.845ZM90.9316 134.411C92.6777 134.411 94.1984 133.707 95.4938 132.299C96.7893 130.863 97.437 129.257 97.437 127.483L97.3525 100.068C97.3525 98.1526 96.747 96.5333 95.5361 95.2097C94.3251 93.8861 92.7903 93.2243 90.9316 93.2243C89.1574 93.2243 87.6367 93.872 86.3694 95.1675C85.1021 96.4629 84.4685 98.0963 84.4685 100.068V127.483C84.4685 129.37 85.1021 131.003 86.3694 132.383C87.6367 133.735 89.1574 134.411 90.9316 134.411ZM124.684 144H114.883C114.602 144 114.461 143.859 114.461 143.578L114.545 84.1422C114.545 83.9169 114.658 83.8042 114.883 83.8042H124.599C124.824 83.8042 124.937 83.9169 124.937 84.1422L125.021 143.578C125.021 143.859 124.909 144 124.684 144ZM160.928 144H132.963C132.738 144 132.625 143.859 132.625 143.578L132.71 84.2266C132.71 83.945 132.85 83.8042 133.132 83.8042H142.763C143.045 83.8042 143.186 83.945 143.186 84.2266L143.101 133.355H160.928C161.209 133.355 161.35 133.496 161.35 133.777V143.578C161.35 143.859 161.209 144 160.928 144Z" fill="#F0A961"/>
</svg>
