<svg width="179" height="217" viewBox="0 0 179 217" fill="none" xmlns="http://www.w3.org/2000/svg">
<ellipse cx="89.5" cy="84.5" rx="89.5" ry="84.5" fill="white"/>
<rect y="85" width="179" height="132" fill="#F0A961"/>
<path d="M61.8528 157H56.9C56.7862 157 56.7292 156.929 56.7292 156.787L56.8146 126.749C56.8146 126.635 56.8715 126.578 56.9854 126.578H65.8237C67.4034 126.578 68.8551 126.963 70.1787 127.731C71.5023 128.5 72.5555 129.532 73.3383 130.827C74.1353 132.122 74.5338 133.588 74.5338 135.225C74.5338 136.292 74.3702 137.26 74.0428 138.128C73.7155 138.996 73.3312 139.729 72.89 140.327C72.463 140.925 72.0716 141.366 71.7158 141.65C73.2956 143.401 74.0855 145.458 74.0855 147.82L74.1282 156.787C74.1282 156.929 74.057 157 73.9147 157H68.9619C68.848 157 68.7911 156.957 68.7911 156.872V147.82C68.7911 146.767 68.4211 145.856 67.681 145.088C66.9409 144.319 66.03 143.935 64.9484 143.935H62.0663L62.0236 156.787C62.0236 156.929 61.9667 157 61.8528 157ZM65.8237 131.809H62.0663V138.683H65.8237C66.7203 138.683 67.5173 138.349 68.2147 137.68C68.9263 137.011 69.2821 136.192 69.2821 135.225C69.2821 134.299 68.9405 133.502 68.2574 132.834C67.5742 132.15 66.763 131.809 65.8237 131.809ZM82.9878 157H78.035C77.8926 157 77.8215 156.929 77.8215 156.787L77.8642 126.749C77.8642 126.635 77.9211 126.578 78.035 126.578H82.9451C83.059 126.578 83.1159 126.635 83.1159 126.749L83.1586 156.787C83.1586 156.929 83.1017 157 82.9878 157ZM95.0497 157.427C93.4699 157.427 92.0253 157.028 90.7159 156.231C89.4208 155.434 88.389 154.367 87.6204 153.029C86.8661 151.677 86.4889 150.176 86.4889 148.525L86.5316 134.883C86.5316 133.261 86.9017 131.795 87.6418 130.485C88.3818 129.162 89.3995 128.101 90.6946 127.304C92.004 126.493 93.4557 126.087 95.0497 126.087C96.6722 126.087 98.1167 126.479 99.3834 127.262C100.664 128.044 101.682 129.105 102.436 130.443C103.205 131.766 103.589 133.246 103.589 134.883V136.89C103.589 137.004 103.532 137.061 103.418 137.061H98.5081C98.3943 137.061 98.3373 137.004 98.3373 136.89V134.883C98.3373 133.915 98.0242 133.083 97.398 132.385C96.7718 131.688 95.989 131.339 95.0497 131.339C94.0107 131.339 93.2137 131.695 92.6586 132.407C92.1036 133.118 91.8261 133.944 91.8261 134.883V148.525C91.8261 149.592 92.1392 150.467 92.7654 151.151C93.3916 151.819 94.153 152.154 95.0497 152.154C95.989 152.154 96.7718 151.784 97.398 151.044C98.0242 150.289 98.3373 149.45 98.3373 148.525V146.497C98.3373 146.383 98.3943 146.326 98.5081 146.326H103.461C103.575 146.326 103.632 146.383 103.632 146.497V148.525C103.632 150.161 103.247 151.656 102.479 153.008C101.696 154.346 100.664 155.42 99.3834 156.231C98.1025 157.028 96.6579 157.427 95.0497 157.427ZM121.116 157H106.983C106.87 157 106.813 156.929 106.813 156.787L106.855 126.749C106.855 126.635 106.912 126.578 107.026 126.578H121.073C121.187 126.578 121.244 126.65 121.244 126.792V131.681C121.244 131.795 121.187 131.852 121.073 131.852H112.107V138.683H121.073C121.187 138.683 121.244 138.74 121.244 138.854L121.287 143.807C121.287 143.921 121.23 143.977 121.116 143.977H112.107V151.62H121.116C121.23 151.62 121.287 151.691 121.287 151.834V156.829C121.287 156.943 121.23 157 121.116 157Z" fill="white"/>
</svg>
