<svg width="257" height="189" viewBox="0 0 257 189" fill="none" xmlns="http://www.w3.org/2000/svg">
<rect width="257" height="189" rx="94.5" fill="white"/>
<path d="M93.2012 22.4841C112.676 22.4841 128.827 37.1779 131.844 56.4216C132.013 56.4194 132.183 56.4148 132.353 56.4148C153.975 56.4148 171.504 74.5277 171.504 96.8708C171.504 119.214 153.975 137.327 132.353 137.327C123.825 137.327 115.936 134.508 109.506 129.725C102.332 138.12 91.8415 143.417 80.1514 143.417C58.5289 143.417 41 125.304 41 102.961C41.0001 90.5016 46.452 79.3593 55.0234 71.9382C54.3874 69.0444 54.0508 66.0329 54.0508 62.9402C54.0508 40.5971 71.5789 22.4844 93.2012 22.4841Z" fill="#6C9D53"/>
<rect x="87.9814" y="67.0027" width="7.68485" height="105.273" transform="rotate(-13.0848 87.9814 67.0027)" fill="#FFE4CA"/>
<path d="M129.482 21.3434C148.707 24.4564 162.301 41.5429 162.203 61.0215C162.371 61.0464 162.539 61.069 162.707 61.0962C184.051 64.5527 198.459 85.2344 194.887 107.29C191.316 129.346 171.118 144.424 149.773 140.968C141.355 139.605 134.018 135.56 128.435 129.811C120.011 136.952 108.809 140.505 97.2689 138.636C75.9246 135.18 61.5165 114.498 65.0879 92.4417C67.0795 80.1426 74.2424 70.0145 83.89 64.0589C83.7247 61.1006 83.8739 58.074 84.3682 55.021C87.9398 32.9652 108.138 17.8873 129.482 21.3434Z" fill="#396920"/>
<rect x="117.214" y="64.4551" width="7.68485" height="105.273" transform="rotate(-3.88661 117.214 64.4551)" fill="#FFE4CA"/>
<path d="M165.795 22.1232C184.275 28.2694 194.962 47.309 191.752 66.5212C191.913 66.5726 192.076 66.6217 192.237 66.6753C212.754 73.4991 223.671 96.2182 216.62 117.42C209.569 138.621 187.219 150.276 166.702 143.453C158.61 140.761 152.014 135.597 147.423 129.03C137.966 134.732 126.339 136.446 115.246 132.757C94.7292 125.933 83.813 103.214 90.8643 82.0131C94.7962 70.1908 103.485 61.3382 113.96 57.0013C114.27 54.0546 114.901 51.0908 115.877 48.1561C122.928 26.9547 145.278 15.2994 165.795 22.1232Z" fill="#72AF53"/>
<rect x="146.791" y="62.719" width="7.68485" height="105.273" transform="rotate(5.31155 146.791 62.719)" fill="#FFE4CA"/>
<g opacity="0.2">
<g filter="url(#filter0_i_140_493)">
<rect width="257" height="189" rx="94.5" fill="#30B2FD"/>
</g>
<rect x="6" y="6" width="245" height="177" rx="88.5" stroke="black" stroke-width="12"/>
</g>
<defs>
<filter id="filter0_i_140_493" x="0" y="0" width="257" height="189" filterUnits="userSpaceOnUse" color-interpolation-filters="sRGB">
<feFlood flood-opacity="0" result="BackgroundImageFix"/>
<feBlend mode="normal" in="SourceGraphic" in2="BackgroundImageFix" result="shape"/>
<feColorMatrix in="SourceAlpha" type="matrix" values="0 0 0 0 0 0 0 0 0 0 0 0 0 0 0 0 0 0 127 0" result="hardAlpha"/>
<feOffset dx="22" dy="1"/>
<feComposite in2="hardAlpha" operator="arithmetic" k2="-1" k3="1"/>
<feColorMatrix type="matrix" values="0 0 0 0 1 0 0 0 0 0.987298 0 0 0 0 0.987298 0 0 0 1 0"/>
<feBlend mode="normal" in2="shape" result="effect1_innerShadow_140_493"/>
</filter>
</defs>
</svg>
