<svg width="956" height="641" viewBox="0 0 956 641" fill="none" xmlns="http://www.w3.org/2000/svg">
<g clip-path="url(#clip0_60_608)">
<rect width="955.596" height="640.043" fill="#36B5FF"/>
<rect x="255.236" y="49.7067" width="445.126" height="746.158" fill="#393838"/>
<rect x="317.787" y="112.258" width="320.021" height="527.784" fill="white"/>
<rect x="340.127" y="132.364" width="275.341" height="83.7752" fill="#D9D9D9"/>
<path d="M400.381 196.79H392.146C391.908 196.79 391.788 196.671 391.788 196.432L391.932 146.056C391.932 145.865 392.027 145.769 392.218 145.769H415.705C415.944 145.769 416.063 145.865 416.063 146.056V154.327C416.063 154.518 415.968 154.613 415.777 154.613H400.739V165.999H415.777C415.968 165.999 416.063 166.118 416.063 166.357L416.135 174.663C416.135 174.854 416.016 174.95 415.777 174.95H400.739V196.432C400.739 196.671 400.62 196.79 400.381 196.79ZM436.221 197.506C433.619 197.506 431.22 196.838 429.024 195.501C426.852 194.164 425.098 192.386 423.761 190.166C422.448 187.923 421.792 185.464 421.792 182.791L421.864 159.554C421.864 156.833 422.52 154.386 423.833 152.214C425.122 150.018 426.864 148.264 429.06 146.951C431.256 145.614 433.643 144.946 436.221 144.946C438.894 144.946 441.293 145.602 443.417 146.915C445.566 148.228 447.284 149.994 448.573 152.214C449.886 154.41 450.542 156.857 450.542 159.554L450.614 182.791C450.614 185.464 449.97 187.911 448.681 190.13C447.368 192.374 445.625 194.164 443.453 195.501C441.281 196.838 438.87 197.506 436.221 197.506ZM436.221 188.662C437.701 188.662 438.99 188.066 440.088 186.872C441.186 185.655 441.735 184.294 441.735 182.791L441.663 159.554C441.663 157.931 441.15 156.558 440.123 155.437C439.097 154.315 437.796 153.754 436.221 153.754C434.717 153.754 433.428 154.303 432.354 155.401C431.28 156.499 430.743 157.883 430.743 159.554V182.791C430.743 184.39 431.28 185.774 432.354 186.944C433.428 188.09 434.717 188.662 436.221 188.662ZM469.733 197.506C467.132 197.506 464.733 196.838 462.537 195.501C460.365 194.164 458.61 192.386 457.274 190.166C455.961 187.923 455.304 185.464 455.304 182.791L455.376 159.554C455.376 156.833 456.032 154.386 457.345 152.214C458.634 150.018 460.377 148.264 462.572 146.951C464.768 145.614 467.155 144.946 469.733 144.946C472.407 144.946 474.805 145.602 476.93 146.915C479.078 148.228 480.797 149.994 482.086 152.214C483.398 154.41 484.055 156.857 484.055 159.554L484.126 182.791C484.126 185.464 483.482 187.911 482.193 190.13C480.88 192.374 479.138 194.164 476.966 195.501C474.794 196.838 472.383 197.506 469.733 197.506ZM469.733 188.662C471.213 188.662 472.502 188.066 473.6 186.872C474.698 185.655 475.247 184.294 475.247 182.791L475.175 159.554C475.175 157.931 474.662 156.558 473.636 155.437C472.609 154.315 471.309 153.754 469.733 153.754C468.229 153.754 466.941 154.303 465.866 155.401C464.792 156.499 464.255 157.883 464.255 159.554V182.791C464.255 184.39 464.792 185.774 465.866 186.944C466.941 188.09 468.229 188.662 469.733 188.662ZM503.174 196.718L490.034 196.79C489.795 196.79 489.676 196.671 489.676 196.432L489.819 146.056C489.819 145.865 489.915 145.769 490.106 145.769L503.818 145.698C506.54 145.626 508.998 146.247 511.194 147.56C513.414 148.872 515.18 150.651 516.493 152.894C517.83 155.114 518.498 157.573 518.498 160.27V181.323C518.498 184.139 517.818 186.717 516.457 189.056C515.073 191.372 513.235 193.221 510.943 194.606C508.652 195.966 506.062 196.671 503.174 196.718ZM503.818 154.47L498.699 154.541L498.627 187.767H503.174C504.988 187.767 506.516 187.135 507.757 185.87C508.998 184.605 509.619 183.089 509.619 181.323V160.198C509.619 158.647 509.046 157.298 507.9 156.153C506.754 154.983 505.394 154.422 503.818 154.47ZM532.927 196.79H524.62C524.382 196.79 524.262 196.671 524.262 196.432L524.334 146.056C524.334 145.865 524.43 145.769 524.62 145.769H532.855C533.046 145.769 533.142 145.865 533.142 146.056L533.213 196.432C533.213 196.671 533.118 196.79 532.927 196.79ZM563.647 196.79H539.945C539.754 196.79 539.658 196.671 539.658 196.432L539.73 146.056C539.73 145.865 539.825 145.769 540.016 145.769H563.575C563.766 145.769 563.861 145.889 563.861 146.128V154.327C563.861 154.518 563.766 154.613 563.575 154.613H548.537V166.07H563.575C563.766 166.07 563.861 166.166 563.861 166.357L563.933 174.663C563.933 174.854 563.838 174.95 563.647 174.95H548.537V187.767H563.647C563.838 187.767 563.933 187.887 563.933 188.125V196.503C563.933 196.694 563.838 196.79 563.647 196.79Z" fill="white"/>
<path d="M342.365 279.248C342.365 261.358 356.868 246.855 374.758 246.855C392.649 246.855 407.151 261.358 407.151 279.248V285.95H342.365V279.248Z" fill="#F0A961"/>
<rect x="340.131" y="282.042" width="68.6957" height="7.81902" rx="3.90951" fill="#9C2E2E"/>
<rect width="68.6957" height="6.70202" rx="3.35101" transform="matrix(1 0 0 -1 340.131 296.564)" fill="#6C9D53"/>
<rect width="68.6957" height="2.79251" rx="1.39625" transform="matrix(1 0 0 -1 340.131 292.655)" fill="#F5FF69"/>
<rect width="68.6957" height="14.521" rx="7.26052" transform="matrix(1 0 0 -1 340.131 311.084)" fill="#F0A961"/>
<ellipse cx="355.212" cy="289.303" rx="5.58501" ry="3.35101" fill="#DF2626"/>
<ellipse cx="368.06" cy="289.303" rx="5.58501" ry="3.35101" fill="#DF2626"/>
<ellipse cx="380.902" cy="289.303" rx="5.58501" ry="3.35101" fill="#DF2626"/>
<ellipse cx="393.745" cy="289.303" rx="5.58501" ry="3.35101" fill="#DF2626"/>
<path d="M424.499 266.563L427.663 249.035C427.68 248.968 427.721 248.935 427.788 248.935H431.488C431.554 248.935 431.596 248.968 431.612 249.035L434.652 266.563C434.66 266.646 434.627 266.688 434.552 266.688H431.724C431.641 266.688 431.596 266.646 431.587 266.563L431.313 264.694H427.838L427.564 266.563C427.555 266.646 427.514 266.688 427.439 266.688H424.599C424.532 266.688 424.499 266.646 424.499 266.563ZM429.494 254.803L428.348 261.966H430.803L429.756 254.803L429.607 253.856L429.494 254.803ZM444.593 266.688H436.346C436.28 266.688 436.247 266.646 436.247 266.563L436.272 249.06C436.272 248.977 436.313 248.935 436.396 248.935H439.237C439.32 248.935 439.361 248.977 439.361 249.06L439.336 263.548H444.593C444.677 263.548 444.718 263.59 444.718 263.673V266.563C444.718 266.646 444.677 266.688 444.593 266.688ZM451.084 266.663L446.512 266.688C446.429 266.688 446.387 266.646 446.387 266.563L446.437 249.035C446.437 248.968 446.47 248.935 446.537 248.935L451.308 248.91C452.255 248.885 453.111 249.101 453.875 249.558C454.647 250.015 455.262 250.633 455.718 251.414C456.183 252.187 456.416 253.042 456.416 253.98V261.306C456.416 262.286 456.179 263.183 455.706 263.997C455.224 264.802 454.585 265.446 453.787 265.928C452.99 266.401 452.089 266.646 451.084 266.663ZM451.308 251.962L449.527 251.987L449.502 263.548H451.084C451.715 263.548 452.247 263.328 452.679 262.888C453.111 262.448 453.326 261.92 453.326 261.306V253.956C453.326 253.416 453.127 252.946 452.728 252.548C452.33 252.141 451.856 251.946 451.308 251.962ZM463.143 266.937C462.238 266.937 461.403 266.704 460.639 266.239C459.883 265.774 459.273 265.155 458.808 264.383C458.351 263.602 458.123 262.747 458.123 261.816L458.148 253.731C458.148 252.784 458.376 251.933 458.833 251.177C459.281 250.413 459.888 249.803 460.652 249.346C461.416 248.881 462.246 248.648 463.143 248.648C464.073 248.648 464.908 248.877 465.647 249.334C466.395 249.79 466.993 250.405 467.441 251.177C467.898 251.941 468.126 252.793 468.126 253.731L468.151 261.816C468.151 262.747 467.927 263.598 467.479 264.37C467.022 265.151 466.416 265.774 465.66 266.239C464.904 266.704 464.065 266.937 463.143 266.937ZM463.143 263.86C463.658 263.86 464.107 263.652 464.489 263.237C464.871 262.813 465.062 262.34 465.062 261.816L465.037 253.731C465.037 253.167 464.858 252.689 464.501 252.299C464.144 251.908 463.691 251.713 463.143 251.713C462.62 251.713 462.172 251.904 461.798 252.286C461.424 252.668 461.237 253.15 461.237 253.731V261.816C461.237 262.373 461.424 262.855 461.798 263.262C462.172 263.66 462.62 263.86 463.143 263.86ZM473.232 248.751C473.079 249.347 472.883 249.993 472.645 250.69C472.407 251.388 472.143 252.085 471.854 252.782C471.582 253.463 471.31 254.109 471.038 254.722H469.379C469.498 254.245 469.618 253.735 469.737 253.191C469.873 252.646 469.992 252.102 470.094 251.558C470.213 250.997 470.315 250.452 470.4 249.925C470.502 249.398 470.587 248.913 470.655 248.471H473.053L473.232 248.751ZM478.878 266.937C477.972 266.937 477.138 266.704 476.374 266.239C475.618 265.774 475.012 265.155 474.555 264.383C474.106 263.602 473.882 262.747 473.882 261.816V260.645C473.882 260.554 473.924 260.508 474.007 260.508H476.872C476.938 260.508 476.972 260.554 476.972 260.645V261.816C476.972 262.373 477.158 262.855 477.532 263.262C477.906 263.66 478.354 263.86 478.878 263.86C479.409 263.86 479.862 263.656 480.236 263.249C480.609 262.834 480.796 262.356 480.796 261.816C480.796 261.194 480.389 260.65 479.575 260.184C479.442 260.101 479.268 260.002 479.052 259.885C478.844 259.761 478.595 259.62 478.305 259.462C478.014 259.304 477.731 259.15 477.457 259.001C477.183 258.843 476.918 258.694 476.66 258.552C475.73 258.004 475.036 257.319 474.58 256.497C474.131 255.666 473.907 254.736 473.907 253.706C473.907 252.76 474.139 251.904 474.605 251.14C475.07 250.384 475.676 249.786 476.423 249.346C477.179 248.898 477.997 248.673 478.878 248.673C479.783 248.673 480.613 248.898 481.369 249.346C482.125 249.803 482.727 250.409 483.176 251.165C483.632 251.921 483.861 252.768 483.861 253.706V255.799C483.861 255.866 483.828 255.899 483.761 255.899H480.896C480.829 255.899 480.796 255.866 480.796 255.799L480.771 253.706C480.771 253.108 480.584 252.623 480.211 252.249C479.837 251.875 479.393 251.688 478.878 251.688C478.354 251.688 477.906 251.888 477.532 252.286C477.158 252.685 476.972 253.158 476.972 253.706C476.972 254.263 477.088 254.728 477.32 255.102C477.561 255.475 477.997 255.833 478.628 256.173C478.695 256.206 478.849 256.289 479.089 256.422C479.33 256.555 479.596 256.705 479.887 256.871C480.186 257.028 480.456 257.174 480.696 257.307C480.937 257.431 481.083 257.506 481.133 257.531C481.98 258.004 482.648 258.586 483.138 259.275C483.637 259.964 483.886 260.812 483.886 261.816C483.886 262.788 483.661 263.66 483.213 264.433C482.756 265.205 482.15 265.815 481.394 266.264C480.638 266.712 479.8 266.937 478.878 266.937ZM496.954 266.688H492.382C492.316 266.688 492.282 266.646 492.282 266.563L492.332 249.035C492.332 248.968 492.365 248.935 492.432 248.935H497.34C498.295 248.935 499.163 249.168 499.944 249.633C500.708 250.098 501.31 250.716 501.75 251.489C502.191 252.253 502.411 253.083 502.411 253.98C502.411 254.711 502.244 255.392 501.912 256.024C501.58 256.655 501.186 257.166 500.729 257.556C501.219 258.046 501.601 258.615 501.875 259.263C502.149 259.91 502.286 260.591 502.286 261.306C502.286 262.294 502.049 263.195 501.576 264.009C501.094 264.823 500.451 265.475 499.645 265.965C498.839 266.447 497.942 266.688 496.954 266.688ZM497.34 251.962H495.397V255.974H497.34C497.93 255.974 498.407 255.766 498.773 255.351C499.138 254.927 499.321 254.47 499.321 253.98C499.321 253.441 499.126 252.971 498.736 252.573C498.345 252.166 497.88 251.962 497.34 251.962ZM496.954 259.063H495.397L495.372 263.573H496.954C497.569 263.573 498.096 263.349 498.536 262.9C498.976 262.452 499.196 261.92 499.196 261.306C499.196 260.691 498.976 260.164 498.536 259.724C498.096 259.283 497.569 259.063 496.954 259.063ZM508.814 266.937C507.917 266.937 507.086 266.704 506.322 266.239C505.558 265.774 504.948 265.151 504.491 264.37C504.043 263.581 503.818 262.722 503.818 261.792L503.868 249.035C503.868 248.968 503.901 248.935 503.968 248.935H506.833C506.9 248.935 506.933 248.968 506.933 249.035V261.792C506.933 262.365 507.116 262.855 507.481 263.262C507.846 263.66 508.291 263.86 508.814 263.86C509.362 263.86 509.819 263.66 510.184 263.262C510.55 262.855 510.732 262.365 510.732 261.792V249.035C510.732 248.968 510.766 248.935 510.832 248.935H513.697C513.764 248.935 513.797 248.968 513.797 249.035L513.847 261.792C513.847 262.73 513.623 263.594 513.174 264.383C512.717 265.163 512.111 265.786 511.355 266.251C510.6 266.708 509.752 266.937 508.814 266.937ZM518.843 266.688H515.952C515.886 266.688 515.853 266.646 515.853 266.563L515.903 249.035C515.903 248.968 515.936 248.935 516.002 248.935H521.16C522.082 248.935 522.929 249.159 523.701 249.608C524.474 250.056 525.088 250.658 525.545 251.414C526.01 252.17 526.243 253.025 526.243 253.98C526.243 254.603 526.147 255.168 525.956 255.675C525.765 256.181 525.541 256.609 525.283 256.958C525.034 257.307 524.806 257.564 524.598 257.73C525.52 258.752 525.981 259.952 525.981 261.331L526.006 266.563C526.006 266.646 525.964 266.688 525.881 266.688H522.991C522.925 266.688 522.891 266.663 522.891 266.613V261.331C522.891 260.716 522.675 260.184 522.244 259.736C521.812 259.288 521.28 259.063 520.649 259.063H518.967L518.942 266.563C518.942 266.646 518.909 266.688 518.843 266.688ZM521.16 251.987H518.967V255.999H521.16C521.683 255.999 522.148 255.803 522.555 255.413C522.97 255.023 523.178 254.545 523.178 253.98C523.178 253.441 522.979 252.976 522.58 252.585C522.181 252.187 521.708 251.987 521.16 251.987ZM532.833 266.937C531.911 266.937 531.08 266.708 530.341 266.251C529.594 265.795 528.992 265.18 528.535 264.408C528.086 263.635 527.862 262.772 527.862 261.816V253.731C527.862 252.801 528.09 251.954 528.547 251.19C528.996 250.417 529.598 249.803 530.354 249.346C531.109 248.881 531.936 248.648 532.833 248.648C533.771 248.648 534.618 248.873 535.374 249.321C536.13 249.778 536.728 250.388 537.168 251.152C537.617 251.917 537.841 252.776 537.841 253.731V254.902C537.841 254.969 537.799 255.002 537.716 255.002H534.851C534.785 255.002 534.751 254.969 534.751 254.902V253.931C534.751 253.283 534.569 252.747 534.203 252.324C533.838 251.9 533.381 251.688 532.833 251.688C532.343 251.688 531.907 251.892 531.525 252.299C531.143 252.706 530.952 253.183 530.952 253.731V261.816C530.952 262.373 531.139 262.855 531.512 263.262C531.886 263.66 532.326 263.86 532.833 263.86C533.381 263.86 533.838 263.664 534.203 263.274C534.569 262.875 534.751 262.39 534.751 261.816V260.558H532.97C532.878 260.558 532.833 260.517 532.833 260.434V257.581C532.833 257.498 532.878 257.456 532.97 257.456H537.741C537.808 257.456 537.841 257.498 537.841 257.581V261.816C537.841 262.772 537.617 263.635 537.168 264.408C536.711 265.18 536.109 265.795 535.362 266.251C534.614 266.708 533.771 266.937 532.833 266.937ZM547.994 266.688H539.747C539.68 266.688 539.647 266.646 539.647 266.563L539.672 249.035C539.672 248.968 539.705 248.935 539.772 248.935H547.969C548.036 248.935 548.069 248.977 548.069 249.06V251.912C548.069 251.979 548.036 252.012 547.969 252.012H542.737V255.999H547.969C548.036 255.999 548.069 256.032 548.069 256.098L548.094 258.989C548.094 259.055 548.061 259.088 547.994 259.088H542.737V263.548H547.994C548.061 263.548 548.094 263.59 548.094 263.673V266.588C548.094 266.654 548.061 266.688 547.994 266.688ZM553.351 266.688H550.461C550.394 266.688 550.361 266.646 550.361 266.563L550.411 249.035C550.411 248.968 550.444 248.935 550.511 248.935H555.668C556.59 248.935 557.437 249.159 558.21 249.608C558.982 250.056 559.597 250.658 560.053 251.414C560.518 252.17 560.751 253.025 560.751 253.98C560.751 254.603 560.655 255.168 560.464 255.675C560.273 256.181 560.049 256.609 559.792 256.958C559.543 257.307 559.314 257.564 559.107 257.73C560.028 258.752 560.489 259.952 560.489 261.331L560.514 266.563C560.514 266.646 560.473 266.688 560.39 266.688H557.499C557.433 266.688 557.4 266.663 557.4 266.613V261.331C557.4 260.716 557.184 260.184 556.752 259.736C556.32 259.288 555.789 259.063 555.157 259.063H553.476L553.451 266.563C553.451 266.646 553.417 266.688 553.351 266.688ZM555.668 251.987H553.476V255.999H555.668C556.191 255.999 556.656 255.803 557.063 255.413C557.479 255.023 557.686 254.545 557.686 253.98C557.686 253.441 557.487 252.976 557.088 252.585C556.69 252.187 556.216 251.987 555.668 251.987Z" fill="black"/>
<path d="M424.791 367.465C423.886 367.465 423.051 367.233 422.287 366.768C421.531 366.303 420.925 365.684 420.468 364.912C420.02 364.131 419.796 363.275 419.796 362.345V361.174C419.796 361.083 419.837 361.037 419.92 361.037H422.786C422.852 361.037 422.885 361.083 422.885 361.174V362.345C422.885 362.902 423.072 363.383 423.446 363.79C423.82 364.189 424.268 364.388 424.791 364.388C425.323 364.388 425.775 364.185 426.149 363.778C426.523 363.363 426.71 362.885 426.71 362.345C426.71 361.722 426.303 361.178 425.489 360.713C425.356 360.63 425.182 360.531 424.966 360.414C424.758 360.29 424.509 360.149 424.218 359.991C423.928 359.833 423.645 359.679 423.371 359.53C423.097 359.372 422.831 359.222 422.574 359.081C421.644 358.533 420.95 357.848 420.493 357.026C420.045 356.195 419.821 355.265 419.821 354.235C419.821 353.288 420.053 352.433 420.518 351.669C420.983 350.913 421.59 350.315 422.337 349.875C423.093 349.426 423.911 349.202 424.791 349.202C425.697 349.202 426.527 349.426 427.283 349.875C428.039 350.332 428.641 350.938 429.089 351.694C429.546 352.45 429.774 353.297 429.774 354.235V356.328C429.774 356.395 429.741 356.428 429.675 356.428H426.809C426.743 356.428 426.71 356.395 426.71 356.328L426.685 354.235C426.685 353.637 426.498 353.151 426.124 352.778C425.751 352.404 425.306 352.217 424.791 352.217C424.268 352.217 423.82 352.416 423.446 352.815C423.072 353.214 422.885 353.687 422.885 354.235C422.885 354.792 423.001 355.257 423.234 355.63C423.475 356.004 423.911 356.361 424.542 356.702C424.609 356.735 424.762 356.818 425.003 356.951C425.244 357.084 425.51 357.233 425.8 357.399C426.099 357.557 426.369 357.703 426.61 357.836C426.851 357.96 426.996 358.035 427.046 358.06C427.893 358.533 428.562 359.115 429.052 359.804C429.55 360.493 429.799 361.34 429.799 362.345C429.799 363.317 429.575 364.189 429.127 364.961C428.67 365.734 428.064 366.344 427.308 366.793C426.552 367.241 425.713 367.465 424.791 367.465ZM430.709 367.092L433.873 349.563C433.89 349.497 433.931 349.464 433.998 349.464H437.698C437.764 349.464 437.806 349.497 437.822 349.563L440.862 367.092C440.87 367.175 440.837 367.216 440.762 367.216H437.934C437.851 367.216 437.806 367.175 437.797 367.092L437.523 365.223H434.047L433.773 367.092C433.765 367.175 433.724 367.216 433.649 367.216H430.808C430.742 367.216 430.709 367.175 430.709 367.092ZM435.704 355.331L434.558 362.495H437.012L435.966 355.331L435.817 354.385L435.704 355.331ZM447.153 367.465C446.256 367.465 445.426 367.233 444.662 366.768C443.898 366.303 443.287 365.68 442.83 364.899C442.382 364.11 442.158 363.251 442.158 362.32L442.207 349.563C442.207 349.497 442.241 349.464 442.307 349.464H445.172C445.239 349.464 445.272 349.497 445.272 349.563V362.32C445.272 362.893 445.455 363.383 445.82 363.79C446.186 364.189 446.63 364.388 447.153 364.388C447.701 364.388 448.158 364.189 448.524 363.79C448.889 363.383 449.072 362.893 449.072 362.32V349.563C449.072 349.497 449.105 349.464 449.171 349.464H452.037C452.103 349.464 452.136 349.497 452.136 349.563L452.186 362.32C452.186 363.259 451.962 364.123 451.513 364.912C451.057 365.692 450.45 366.315 449.695 366.78C448.939 367.237 448.092 367.465 447.153 367.465ZM458.527 367.465C457.622 367.465 456.787 367.233 456.023 366.768C455.267 366.303 454.661 365.684 454.204 364.912C453.756 364.131 453.532 363.275 453.532 362.345V361.174C453.532 361.083 453.573 361.037 453.656 361.037H456.522C456.588 361.037 456.621 361.083 456.621 361.174V362.345C456.621 362.902 456.808 363.383 457.182 363.79C457.556 364.189 458.004 364.388 458.527 364.388C459.059 364.388 459.511 364.185 459.885 363.778C460.259 363.363 460.446 362.885 460.446 362.345C460.446 361.722 460.039 361.178 459.225 360.713C459.092 360.63 458.918 360.531 458.702 360.414C458.494 360.29 458.245 360.149 457.954 359.991C457.664 359.833 457.381 359.679 457.107 359.53C456.833 359.372 456.567 359.222 456.31 359.081C455.38 358.533 454.686 357.848 454.229 357.026C453.781 356.195 453.557 355.265 453.557 354.235C453.557 353.288 453.789 352.433 454.254 351.669C454.719 350.913 455.326 350.315 456.073 349.875C456.829 349.426 457.647 349.202 458.527 349.202C459.433 349.202 460.263 349.426 461.019 349.875C461.775 350.332 462.377 350.938 462.825 351.694C463.282 352.45 463.51 353.297 463.51 354.235V356.328C463.51 356.395 463.477 356.428 463.411 356.428H460.545C460.479 356.428 460.446 356.395 460.446 356.328L460.421 354.235C460.421 353.637 460.234 353.151 459.86 352.778C459.487 352.404 459.042 352.217 458.527 352.217C458.004 352.217 457.556 352.416 457.182 352.815C456.808 353.214 456.621 353.687 456.621 354.235C456.621 354.792 456.737 355.257 456.97 355.63C457.211 356.004 457.647 356.361 458.278 356.702C458.345 356.735 458.498 356.818 458.739 356.951C458.98 357.084 459.246 357.233 459.536 357.399C459.835 357.557 460.105 357.703 460.346 357.836C460.587 357.96 460.732 358.035 460.782 358.06C461.629 358.533 462.298 359.115 462.788 359.804C463.286 360.493 463.535 361.34 463.535 362.345C463.535 363.317 463.311 364.189 462.863 364.961C462.406 365.734 461.8 366.344 461.044 366.793C460.288 367.241 459.449 367.465 458.527 367.465ZM464.445 367.092L467.609 349.563C467.626 349.497 467.667 349.464 467.734 349.464H471.434C471.5 349.464 471.542 349.497 471.558 349.563L474.598 367.092C474.606 367.175 474.573 367.216 474.498 367.216H471.67C471.587 367.216 471.542 367.175 471.533 367.092L471.259 365.223H467.783L467.509 367.092C467.501 367.175 467.46 367.216 467.385 367.216H464.544C464.478 367.216 464.445 367.175 464.445 367.092ZM469.44 355.331L468.294 362.495H470.748L469.702 355.331L469.553 354.385L469.44 355.331ZM480.864 367.465C479.942 367.465 479.112 367.237 478.373 366.78C477.625 366.323 477.023 365.709 476.566 364.937C476.118 364.164 475.894 363.3 475.894 362.345V354.26C475.894 353.33 476.122 352.483 476.579 351.719C477.027 350.946 477.629 350.332 478.385 349.875C479.141 349.41 479.967 349.177 480.864 349.177C481.803 349.177 482.65 349.402 483.406 349.85C484.161 350.307 484.759 350.917 485.2 351.681C485.648 352.445 485.872 353.305 485.872 354.26V355.431C485.872 355.498 485.831 355.531 485.748 355.531H482.882C482.816 355.531 482.783 355.498 482.783 355.431V354.459C482.783 353.812 482.6 353.276 482.235 352.852C481.869 352.429 481.412 352.217 480.864 352.217C480.374 352.217 479.938 352.42 479.556 352.827C479.174 353.234 478.983 353.712 478.983 354.26V362.345C478.983 362.902 479.17 363.383 479.544 363.79C479.917 364.189 480.358 364.388 480.864 364.388C481.412 364.388 481.869 364.193 482.235 363.803C482.6 363.404 482.783 362.918 482.783 362.345V361.087H481.001C480.91 361.087 480.864 361.045 480.864 360.962V358.11C480.864 358.027 480.91 357.985 481.001 357.985H485.773C485.839 357.985 485.872 358.027 485.872 358.11V362.345C485.872 363.3 485.648 364.164 485.2 364.937C484.743 365.709 484.141 366.323 483.393 366.78C482.646 367.237 481.803 367.465 480.864 367.465ZM496.026 367.216H487.778C487.712 367.216 487.679 367.175 487.679 367.092L487.704 349.563C487.704 349.497 487.737 349.464 487.803 349.464H496.001C496.067 349.464 496.1 349.505 496.1 349.588V352.441C496.1 352.508 496.067 352.541 496.001 352.541H490.768V356.527H496.001C496.067 356.527 496.1 356.561 496.1 356.627L496.125 359.517C496.125 359.584 496.092 359.617 496.026 359.617H490.768V364.077H496.026C496.092 364.077 496.125 364.118 496.125 364.201V367.117C496.125 367.183 496.092 367.216 496.026 367.216ZM509.692 367.216H505.12C505.053 367.216 505.02 367.175 505.02 367.092L505.07 349.563C505.07 349.497 505.103 349.464 505.17 349.464H510.078C511.033 349.464 511.901 349.696 512.682 350.161C513.446 350.627 514.048 351.245 514.488 352.018C514.928 352.782 515.148 353.612 515.148 354.509C515.148 355.24 514.982 355.921 514.65 356.552C514.318 357.184 513.923 357.694 513.467 358.085C513.957 358.575 514.339 359.144 514.613 359.791C514.887 360.439 515.024 361.12 515.024 361.834C515.024 362.823 514.787 363.724 514.314 364.538C513.832 365.352 513.188 366.004 512.383 366.494C511.577 366.975 510.68 367.216 509.692 367.216ZM510.078 352.491H508.135V356.503H510.078C510.668 356.503 511.145 356.295 511.511 355.88C511.876 355.456 512.059 354.999 512.059 354.509C512.059 353.969 511.864 353.5 511.473 353.102C511.083 352.695 510.618 352.491 510.078 352.491ZM509.692 359.592H508.135L508.11 364.102H509.692C510.306 364.102 510.834 363.878 511.274 363.429C511.714 362.981 511.934 362.449 511.934 361.834C511.934 361.22 511.714 360.693 511.274 360.252C510.834 359.812 510.306 359.592 509.692 359.592ZM521.552 367.465C520.655 367.465 519.824 367.233 519.06 366.768C518.296 366.303 517.686 365.68 517.229 364.899C516.78 364.11 516.556 363.251 516.556 362.32L516.606 349.563C516.606 349.497 516.639 349.464 516.706 349.464H519.571C519.637 349.464 519.671 349.497 519.671 349.563V362.32C519.671 362.893 519.853 363.383 520.219 363.79C520.584 364.189 521.029 364.388 521.552 364.388C522.1 364.388 522.557 364.189 522.922 363.79C523.288 363.383 523.47 362.893 523.47 362.32V349.563C523.47 349.497 523.504 349.464 523.57 349.464H526.435C526.502 349.464 526.535 349.497 526.535 349.563L526.585 362.32C526.585 363.259 526.361 364.123 525.912 364.912C525.455 365.692 524.849 366.315 524.093 366.78C523.337 367.237 522.49 367.465 521.552 367.465ZM531.369 367.216H528.815C528.682 367.216 528.615 367.158 528.615 367.042L528.591 349.663C528.591 349.53 528.657 349.464 528.79 349.464H531.095L535.405 359.517L535.28 349.663C535.28 349.53 535.355 349.464 535.505 349.464H538.034C538.133 349.464 538.183 349.53 538.183 349.663L538.208 367.067C538.208 367.166 538.167 367.216 538.083 367.216H535.841L531.418 357.823L531.605 367.017C531.605 367.15 531.526 367.216 531.369 367.216Z" fill="black"/>
<rect x="419.432" y="275.899" width="139.067" height="35.1856" fill="#D9D9D9"/>
<rect x="419.432" y="375.87" width="139.067" height="35.1856" fill="#D9D9D9"/>
<path d="M461.629 301.313H458.739C458.656 301.313 458.614 301.272 458.614 301.189L458.639 283.661C458.639 283.594 458.672 283.561 458.739 283.561H461.604C461.671 283.561 461.704 283.594 461.704 283.661L461.729 301.189C461.729 301.272 461.695 301.313 461.629 301.313ZM473.128 301.313H463.61C463.527 301.313 463.485 301.272 463.485 301.189V298.299C463.485 298.265 463.502 298.232 463.535 298.199L469.839 289.553C469.955 289.395 470.051 289.196 470.125 288.955C470.208 288.706 470.25 288.49 470.25 288.307C470.25 287.809 470.071 287.352 469.714 286.937C469.357 286.522 468.904 286.314 468.356 286.314C467.833 286.314 467.389 286.513 467.023 286.912C466.658 287.311 466.475 287.817 466.475 288.432V289.678C466.475 289.761 466.434 289.802 466.351 289.802H463.485C463.419 289.802 463.386 289.761 463.386 289.678V288.432C463.386 287.477 463.622 286.609 464.096 285.828C464.561 285.048 465.171 284.429 465.927 283.972C466.683 283.507 467.493 283.274 468.356 283.274C469.27 283.274 470.105 283.507 470.86 283.972C471.608 284.445 472.206 285.064 472.654 285.828C473.111 286.592 473.339 287.419 473.339 288.307C473.339 288.864 473.24 289.433 473.04 290.014C472.849 290.587 472.584 291.098 472.243 291.546L467.397 298.199H473.128C473.202 298.199 473.24 298.232 473.24 298.299V301.189C473.24 301.272 473.202 301.313 473.128 301.313ZM486.507 301.563C485.586 301.563 484.743 301.33 483.979 300.865C483.223 300.4 482.621 299.777 482.172 298.996C481.732 298.207 481.512 297.331 481.512 296.368L481.537 288.407C481.537 287.46 481.753 286.605 482.185 285.841C482.616 285.068 483.21 284.45 483.966 283.985C484.73 283.511 485.577 283.274 486.507 283.274C487.454 283.274 488.297 283.503 489.036 283.96C489.784 284.416 490.378 285.035 490.818 285.816C491.266 286.588 491.491 287.452 491.491 288.407V289.578C491.491 289.645 491.457 289.678 491.391 289.678H488.526C488.459 289.678 488.426 289.645 488.426 289.578V288.407C488.426 287.842 488.243 287.356 487.878 286.95C487.512 286.543 487.056 286.339 486.507 286.339C485.901 286.339 485.436 286.547 485.112 286.962C484.788 287.377 484.626 287.859 484.626 288.407V296.368C484.626 296.991 484.809 297.501 485.174 297.9C485.54 298.29 485.984 298.486 486.507 298.486C487.056 298.486 487.512 298.27 487.878 297.838C488.243 297.398 488.426 296.908 488.426 296.368V295.184C488.426 295.118 488.459 295.085 488.526 295.085H491.416C491.482 295.085 491.516 295.118 491.516 295.184V296.368C491.516 297.323 491.291 298.195 490.843 298.984C490.386 299.765 489.784 300.392 489.036 300.865C488.289 301.33 487.446 301.563 486.507 301.563ZM498.093 301.563C497.188 301.563 496.353 301.33 495.589 300.865C494.833 300.4 494.223 299.781 493.758 299.009C493.301 298.228 493.073 297.373 493.073 296.442L493.098 288.357C493.098 287.41 493.326 286.559 493.783 285.803C494.231 285.039 494.838 284.429 495.602 283.972C496.366 283.507 497.196 283.274 498.093 283.274C499.024 283.274 499.858 283.503 500.597 283.96C501.345 284.416 501.943 285.031 502.391 285.803C502.848 286.567 503.076 287.419 503.076 288.357L503.101 296.442C503.101 297.373 502.877 298.224 502.429 298.996C501.972 299.777 501.366 300.4 500.61 300.865C499.854 301.33 499.015 301.563 498.093 301.563ZM498.093 298.486C498.608 298.486 499.057 298.278 499.439 297.863C499.821 297.439 500.012 296.966 500.012 296.442L499.987 288.357C499.987 287.792 499.808 287.315 499.451 286.925C499.094 286.534 498.641 286.339 498.093 286.339C497.57 286.339 497.122 286.53 496.748 286.912C496.374 287.294 496.187 287.776 496.187 288.357V296.442C496.187 296.999 496.374 297.481 496.748 297.888C497.122 298.286 497.57 298.486 498.093 298.486ZM508.047 301.313H505.157C505.074 301.313 505.032 301.272 505.032 301.189L505.057 283.661C505.057 283.594 505.091 283.561 505.157 283.561H508.022C508.089 283.561 508.122 283.594 508.122 283.661L508.147 301.189C508.147 301.272 508.114 301.313 508.047 301.313ZM513.167 301.313H510.614C510.481 301.313 510.414 301.255 510.414 301.139L510.389 283.76C510.389 283.627 510.456 283.561 510.589 283.561H512.893L517.204 293.614L517.079 283.76C517.079 283.627 517.154 283.561 517.303 283.561H519.832C519.932 283.561 519.982 283.627 519.982 283.76L520.007 301.164C520.007 301.264 519.965 301.313 519.882 301.313H517.64L513.217 291.92L513.404 301.114C513.404 301.247 513.325 301.313 513.167 301.313Z" fill="black"/>
<path d="M461.375 401.285H458.485C458.402 401.285 458.36 401.243 458.36 401.16L458.385 383.632C458.385 383.565 458.418 383.532 458.485 383.532H461.35C461.417 383.532 461.45 383.565 461.45 383.632L461.475 401.16C461.475 401.243 461.441 401.285 461.375 401.285ZM468.439 401.534C467.55 401.534 466.724 401.301 465.96 400.836C465.204 400.371 464.593 399.756 464.128 398.992C463.671 398.228 463.443 397.385 463.443 396.463L463.418 388.403C463.418 387.473 463.651 386.613 464.116 385.824C464.581 385.044 465.191 384.421 465.947 383.956C466.711 383.482 467.542 383.246 468.439 383.246C469.352 383.246 470.191 383.478 470.955 383.943C471.711 384.417 472.313 385.039 472.762 385.812C473.218 386.584 473.447 387.448 473.447 388.403V388.914C473.447 388.98 473.405 389.014 473.322 389.014H470.457C470.39 389.014 470.357 388.98 470.357 388.914V388.403C470.357 387.838 470.174 387.357 469.809 386.958C469.444 386.559 468.987 386.36 468.439 386.36C467.915 386.36 467.467 386.559 467.093 386.958C466.719 387.357 466.533 387.838 466.533 388.403V390.16C467.131 389.902 467.766 389.773 468.439 389.773C469.361 389.773 470.199 390.002 470.955 390.459C471.711 390.915 472.309 391.534 472.749 392.315C473.198 393.087 473.422 393.943 473.422 394.881V396.463C473.422 397.385 473.198 398.232 472.749 399.005C472.292 399.777 471.69 400.392 470.943 400.849C470.195 401.305 469.361 401.534 468.439 401.534ZM468.439 398.482C468.97 398.482 469.419 398.286 469.784 397.896C470.15 397.506 470.332 397.028 470.332 396.463V394.881C470.332 394.333 470.15 393.86 469.784 393.461C469.419 393.062 468.97 392.863 468.439 392.863C467.915 392.863 467.467 393.058 467.093 393.449C466.719 393.839 466.533 394.316 466.533 394.881V396.463C466.533 397.003 466.719 397.477 467.093 397.884C467.467 398.282 467.915 398.482 468.439 398.482ZM486.652 401.534C485.73 401.534 484.887 401.301 484.123 400.836C483.367 400.371 482.765 399.748 482.317 398.967C481.877 398.178 481.656 397.302 481.656 396.339L481.681 388.378C481.681 387.431 481.897 386.576 482.329 385.812C482.761 385.039 483.355 384.421 484.111 383.956C484.875 383.482 485.722 383.246 486.652 383.246C487.599 383.246 488.442 383.474 489.181 383.931C489.929 384.387 490.522 385.006 490.963 385.787C491.411 386.559 491.635 387.423 491.635 388.378V389.549C491.635 389.616 491.602 389.649 491.536 389.649H488.67C488.604 389.649 488.571 389.616 488.571 389.549V388.378C488.571 387.813 488.388 387.328 488.022 386.921C487.657 386.514 487.2 386.31 486.652 386.31C486.046 386.31 485.581 386.518 485.257 386.933C484.933 387.348 484.771 387.83 484.771 388.378V396.339C484.771 396.962 484.954 397.472 485.319 397.871C485.685 398.261 486.129 398.457 486.652 398.457C487.2 398.457 487.657 398.241 488.022 397.809C488.388 397.369 488.571 396.879 488.571 396.339V395.155C488.571 395.089 488.604 395.056 488.67 395.056H491.561C491.627 395.056 491.66 395.089 491.66 395.155V396.339C491.66 397.294 491.436 398.166 490.987 398.955C490.531 399.736 489.929 400.363 489.181 400.836C488.434 401.301 487.591 401.534 486.652 401.534ZM498.238 401.534C497.333 401.534 496.498 401.301 495.734 400.836C494.978 400.371 494.368 399.752 493.903 398.98C493.446 398.199 493.217 397.344 493.217 396.414L493.242 388.328C493.242 387.382 493.471 386.53 493.928 385.774C494.376 385.01 494.982 384.4 495.746 383.943C496.51 383.478 497.341 383.246 498.238 383.246C499.168 383.246 500.003 383.474 500.742 383.931C501.489 384.387 502.087 385.002 502.536 385.774C502.993 386.539 503.221 387.39 503.221 388.328L503.246 396.414C503.246 397.344 503.022 398.195 502.573 398.967C502.117 399.748 501.51 400.371 500.754 400.836C499.999 401.301 499.16 401.534 498.238 401.534ZM498.238 398.457C498.753 398.457 499.201 398.249 499.583 397.834C499.965 397.41 500.156 396.937 500.156 396.414L500.132 388.328C500.132 387.764 499.953 387.286 499.596 386.896C499.239 386.505 498.786 386.31 498.238 386.31C497.715 386.31 497.266 386.501 496.893 386.883C496.519 387.265 496.332 387.747 496.332 388.328V396.414C496.332 396.97 496.519 397.452 496.893 397.859C497.266 398.257 497.715 398.457 498.238 398.457ZM508.192 401.285H505.302C505.219 401.285 505.177 401.243 505.177 401.16L505.202 383.632C505.202 383.565 505.235 383.532 505.302 383.532H508.167C508.233 383.532 508.267 383.565 508.267 383.632L508.291 401.16C508.291 401.243 508.258 401.285 508.192 401.285ZM513.312 401.285H510.758C510.625 401.285 510.559 401.226 510.559 401.11L510.534 383.731C510.534 383.598 510.6 383.532 510.733 383.532H513.038L517.348 393.586L517.224 383.731C517.224 383.598 517.299 383.532 517.448 383.532H519.977C520.077 383.532 520.126 383.598 520.126 383.731L520.151 401.135C520.151 401.235 520.11 401.285 520.027 401.285H517.784L513.362 391.891L513.549 401.085C513.549 401.218 513.47 401.285 513.312 401.285Z" fill="black"/>
<rect width="68.6957" height="68.6957" rx="28.4836" transform="matrix(1 0 0 -1 340.131 411.055)" fill="#F0A961"/>
<rect width="35.7441" height="68.6957" rx="17.872" transform="matrix(1 0 0 -1 356.887 411.055)" fill="#6C9D53"/>
<rect width="25.6911" height="68.6957" rx="12.8455" transform="matrix(1 0 0 -1 360.794 411.055)" fill="#FF2626"/>
<path d="M355.91 350.934C356.272 350.934 360.352 351.115 366.524 351.435C370.636 351.648 374.816 352.12 379.083 352.352C382.519 352.538 385.628 352.762 387.778 353.902C390.113 355.14 391.305 356.145 391.717 356.783C391.93 357.113 391.857 357.602 391.721 357.971C391.018 359.882 385.847 361.17 378.117 362.547C376.333 362.865 374.855 362.915 372.756 363.189C370.851 363.438 366.826 363.645 361.753 364.284C358.93 364.64 357.562 365.291 356.557 366.021C355.667 366.668 354.999 367.577 354.45 368.58C353.875 369.632 354.444 370.87 354.855 371.782C355.281 372.732 357.084 374.248 360.502 376.392C362.395 377.58 364.916 378.446 368.303 378.914C371.691 379.382 375.947 379.291 378.773 379.109C382.884 378.844 387.071 378.375 391.733 378.556C393.506 378.625 394.041 379.099 394.548 379.512C395.054 379.925 395.507 380.378 395.74 381.155C395.973 381.931 395.973 383.018 395.792 383.668C395.047 386.344 390.315 388.155 385.658 390.121C382.67 391.382 380.247 391.818 378.381 392.501C372.12 394.794 367.72 394.565 364.208 395.02C359.806 395.114 356.645 395.023 355.87 394.841C355.457 394.749 355.004 394.658 354.538 394.565" stroke="#F5FF69" stroke-width="1.6755" stroke-linecap="round"/>
</g>
<defs>
<clipPath id="clip0_60_608">
<rect width="955.596" height="640.043" fill="white"/>
</clipPath>
</defs>
</svg>
