<svg width="956" height="641" viewBox="0 0 956 641" fill="none" xmlns="http://www.w3.org/2000/svg">
<g clip-path="url(#clip0_60_1012)">
<rect width="955.596" height="640.043" fill="#36B5FF"/>
<rect y="408.823" width="977.377" height="77.0732" fill="#3E9511"/>
<rect x="323.935" y="112.819" width="394.302" height="360.792" fill="#F06163" stroke="#DF2626" stroke-width="24.5741"/>
<rect x="-51.938" y="458.53" width="1056.13" height="202.177" fill="#494747"/>
<rect x="15.6396" y="541.745" width="100.53" height="17.872" fill="white"/>
<rect x="168.672" y="541.745" width="100.53" height="17.872" fill="white"/>
<rect x="321.699" y="541.745" width="100.53" height="17.872" fill="white"/>
<rect x="474.731" y="541.745" width="100.53" height="17.872" fill="white"/>
<rect x="627.755" y="541.745" width="100.53" height="17.872" fill="white"/>
<rect x="780.786" y="541.745" width="100.53" height="17.872" fill="white"/>
<rect x="933.814" y="541.745" width="100.53" height="17.872" fill="white"/>
<path d="M746.576 100.811L779.887 264.452H257.282L303.379 100.811H746.576Z" fill="#924900" stroke="#DF2626" stroke-width="0.558501"/>
<rect x="354.65" y="287.07" width="206.087" height="106.674" fill="#115881"/>
<rect x="466.911" y="303.826" width="80.9827" height="73.1637" fill="#A9E0FF"/>
<rect x="366.382" y="303.826" width="80.9827" height="73.1637" fill="#A9E0FF"/>
<rect x="218.935" y="400.085" width="350.598" height="20.5308" fill="#986028"/>
<rect x="224.772" y="381.456" width="21.0987" height="80.9827" fill="#986028"/>
<rect x="271.905" y="381.456" width="21.0987" height="80.9827" fill="#986028"/>
<rect x="319.041" y="381.456" width="21.0987" height="80.9827" fill="#986028"/>
<rect x="366.173" y="381.456" width="21.0987" height="80.9827" fill="#986028"/>
<rect x="413.313" y="381.456" width="21.0987" height="80.9827" fill="#986028"/>
<rect x="460.449" y="381.456" width="21.0987" height="80.9827" fill="#986028"/>
<rect x="507.582" y="381.456" width="21.0987" height="80.9827" fill="#986028"/>
<rect x="554.718" y="381.456" width="21.0987" height="80.9827" fill="#986028"/>
<rect x="589.224" y="303.826" width="105.557" height="154.705" fill="#98270B"/>
</g>
<defs>
<clipPath id="clip0_60_1012">
<rect width="955.596" height="640.043" fill="white"/>
</clipPath>
</defs>
</svg>
