<svg width="1152" height="648" viewBox="0 0 1152 648" fill="none" xmlns="http://www.w3.org/2000/svg">
<rect width="1152" height="648" fill="url(#paint0_radial_74_89)"/>
<path d="M650.486 276.382C646.672 271.777 650.171 264.837 656.142 265.166L681.56 266.569C684.433 266.727 687.261 265.795 689.477 263.959L709.08 247.719C713.685 243.904 720.626 247.404 720.296 253.375L718.893 278.792C718.735 281.666 719.667 284.493 721.503 286.709L737.743 306.312C741.558 310.917 738.058 317.858 732.087 317.529L706.67 316.126C703.796 315.967 700.969 316.899 698.753 318.735L679.15 334.975C674.545 338.79 667.604 335.291 667.933 329.32L669.336 303.902C669.495 301.029 668.563 298.201 666.727 295.985L650.486 276.382Z" fill="#5BB8FF" stroke="white" stroke-width="4.56934"/>
<mask id="path-2-outside-1_74_89" maskUnits="userSpaceOnUse" x="572.922" y="351.803" width="167" height="82" fill="black">
<rect fill="white" x="572.922" y="351.803" width="167" height="82"/>
<path d="M588.526 419.803C587.706 419.803 587.297 419.393 587.297 418.574V410.611C587.297 409.858 587.543 409.366 588.034 409.137L598.061 403.19V398.078L588.034 392.671C587.543 392.376 587.297 391.868 587.297 391.147V375.468C587.297 375.108 587.346 374.813 587.444 374.583C587.575 374.354 587.756 374.157 587.985 373.994L598.454 366.326C598.815 366.064 599.11 365.9 599.339 365.834C599.568 365.769 599.798 365.736 600.027 365.736H611.971C612.79 365.736 613.2 366.146 613.2 366.965V374.682C613.2 375.239 613.15 375.616 613.052 375.812C612.987 376.009 612.823 376.173 612.561 376.304L603.271 381.317V387.019L613.2 391.934C613.757 392.163 614.035 392.655 614.035 393.408V408.498C614.035 409.317 613.757 409.972 613.2 410.464L602.73 419.164C602.206 419.59 601.551 419.803 600.764 419.803H588.526ZM641.543 419.803C640.789 419.803 640.134 419.524 639.577 418.967L629.747 409.137C629.19 408.613 628.911 407.957 628.911 407.171V378.368C628.911 377.582 629.19 376.926 629.747 376.402L639.577 366.572C640.134 366.015 640.789 365.736 641.543 365.736H667.839C668.658 365.736 669.068 366.146 669.068 366.965V418.574C669.068 419.393 668.658 419.803 667.839 419.803H657.616C657.19 419.803 656.862 419.721 656.633 419.557C656.436 419.393 656.207 419.197 655.945 418.967L653.487 416.51L651.029 418.967C650.505 419.524 649.85 419.803 649.063 419.803H641.543ZM647.294 408.35H650.734C651.783 408.35 652.504 408.137 652.897 407.711C653.29 407.286 653.487 406.532 653.487 405.451V377.188H647.294C646.213 377.188 645.475 377.401 645.082 377.827C644.689 378.253 644.492 379.007 644.492 380.088V405.451C644.492 406.532 644.689 407.286 645.082 407.711C645.475 408.137 646.213 408.35 647.294 408.35ZM686.663 419.803C685.843 419.803 685.434 419.393 685.434 418.574V366.965C685.434 366.146 685.843 365.736 686.663 365.736H712.959C713.712 365.736 714.368 366.015 714.925 366.572L724.755 376.402C725.312 376.926 725.591 377.582 725.591 378.368V418.574C725.591 419.393 725.181 419.803 724.362 419.803H711.238C710.419 419.803 710.01 419.393 710.01 418.574V380.334C710.01 378.794 709.24 378.024 707.699 378.024H701.015V418.574C701.015 419.393 700.605 419.803 699.786 419.803H686.663Z"/>
</mask>
<path d="M588.526 419.803C587.706 419.803 587.297 419.393 587.297 418.574V410.611C587.297 409.858 587.543 409.366 588.034 409.137L598.061 403.19V398.078L588.034 392.671C587.543 392.376 587.297 391.868 587.297 391.147V375.468C587.297 375.108 587.346 374.813 587.444 374.583C587.575 374.354 587.756 374.157 587.985 373.994L598.454 366.326C598.815 366.064 599.11 365.9 599.339 365.834C599.568 365.769 599.798 365.736 600.027 365.736H611.971C612.79 365.736 613.2 366.146 613.2 366.965V374.682C613.2 375.239 613.15 375.616 613.052 375.812C612.987 376.009 612.823 376.173 612.561 376.304L603.271 381.317V387.019L613.2 391.934C613.757 392.163 614.035 392.655 614.035 393.408V408.498C614.035 409.317 613.757 409.972 613.2 410.464L602.73 419.164C602.206 419.59 601.551 419.803 600.764 419.803H588.526ZM641.543 419.803C640.789 419.803 640.134 419.524 639.577 418.967L629.747 409.137C629.19 408.613 628.911 407.957 628.911 407.171V378.368C628.911 377.582 629.19 376.926 629.747 376.402L639.577 366.572C640.134 366.015 640.789 365.736 641.543 365.736H667.839C668.658 365.736 669.068 366.146 669.068 366.965V418.574C669.068 419.393 668.658 419.803 667.839 419.803H657.616C657.19 419.803 656.862 419.721 656.633 419.557C656.436 419.393 656.207 419.197 655.945 418.967L653.487 416.51L651.029 418.967C650.505 419.524 649.85 419.803 649.063 419.803H641.543ZM647.294 408.35H650.734C651.783 408.35 652.504 408.137 652.897 407.711C653.29 407.286 653.487 406.532 653.487 405.451V377.188H647.294C646.213 377.188 645.475 377.401 645.082 377.827C644.689 378.253 644.492 379.007 644.492 380.088V405.451C644.492 406.532 644.689 407.286 645.082 407.711C645.475 408.137 646.213 408.35 647.294 408.35ZM686.663 419.803C685.843 419.803 685.434 419.393 685.434 418.574V366.965C685.434 366.146 685.843 365.736 686.663 365.736H712.959C713.712 365.736 714.368 366.015 714.925 366.572L724.755 376.402C725.312 376.926 725.591 377.582 725.591 378.368V418.574C725.591 419.393 725.181 419.803 724.362 419.803H711.238C710.419 419.803 710.01 419.393 710.01 418.574V380.334C710.01 378.794 709.24 378.024 707.699 378.024H701.015V418.574C701.015 419.393 700.605 419.803 699.786 419.803H686.663Z" fill="url(#paint1_linear_74_89)"/>
<path d="M588.034 409.137L593.831 421.559L594.445 421.272L595.027 420.927L588.034 409.137ZM598.061 403.19L605.054 414.98L611.769 410.997V403.19H598.061ZM598.061 398.078H611.769V389.896L604.567 386.012L598.061 398.078ZM588.034 392.671L580.981 404.426L581.251 404.588L581.528 404.737L588.034 392.671ZM587.444 374.583L575.542 367.782L575.153 368.463L574.845 369.184L587.444 374.583ZM587.985 373.994L595.953 385.148L596.019 385.101L596.085 385.053L587.985 373.994ZM598.454 366.326L590.392 355.24L590.373 355.253L590.355 355.267L598.454 366.326ZM613.052 375.812L600.791 369.682L600.356 370.553L600.048 371.477L613.052 375.812ZM612.561 376.304L606.43 364.043L606.239 364.139L606.05 364.24L612.561 376.304ZM603.271 381.317L596.761 369.254L589.563 373.138V381.317H603.271ZM603.271 387.019H589.563V395.528L597.189 399.304L603.271 387.019ZM613.2 391.934L607.118 404.219L607.542 404.429L607.98 404.609L613.2 391.934ZM613.2 410.464L621.961 421.007L622.117 420.877L622.269 420.743L613.2 410.464ZM602.73 419.164L611.375 429.803L611.433 429.755L611.491 429.707L602.73 419.164ZM588.526 419.803V406.095C590.229 406.095 594.024 406.53 597.297 409.802C600.57 413.075 601.005 416.871 601.005 418.574H587.297H573.589C573.589 421.097 574.229 425.506 577.911 429.189C581.593 432.871 586.003 433.511 588.526 433.511V419.803ZM587.297 418.574H601.005V410.611H587.297H573.589V418.574H587.297ZM587.297 410.611H601.005C601.005 411.614 600.857 413.578 599.742 415.808C598.501 418.289 596.428 420.347 593.831 421.559L588.034 409.137L582.237 396.715C575.057 400.066 573.589 406.951 573.589 410.611H587.297ZM588.034 409.137L595.027 420.927L605.054 414.98L598.061 403.19L591.068 391.399L581.041 397.347L588.034 409.137ZM598.061 403.19H611.769V398.078H598.061H584.353V403.19H598.061ZM598.061 398.078L604.567 386.012L594.54 380.605L588.034 392.671L581.528 404.737L591.555 410.144L598.061 398.078ZM588.034 392.671L595.087 380.917C597.09 382.118 598.762 383.911 599.821 386.098C600.813 388.149 601.005 389.996 601.005 391.147H587.297H573.589C573.589 395.252 575.266 400.996 580.981 404.426L588.034 392.671ZM587.297 391.147H601.005V375.468H587.297H573.589V391.147H587.297ZM587.297 375.468H601.005C601.005 376.205 600.926 377.925 600.044 379.983L587.444 374.583L574.845 369.184C573.766 371.701 573.589 374.01 573.589 375.468H587.297ZM587.444 374.583L599.346 381.384C598.431 382.987 597.224 384.24 595.953 385.148L587.985 373.994L580.017 362.839C578.288 364.074 576.72 365.721 575.542 367.782L587.444 374.583ZM587.985 373.994L596.085 385.053L606.554 377.385L598.454 366.326L590.355 355.267L579.885 362.934L587.985 373.994ZM598.454 366.326L606.517 377.412C606.381 377.511 606.067 377.731 605.603 377.989C605.18 378.225 604.315 378.669 603.105 379.015L599.339 365.834L595.573 352.654C592.989 353.392 591.126 354.706 590.392 355.24L598.454 366.326ZM599.339 365.834L603.105 379.015C602.159 379.285 601.122 379.444 600.027 379.444V365.736V352.028C598.474 352.028 596.978 352.252 595.573 352.654L599.339 365.834ZM600.027 365.736V379.444H611.971V365.736V352.028H600.027V365.736ZM611.971 365.736V379.444C610.267 379.444 606.472 379.009 603.199 375.736C599.927 372.464 599.492 368.668 599.492 366.965H613.2H626.908C626.908 364.442 626.268 360.033 622.585 356.35C618.903 352.668 614.493 352.028 611.971 352.028V365.736ZM613.2 366.965H599.492V374.682H613.2H626.908V366.965H613.2ZM613.2 374.682H599.492C599.492 374.613 599.491 374.21 599.57 373.609C599.611 373.297 599.688 372.812 599.841 372.217C599.986 371.65 600.263 370.739 600.791 369.682L613.052 375.812L625.313 381.943C626.369 379.83 626.655 377.923 626.756 377.155C626.883 376.177 626.908 375.307 626.908 374.682H613.2ZM613.052 375.812L600.048 371.477C601.537 367.008 604.802 364.857 606.43 364.043L612.561 376.304L618.691 388.565C620.843 387.488 624.436 385.009 626.057 380.147L613.052 375.812ZM612.561 376.304L606.05 364.24L596.761 369.254L603.271 381.317L609.781 393.381L619.071 388.367L612.561 376.304ZM603.271 381.317H589.563V387.019H603.271H616.979V381.317H603.271ZM603.271 387.019L597.189 399.304L607.118 404.219L613.2 391.934L619.281 379.649L609.353 374.734L603.271 387.019ZM613.2 391.934L607.98 404.609C605.626 403.64 603.376 401.837 601.9 399.233C600.545 396.842 600.327 394.637 600.327 393.408H614.035H627.743C627.743 391.426 627.386 388.599 625.753 385.716C623.998 382.62 621.331 380.457 618.419 379.258L613.2 391.934ZM614.035 393.408H600.327V408.498H614.035H627.743V393.408H614.035ZM614.035 408.498H600.327C600.327 407.34 600.529 405.846 601.21 404.242C601.906 402.605 602.943 401.233 604.13 400.185L613.2 410.464L622.269 420.743C626.099 417.364 627.743 412.797 627.743 408.498H614.035ZM613.2 410.464L604.439 399.921L593.969 408.621L602.73 419.164L611.491 429.707L621.961 421.007L613.2 410.464ZM602.73 419.164L594.086 408.525C596.395 406.649 598.944 406.095 600.764 406.095V419.803V433.511C604.157 433.511 608.017 432.531 611.375 429.803L602.73 419.164ZM600.764 419.803V406.095H588.526V419.803V433.511H600.764V419.803ZM639.577 418.967L649.27 409.274V409.274L639.577 418.967ZM629.747 409.137L639.44 399.444L639.293 399.297L639.142 399.155L629.747 409.137ZM629.747 376.402L639.142 386.384L639.293 386.242L639.44 386.095L629.747 376.402ZM639.577 366.572L629.884 356.879L629.884 356.879L639.577 366.572ZM656.633 419.557L647.857 430.088L648.249 430.415L648.665 430.712L656.633 419.557ZM655.945 418.967L646.251 428.66L646.574 428.983L646.918 429.283L655.945 418.967ZM653.487 416.51L663.18 406.817L653.487 397.124L643.794 406.817L653.487 416.51ZM651.029 418.967L641.336 409.274L641.189 409.421L641.047 409.572L651.029 418.967ZM652.897 407.711L642.824 398.414L642.824 398.414L652.897 407.711ZM653.487 377.188H667.195V363.48H653.487V377.188ZM645.082 377.827L655.155 387.125L655.155 387.125L645.082 377.827ZM645.082 407.711L655.155 398.414L655.155 398.414L645.082 407.711ZM641.543 419.803V406.095C642.9 406.095 644.382 406.355 645.848 406.978C647.302 407.596 648.438 408.442 649.27 409.274L639.577 418.967L629.884 428.66C632.882 431.658 636.974 433.511 641.543 433.511V419.803ZM639.577 418.967L649.27 409.274L639.44 399.444L629.747 409.137L620.054 418.83L629.884 428.66L639.577 418.967ZM629.747 409.137L639.142 399.155C640.141 400.095 641.079 401.345 641.736 402.89C642.389 404.428 642.619 405.915 642.619 407.171H628.911H615.203C615.203 411.617 616.956 415.923 620.352 419.119L629.747 409.137ZM628.911 407.171H642.619V378.368H628.911H615.203V407.171H628.911ZM628.911 378.368H642.619C642.619 379.624 642.389 381.111 641.736 382.649C641.079 384.194 640.141 385.444 639.142 386.384L629.747 376.402L620.352 366.42C616.956 369.616 615.203 373.922 615.203 378.368H628.911ZM629.747 376.402L639.44 386.095L649.27 376.265L639.577 366.572L629.884 356.879L620.054 366.709L629.747 376.402ZM639.577 366.572L649.27 376.265C648.438 377.097 647.302 377.943 645.848 378.561C644.382 379.184 642.9 379.444 641.543 379.444V365.736V352.028C636.974 352.028 632.882 353.881 629.884 356.879L639.577 366.572ZM641.543 365.736V379.444H667.839V365.736V352.028H641.543V365.736ZM667.839 365.736V379.444C666.136 379.444 662.34 379.009 659.068 375.736C655.795 372.464 655.36 368.668 655.36 366.965H669.068H682.776C682.776 364.442 682.136 360.033 678.454 356.35C674.772 352.668 670.362 352.028 667.839 352.028V365.736ZM669.068 366.965H655.36V418.574H669.068H682.776V366.965H669.068ZM669.068 418.574H655.36C655.36 416.871 655.795 413.075 659.068 409.802C662.34 406.53 666.136 406.095 667.839 406.095V419.803V433.511C670.362 433.511 674.772 432.871 678.454 429.189C682.136 425.506 682.776 421.097 682.776 418.574H669.068ZM667.839 419.803V406.095H657.616V419.803V433.511H667.839V419.803ZM657.616 419.803V406.095C658.67 406.095 661.591 406.253 664.6 408.402L656.633 419.557L648.665 430.712C652.133 433.189 655.709 433.511 657.616 433.511V419.803ZM656.633 419.557L665.408 409.026C665.32 408.953 665.178 408.832 664.971 408.651L655.945 418.967L646.918 429.283C647.235 429.561 647.552 429.834 647.857 430.088L656.633 419.557ZM655.945 418.967L665.638 409.274L663.18 406.817L653.487 416.51L643.794 426.203L646.251 428.66L655.945 418.967ZM653.487 416.51L643.794 406.817L641.336 409.274L651.029 418.967L660.722 428.66L663.18 426.203L653.487 416.51ZM651.029 418.967L641.047 409.572C641.988 408.573 643.237 407.635 644.783 406.978C646.32 406.325 647.807 406.095 649.063 406.095V419.803V433.511C653.51 433.511 657.816 431.758 661.012 428.362L651.029 418.967ZM649.063 419.803V406.095H641.543V419.803V433.511H649.063V419.803ZM647.294 408.35V422.058H650.734V408.35V394.642H647.294V408.35ZM650.734 408.35V422.058C652.755 422.058 658.532 421.817 662.97 417.009L652.897 407.711L642.824 398.414C644.734 396.345 646.855 395.435 648.177 395.044C649.466 394.664 650.42 394.642 650.734 394.642V408.35ZM652.897 407.711L662.97 417.009C667.026 412.615 667.195 407.331 667.195 405.451H653.487H639.779C639.779 405.239 639.79 404.461 640.075 403.367C640.358 402.282 641.06 400.325 642.824 398.414L652.897 407.711ZM653.487 405.451H667.195V377.188H653.487H639.779V405.451H653.487ZM653.487 377.188V363.48H647.294V377.188V390.896H653.487V377.188ZM647.294 377.188V363.48C645.395 363.48 639.505 363.659 635.009 368.53L645.082 377.827L655.155 387.125C653.189 389.255 651.012 390.149 649.734 390.518C648.477 390.881 647.559 390.896 647.294 390.896V377.188ZM645.082 377.827L635.009 368.53C630.953 372.924 630.784 378.208 630.784 380.088H644.492H658.2C658.2 380.3 658.189 381.078 657.904 382.172C657.621 383.257 656.919 385.214 655.155 387.125L645.082 377.827ZM644.492 380.088H630.784V405.451H644.492H658.2V380.088H644.492ZM644.492 405.451H630.784C630.784 407.331 630.953 412.615 635.009 417.009L645.082 407.711L655.155 398.414C656.919 400.325 657.621 402.282 657.904 403.367C658.189 404.461 658.2 405.239 658.2 405.451H644.492ZM645.082 407.711L635.009 417.009C639.505 421.879 645.395 422.058 647.294 422.058V408.35V394.642C647.559 394.642 648.477 394.658 649.734 395.021C651.012 395.39 653.189 396.284 655.155 398.414L645.082 407.711ZM714.925 366.572L724.618 356.879L724.618 356.879L714.925 366.572ZM724.755 376.402L715.062 386.095L715.209 386.242L715.36 386.384L724.755 376.402ZM701.015 378.024V364.316H687.307V378.024H701.015ZM686.663 419.803V406.095C688.366 406.095 692.161 406.53 695.434 409.802C698.707 413.075 699.142 416.871 699.142 418.574H685.434H671.726C671.726 421.097 672.366 425.506 676.048 429.189C679.73 432.871 684.14 433.511 686.663 433.511V419.803ZM685.434 418.574H699.142V366.965H685.434H671.726V418.574H685.434ZM685.434 366.965H699.142C699.142 368.668 698.707 372.464 695.434 375.736C692.161 379.009 688.366 379.444 686.663 379.444V365.736V352.028C684.14 352.028 679.73 352.668 676.048 356.35C672.366 360.033 671.726 364.442 671.726 366.965H685.434ZM686.663 365.736V379.444H712.959V365.736V352.028H686.663V365.736ZM712.959 365.736V379.444C711.602 379.444 710.119 379.184 708.654 378.561C707.2 377.943 706.064 377.097 705.232 376.265L714.925 366.572L724.618 356.879C721.62 353.881 717.527 352.028 712.959 352.028V365.736ZM714.925 366.572L705.232 376.265L715.062 386.095L724.755 376.402L734.448 366.709L724.618 356.879L714.925 366.572ZM724.755 376.402L715.36 386.384C714.361 385.444 713.423 384.194 712.766 382.649C712.112 381.111 711.883 379.624 711.883 378.368H725.591H739.299C739.299 373.922 737.545 369.616 734.15 366.42L724.755 376.402ZM725.591 378.368H711.883V418.574H725.591H739.299V378.368H725.591ZM725.591 418.574H711.883C711.883 416.871 712.318 413.075 715.59 409.803C718.863 406.53 722.658 406.095 724.362 406.095V419.803V433.511C726.884 433.511 731.294 432.871 734.976 429.189C738.659 425.506 739.299 421.097 739.299 418.574H725.591ZM724.362 419.803V406.095H711.238V419.803V433.511H724.362V419.803ZM711.238 419.803V406.095C712.942 406.095 716.737 406.53 720.01 409.802C723.282 413.075 723.718 416.871 723.718 418.574H710.01H696.302C696.302 421.097 696.941 425.506 700.624 429.189C704.306 432.871 708.716 433.511 711.238 433.511V419.803ZM710.01 418.574H723.718V380.334H710.01H696.302V418.574H710.01ZM710.01 380.334H723.718C723.718 377.451 722.988 372.771 719.125 368.909C715.263 365.046 710.582 364.316 707.699 364.316V378.024V391.732C706.356 391.732 702.831 391.387 699.739 388.295C696.647 385.202 696.302 381.677 696.302 380.334H710.01ZM707.699 378.024V364.316H701.015V378.024V391.732H707.699V378.024ZM701.015 378.024H687.307V418.574H701.015H714.723V378.024H701.015ZM701.015 418.574H687.307C687.307 416.871 687.742 413.075 691.015 409.803C694.287 406.53 698.083 406.095 699.786 406.095V419.803V433.511C702.309 433.511 706.718 432.871 710.401 429.189C714.083 425.506 714.723 421.097 714.723 418.574H701.015ZM699.786 419.803V406.095H686.663V419.803V433.511H699.786V419.803Z" fill="white" mask="url(#path-2-outside-1_74_89)"/>
<rect x="372.732" y="376.634" width="191.912" height="22.8467" rx="11.4234" fill="white"/>
<mask id="path-5-outside-2_74_89" maskUnits="userSpaceOnUse" x="355" y="246.018" width="282" height="95" fill="black">
<rect fill="white" x="355" y="246.018" width="282" height="95"/>
<path d="M370.229 326.372C369.41 326.372 369 325.962 369 325.143V262.082C369 261.263 369.41 260.853 370.229 260.853H384.679C385.499 260.853 385.908 261.263 385.908 262.082V325.143C385.908 325.962 385.499 326.372 384.679 326.372H370.229Z"/>
<path d="M402.888 326.372C402.068 326.372 401.659 325.962 401.659 325.143V273.534C401.659 272.715 402.068 272.305 402.888 272.305H411.047C411.637 272.305 412.177 272.584 412.669 273.141L417.142 278.302L422.204 272.895C422.565 272.502 423.023 272.305 423.58 272.305H428.692C429.511 272.305 429.921 272.715 429.921 273.534V284.888C429.921 285.412 429.888 285.773 429.823 285.97C429.757 286.133 429.577 286.314 429.282 286.51L417.535 295.112V325.143C417.535 325.962 417.125 326.372 416.306 326.372H402.888Z"/>
<path d="M441.498 326.372C440.679 326.372 440.27 325.962 440.27 325.143V273.534C440.27 272.715 440.679 272.305 441.498 272.305H454.868C455.687 272.305 456.096 272.715 456.096 273.534V325.143C456.096 325.962 455.687 326.372 454.868 326.372H441.498ZM441.253 268.226C440.597 268.226 440.27 267.898 440.27 267.243V261.001C440.27 260.345 440.597 260.018 441.253 260.018H455.212C455.801 260.018 456.096 260.345 456.096 261.001V267.243C456.096 267.898 455.801 268.226 455.212 268.226H441.253Z"/>
<path d="M472.717 326.372C471.898 326.372 471.488 325.962 471.488 325.143V273.534C471.488 272.715 471.898 272.305 472.717 272.305H499.013C499.767 272.305 500.422 272.584 500.979 273.141L510.81 282.971C511.367 283.496 511.645 284.151 511.645 284.937V325.143C511.645 325.962 511.236 326.372 510.416 326.372H496.949C496.13 326.372 495.72 325.962 495.72 325.143V287.592C495.72 286.084 494.966 285.331 493.459 285.331H487.364V325.143C487.364 325.962 486.955 326.372 486.136 326.372H472.717Z"/>
<path d="M548.865 326.372C548.537 326.372 548.193 326.323 547.833 326.225C547.472 326.126 547.128 326.044 546.801 325.979L538.052 323.521L528.172 320.081C527.255 319.753 526.796 318.852 526.796 317.377V284.937C526.796 284.151 527.075 283.496 527.632 282.971L537.462 273.141C538.019 272.584 538.674 272.305 539.428 272.305H555.058C555.812 272.305 556.467 272.584 557.024 273.141L566.855 282.971C567.379 283.496 567.641 284.151 567.641 284.937V305.089H541.935L541.591 311.037L548.226 313.249L560.367 314.379C560.891 314.477 561.153 314.871 561.153 315.559V325.143C561.153 325.962 560.743 326.372 559.924 326.372H548.865ZM547.243 297.176H548.03C549.602 297.176 550.848 296.603 551.765 295.456C552.683 294.309 553.141 292.736 553.141 290.737V289.853C553.141 287.919 552.683 286.379 551.765 285.232C550.848 284.085 549.602 283.512 548.03 283.512H547.194C545.654 283.512 544.441 284.085 543.557 285.232C542.672 286.379 542.23 287.919 542.23 289.853V290.737C542.23 292.736 542.672 294.309 543.557 295.456C544.441 296.603 545.67 297.176 547.243 297.176Z"/>
<path d="M603.796 326.372C603.468 326.372 603.124 326.323 602.764 326.225C602.403 326.126 602.059 326.044 601.731 325.979L592.982 323.521L583.103 320.081C582.185 319.753 581.727 318.852 581.727 317.377V284.937C581.727 284.151 582.005 283.496 582.562 282.971L592.393 273.141C592.95 272.584 593.605 272.305 594.359 272.305H609.989C610.742 272.305 611.398 272.584 611.955 273.141L621.785 282.971C622.309 283.496 622.572 284.151 622.572 284.937V305.089H596.865L596.521 311.037L603.157 313.249L615.297 314.379C615.821 314.477 616.084 314.871 616.084 315.559V325.143C616.084 325.962 615.674 326.372 614.855 326.372H603.796ZM602.174 297.176H602.96C604.533 297.176 605.778 296.603 606.696 295.456C607.613 294.309 608.072 292.736 608.072 290.737V289.853C608.072 287.919 607.613 286.379 606.696 285.232C605.778 284.085 604.533 283.512 602.96 283.512H602.125C600.584 283.512 599.372 284.085 598.487 285.232C597.603 286.379 597.16 287.919 597.16 289.853V290.737C597.16 292.736 597.603 294.309 598.487 295.456C599.372 296.603 600.601 297.176 602.174 297.176Z"/>
<path d="M547.243 297.176H548.03C549.602 297.176 550.848 296.603 551.765 295.456C552.683 294.309 553.141 292.736 553.141 290.737V289.853C553.141 287.919 552.683 286.379 551.765 285.232C550.848 284.085 549.602 283.512 548.03 283.512H547.194C545.654 283.512 544.441 284.085 543.557 285.232C542.672 286.379 542.23 287.919 542.23 289.853V290.737C542.23 292.736 542.672 294.309 543.557 295.456C544.441 296.603 545.67 297.176 547.243 297.176Z"/>
<path d="M602.174 297.176H602.96C604.533 297.176 605.778 296.603 606.696 295.456C607.613 294.309 608.072 292.736 608.072 290.737V289.853C608.072 287.919 607.613 286.379 606.696 285.232C605.778 284.085 604.533 283.512 602.96 283.512H602.125C600.584 283.512 599.372 284.085 598.487 285.232C597.603 286.379 597.16 287.919 597.16 289.853V290.737C597.16 292.736 597.603 294.309 598.487 295.456C599.372 296.603 600.601 297.176 602.174 297.176Z"/>
</mask>
<path d="M370.229 326.372C369.41 326.372 369 325.962 369 325.143V262.082C369 261.263 369.41 260.853 370.229 260.853H384.679C385.499 260.853 385.908 261.263 385.908 262.082V325.143C385.908 325.962 385.499 326.372 384.679 326.372H370.229Z" fill="url(#paint2_linear_74_89)"/>
<path d="M402.888 326.372C402.068 326.372 401.659 325.962 401.659 325.143V273.534C401.659 272.715 402.068 272.305 402.888 272.305H411.047C411.637 272.305 412.177 272.584 412.669 273.141L417.142 278.302L422.204 272.895C422.565 272.502 423.023 272.305 423.58 272.305H428.692C429.511 272.305 429.921 272.715 429.921 273.534V284.888C429.921 285.412 429.888 285.773 429.823 285.97C429.757 286.133 429.577 286.314 429.282 286.51L417.535 295.112V325.143C417.535 325.962 417.125 326.372 416.306 326.372H402.888Z" fill="url(#paint3_linear_74_89)"/>
<path d="M441.498 326.372C440.679 326.372 440.27 325.962 440.27 325.143V273.534C440.27 272.715 440.679 272.305 441.498 272.305H454.868C455.687 272.305 456.096 272.715 456.096 273.534V325.143C456.096 325.962 455.687 326.372 454.868 326.372H441.498ZM441.253 268.226C440.597 268.226 440.27 267.898 440.27 267.243V261.001C440.27 260.345 440.597 260.018 441.253 260.018H455.212C455.801 260.018 456.096 260.345 456.096 261.001V267.243C456.096 267.898 455.801 268.226 455.212 268.226H441.253Z" fill="url(#paint4_linear_74_89)"/>
<path d="M472.717 326.372C471.898 326.372 471.488 325.962 471.488 325.143V273.534C471.488 272.715 471.898 272.305 472.717 272.305H499.013C499.767 272.305 500.422 272.584 500.979 273.141L510.81 282.971C511.367 283.496 511.645 284.151 511.645 284.937V325.143C511.645 325.962 511.236 326.372 510.416 326.372H496.949C496.13 326.372 495.72 325.962 495.72 325.143V287.592C495.72 286.084 494.966 285.331 493.459 285.331H487.364V325.143C487.364 325.962 486.955 326.372 486.136 326.372H472.717Z" fill="url(#paint5_linear_74_89)"/>
<path d="M548.865 326.372C548.537 326.372 548.193 326.323 547.833 326.225C547.472 326.126 547.128 326.044 546.801 325.979L538.052 323.521L528.172 320.081C527.255 319.753 526.796 318.852 526.796 317.377V284.937C526.796 284.151 527.075 283.496 527.632 282.971L537.462 273.141C538.019 272.584 538.674 272.305 539.428 272.305H555.058C555.812 272.305 556.467 272.584 557.024 273.141L566.855 282.971C567.379 283.496 567.641 284.151 567.641 284.937V305.089H541.935L541.591 311.037L548.226 313.249L560.367 314.379C560.891 314.477 561.153 314.871 561.153 315.559V325.143C561.153 325.962 560.743 326.372 559.924 326.372H548.865ZM547.243 297.176H548.03C549.602 297.176 550.848 296.603 551.765 295.456C552.683 294.309 553.141 292.736 553.141 290.737V289.853C553.141 287.919 552.683 286.379 551.765 285.232C550.848 284.085 549.602 283.512 548.03 283.512H547.194C545.654 283.512 544.441 284.085 543.557 285.232C542.672 286.379 542.23 287.919 542.23 289.853V290.737C542.23 292.736 542.672 294.309 543.557 295.456C544.441 296.603 545.67 297.176 547.243 297.176Z" fill="url(#paint6_linear_74_89)"/>
<path d="M603.796 326.372C603.468 326.372 603.124 326.323 602.764 326.225C602.403 326.126 602.059 326.044 601.731 325.979L592.982 323.521L583.103 320.081C582.185 319.753 581.727 318.852 581.727 317.377V284.937C581.727 284.151 582.005 283.496 582.562 282.971L592.393 273.141C592.95 272.584 593.605 272.305 594.359 272.305H609.989C610.742 272.305 611.398 272.584 611.955 273.141L621.785 282.971C622.309 283.496 622.572 284.151 622.572 284.937V305.089H596.865L596.521 311.037L603.157 313.249L615.297 314.379C615.821 314.477 616.084 314.871 616.084 315.559V325.143C616.084 325.962 615.674 326.372 614.855 326.372H603.796ZM602.174 297.176H602.96C604.533 297.176 605.778 296.603 606.696 295.456C607.613 294.309 608.072 292.736 608.072 290.737V289.853C608.072 287.919 607.613 286.379 606.696 285.232C605.778 284.085 604.533 283.512 602.96 283.512H602.125C600.584 283.512 599.372 284.085 598.487 285.232C597.603 286.379 597.16 287.919 597.16 289.853V290.737C597.16 292.736 597.603 294.309 598.487 295.456C599.372 296.603 600.601 297.176 602.174 297.176Z" fill="url(#paint7_linear_74_89)"/>
<path d="M547.243 297.176H548.03C549.602 297.176 550.848 296.603 551.765 295.456C552.683 294.309 553.141 292.736 553.141 290.737V289.853C553.141 287.919 552.683 286.379 551.765 285.232C550.848 284.085 549.602 283.512 548.03 283.512H547.194C545.654 283.512 544.441 284.085 543.557 285.232C542.672 286.379 542.23 287.919 542.23 289.853V290.737C542.23 292.736 542.672 294.309 543.557 295.456C544.441 296.603 545.67 297.176 547.243 297.176Z" fill="white"/>
<path d="M602.174 297.176H602.96C604.533 297.176 605.778 296.603 606.696 295.456C607.613 294.309 608.072 292.736 608.072 290.737V289.853C608.072 287.919 607.613 286.379 606.696 285.232C605.778 284.085 604.533 283.512 602.96 283.512H602.125C600.584 283.512 599.372 284.085 598.487 285.232C597.603 286.379 597.16 287.919 597.16 289.853V290.737C597.16 292.736 597.603 294.309 598.487 295.456C599.372 296.603 600.601 297.176 602.174 297.176Z" fill="white"/>
<path d="M370.229 326.372C369.41 326.372 369 325.962 369 325.143V262.082C369 261.263 369.41 260.853 370.229 260.853H384.679C385.499 260.853 385.908 261.263 385.908 262.082V325.143C385.908 325.962 385.499 326.372 384.679 326.372H370.229Z" stroke="white" stroke-width="27.4161" mask="url(#path-5-outside-2_74_89)"/>
<path d="M402.888 326.372C402.068 326.372 401.659 325.962 401.659 325.143V273.534C401.659 272.715 402.068 272.305 402.888 272.305H411.047C411.637 272.305 412.177 272.584 412.669 273.141L417.142 278.302L422.204 272.895C422.565 272.502 423.023 272.305 423.58 272.305H428.692C429.511 272.305 429.921 272.715 429.921 273.534V284.888C429.921 285.412 429.888 285.773 429.823 285.97C429.757 286.133 429.577 286.314 429.282 286.51L417.535 295.112V325.143C417.535 325.962 417.125 326.372 416.306 326.372H402.888Z" stroke="white" stroke-width="27.4161" mask="url(#path-5-outside-2_74_89)"/>
<path d="M441.498 326.372C440.679 326.372 440.27 325.962 440.27 325.143V273.534C440.27 272.715 440.679 272.305 441.498 272.305H454.868C455.687 272.305 456.096 272.715 456.096 273.534V325.143C456.096 325.962 455.687 326.372 454.868 326.372H441.498ZM441.253 268.226C440.597 268.226 440.27 267.898 440.27 267.243V261.001C440.27 260.345 440.597 260.018 441.253 260.018H455.212C455.801 260.018 456.096 260.345 456.096 261.001V267.243C456.096 267.898 455.801 268.226 455.212 268.226H441.253Z" stroke="white" stroke-width="27.4161" mask="url(#path-5-outside-2_74_89)"/>
<path d="M472.717 326.372C471.898 326.372 471.488 325.962 471.488 325.143V273.534C471.488 272.715 471.898 272.305 472.717 272.305H499.013C499.767 272.305 500.422 272.584 500.979 273.141L510.81 282.971C511.367 283.496 511.645 284.151 511.645 284.937V325.143C511.645 325.962 511.236 326.372 510.416 326.372H496.949C496.13 326.372 495.72 325.962 495.72 325.143V287.592C495.72 286.084 494.966 285.331 493.459 285.331H487.364V325.143C487.364 325.962 486.955 326.372 486.136 326.372H472.717Z" stroke="white" stroke-width="27.4161" mask="url(#path-5-outside-2_74_89)"/>
<path d="M548.865 326.372C548.537 326.372 548.193 326.323 547.833 326.225C547.472 326.126 547.128 326.044 546.801 325.979L538.052 323.521L528.172 320.081C527.255 319.753 526.796 318.852 526.796 317.377V284.937C526.796 284.151 527.075 283.496 527.632 282.971L537.462 273.141C538.019 272.584 538.674 272.305 539.428 272.305H555.058C555.812 272.305 556.467 272.584 557.024 273.141L566.855 282.971C567.379 283.496 567.641 284.151 567.641 284.937V305.089H541.935L541.591 311.037L548.226 313.249L560.367 314.379C560.891 314.477 561.153 314.871 561.153 315.559V325.143C561.153 325.962 560.743 326.372 559.924 326.372H548.865ZM547.243 297.176H548.03C549.602 297.176 550.848 296.603 551.765 295.456C552.683 294.309 553.141 292.736 553.141 290.737V289.853C553.141 287.919 552.683 286.379 551.765 285.232C550.848 284.085 549.602 283.512 548.03 283.512H547.194C545.654 283.512 544.441 284.085 543.557 285.232C542.672 286.379 542.23 287.919 542.23 289.853V290.737C542.23 292.736 542.672 294.309 543.557 295.456C544.441 296.603 545.67 297.176 547.243 297.176Z" stroke="white" stroke-width="27.4161" mask="url(#path-5-outside-2_74_89)"/>
<path d="M603.796 326.372C603.468 326.372 603.124 326.323 602.764 326.225C602.403 326.126 602.059 326.044 601.731 325.979L592.982 323.521L583.103 320.081C582.185 319.753 581.727 318.852 581.727 317.377V284.937C581.727 284.151 582.005 283.496 582.562 282.971L592.393 273.141C592.95 272.584 593.605 272.305 594.359 272.305H609.989C610.742 272.305 611.398 272.584 611.955 273.141L621.785 282.971C622.309 283.496 622.572 284.151 622.572 284.937V305.089H596.865L596.521 311.037L603.157 313.249L615.297 314.379C615.821 314.477 616.084 314.871 616.084 315.559V325.143C616.084 325.962 615.674 326.372 614.855 326.372H603.796ZM602.174 297.176H602.96C604.533 297.176 605.778 296.603 606.696 295.456C607.613 294.309 608.072 292.736 608.072 290.737V289.853C608.072 287.919 607.613 286.379 606.696 285.232C605.778 284.085 604.533 283.512 602.96 283.512H602.125C600.584 283.512 599.372 284.085 598.487 285.232C597.603 286.379 597.16 287.919 597.16 289.853V290.737C597.16 292.736 597.603 294.309 598.487 295.456C599.372 296.603 600.601 297.176 602.174 297.176Z" stroke="white" stroke-width="27.4161" mask="url(#path-5-outside-2_74_89)"/>
<path d="M547.243 297.176H548.03C549.602 297.176 550.848 296.603 551.765 295.456C552.683 294.309 553.141 292.736 553.141 290.737V289.853C553.141 287.919 552.683 286.379 551.765 285.232C550.848 284.085 549.602 283.512 548.03 283.512H547.194C545.654 283.512 544.441 284.085 543.557 285.232C542.672 286.379 542.23 287.919 542.23 289.853V290.737C542.23 292.736 542.672 294.309 543.557 295.456C544.441 296.603 545.67 297.176 547.243 297.176Z" stroke="white" stroke-width="27.4161" mask="url(#path-5-outside-2_74_89)"/>
<path d="M602.174 297.176H602.96C604.533 297.176 605.778 296.603 606.696 295.456C607.613 294.309 608.072 292.736 608.072 290.737V289.853C608.072 287.919 607.613 286.379 606.696 285.232C605.778 284.085 604.533 283.512 602.96 283.512H602.125C600.584 283.512 599.372 284.085 598.487 285.232C597.603 286.379 597.16 287.919 597.16 289.853V290.737C597.16 292.736 597.603 294.309 598.487 295.456C599.372 296.603 600.601 297.176 602.174 297.176Z" stroke="white" stroke-width="27.4161" mask="url(#path-5-outside-2_74_89)"/>
<path d="M454.98 255.547C454.98 256.809 451.911 260.116 448.125 260.116C444.34 260.116 441.271 256.809 441.271 255.547C441.271 254.285 444.34 253.262 448.125 253.262C451.911 253.262 454.98 254.285 454.98 255.547Z" fill="white"/>
<defs>
<radialGradient id="paint0_radial_74_89" cx="0" cy="0" r="1" gradientTransform="matrix(142.857 323.661 -575.398 179.124 576 324)" gradientUnits="userSpaceOnUse">
<stop stop-color="#9DD2FE"/>
<stop offset="0.757171" stop-color="#5387EC"/>
</radialGradient>
<linearGradient id="paint1_linear_74_89" x1="652.766" y1="318.649" x2="676.559" y2="425.07" gradientUnits="userSpaceOnUse">
<stop stop-color="#050462"/>
<stop offset="0.564669" stop-color="#082B8F"/>
<stop offset="0.758913" stop-color="#5EB4FF"/>
<stop offset="0.96125" stop-color="#BC5EA5"/>
</linearGradient>
<linearGradient id="paint2_linear_74_89" x1="487.823" y1="222.683" x2="481.408" y2="309.053" gradientUnits="userSpaceOnUse">
<stop offset="0.312498" stop-color="#050462"/>
<stop offset="0.564669" stop-color="#082B8F"/>
<stop offset="0.758913" stop-color="#5EB4FF"/>
<stop offset="0.96125" stop-color="#BC5EA5"/>
</linearGradient>
<linearGradient id="paint3_linear_74_89" x1="487.823" y1="222.683" x2="481.408" y2="309.053" gradientUnits="userSpaceOnUse">
<stop offset="0.312498" stop-color="#050462"/>
<stop offset="0.564669" stop-color="#082B8F"/>
<stop offset="0.758913" stop-color="#5EB4FF"/>
<stop offset="0.96125" stop-color="#BC5EA5"/>
</linearGradient>
<linearGradient id="paint4_linear_74_89" x1="487.823" y1="222.683" x2="481.408" y2="309.053" gradientUnits="userSpaceOnUse">
<stop offset="0.312498" stop-color="#050462"/>
<stop offset="0.564669" stop-color="#082B8F"/>
<stop offset="0.758913" stop-color="#5EB4FF"/>
<stop offset="0.96125" stop-color="#BC5EA5"/>
</linearGradient>
<linearGradient id="paint5_linear_74_89" x1="487.823" y1="222.683" x2="481.408" y2="309.053" gradientUnits="userSpaceOnUse">
<stop offset="0.312498" stop-color="#050462"/>
<stop offset="0.564669" stop-color="#082B8F"/>
<stop offset="0.758913" stop-color="#5EB4FF"/>
<stop offset="0.96125" stop-color="#BC5EA5"/>
</linearGradient>
<linearGradient id="paint6_linear_74_89" x1="487.823" y1="222.683" x2="481.408" y2="309.053" gradientUnits="userSpaceOnUse">
<stop offset="0.312498" stop-color="#050462"/>
<stop offset="0.564669" stop-color="#082B8F"/>
<stop offset="0.758913" stop-color="#5EB4FF"/>
<stop offset="0.96125" stop-color="#BC5EA5"/>
</linearGradient>
<linearGradient id="paint7_linear_74_89" x1="487.823" y1="222.683" x2="481.408" y2="309.053" gradientUnits="userSpaceOnUse">
<stop offset="0.312498" stop-color="#050462"/>
<stop offset="0.564669" stop-color="#082B8F"/>
<stop offset="0.758913" stop-color="#5EB4FF"/>
<stop offset="0.96125" stop-color="#BC5EA5"/>
</linearGradient>
</defs>
</svg>
