<svg width="956" height="641" viewBox="0 0 956 641" fill="none" xmlns="http://www.w3.org/2000/svg">
<g clip-path="url(#clip0_60_858)">
<rect width="955.596" height="640.043" fill="#36B5FF"/>
<path opacity="0.3" d="M509.817 382.04C514.243 390.388 515.467 392.345 516.691 394.302C518.694 394.05 548.112 381.944 549.354 381.443C551.821 380.209 555.531 377.985 560.357 375.383C562.453 373.285 562.754 363.293 567.035 355.23L567.092 355.122C569.169 351.209 571.293 347.206 586.073 334.654C599.55 323.207 625.233 303.158 637.262 291.007C650.491 277.644 651.902 274.502 652.598 269.442C653.955 259.563 655.329 245.593 654.059 230.603C653.429 223.156 652.204 216.061 650.457 209.111C648.71 202.161 646.822 195.403 643.387 188.724C636.349 175.043 632.278 161.364 621.273 154.711C619.048 153.366 617.579 153.366 615.961 153.744C614.344 154.122 612.63 154.856 604.205 159.886C595.781 164.916 581.309 174.371 572.484 178.872C561.429 184.51 555.957 185.742 544.736 185.737C536.456 185.733 523.235 185.488 512.084 183.476C500.932 181.463 491.669 178.447 485.063 173.438C472.865 164.189 466.83 155.834 462.252 152.476C458.056 149.4 450.066 144.897 440.228 141.86C435.064 140.266 424.252 139.214 407.772 139.781C400.342 140.037 394.71 140.771 386.597 142.398C378.484 144.025 368.201 146.471 360.537 148.955C352.873 151.438 347.976 153.885 345.149 155.864C342.323 157.844 341.588 159.311 341.852 161.936C342.115 164.56 342.748 168.636 345.465 171.955C354.728 183.272 365.903 185.145 372.523 189.332C373.513 189.959 374.462 190.908 374.615 192.813C374.982 197.379 371.241 211.351 366.057 229.187C364.091 235.951 363.601 238.398 363.483 245.418C363.364 252.439 363.264 263.723 363.983 269.949C364.848 277.429 366.697 282.427 371.681 288.338C380.191 298.432 390.245 305.454 402.241 305.838C409.898 306.082 417.575 306.381 424.135 303.962C440.584 297.898 451.554 292.393 455.741 294.97C457.344 295.956 458.888 297.418 464.982 306.483C470.395 314.534 480.188 329.212 488.995 344.113C497.801 359.014 505.391 373.693 509.817 382.04Z" fill="url(#paint0_linear_60_858)"/>
<rect x="-10.6162" y="510.471" width="977.377" height="142.976" fill="#64D96D"/>
<rect x="654.562" y="293.213" width="97.1792" height="80.9827" fill="#3C3834"/>
<rect x="680.252" y="333.984" width="35.1856" height="82.6582" fill="#7A7575"/>
<rect x="361.905" y="397.652" width="390.951" height="56.9671" fill="#3C3834"/>
<rect x="442.892" y="371.962" width="150.795" height="53.6161" fill="#EE6363"/>
<rect x="599.271" y="293.213" width="207.204" height="50.2651" fill="#7A7575"/>
<ellipse cx="406.586" cy="495.391" rx="79.3072" ry="78.7487" fill="#3C3834"/>
<ellipse cx="698.126" cy="495.391" rx="79.3072" ry="78.7487" fill="#3C3834"/>
<path d="M109.171 533.367H161.404V560.733H92.1494L109.171 533.367Z" fill="#4C1515"/>
<path d="M247.706 533.367H195.474V560.733H264.729L247.706 533.367Z" fill="#4C1515"/>
<ellipse cx="181.001" cy="220.677" rx="93.5918" ry="81.2669" fill="#3E2A26"/>
<path d="M290.858 393.535C290.034 361.142 238.418 314.941 238.418 314.941L244.733 428.584C244.733 428.584 291.682 425.929 290.858 393.535Z" fill="#323030"/>
<path d="M60.305 392.463C61.6212 359.607 113.682 313.506 113.682 313.506L105.657 428.719C105.657 428.719 58.9889 425.319 60.305 392.463Z" fill="#323030"/>
<path d="M93.3981 540.544L112.177 452.258C112.682 449.884 114.692 448.128 117.112 447.946L232.22 439.307C234.859 439.109 237.26 440.83 237.92 443.392L262.886 540.317C263.777 543.775 261.166 547.144 257.595 547.144H193.54C191.02 547.144 188.827 545.421 188.231 542.972L179.139 505.62L172.064 542.704C171.572 545.28 169.319 547.144 166.697 547.144H98.7421C95.2671 547.144 92.6751 543.942 93.3981 540.544Z" fill="#393939"/>
<path d="M110.729 316.161C110.949 313.315 113.322 311.117 116.177 311.117H235.529C238.391 311.117 240.768 313.326 240.977 316.18L251.375 457.688C251.608 460.854 249.101 463.552 245.926 463.552H105.272C102.089 463.552 99.5799 460.842 99.8245 457.668L110.729 316.161Z" fill="#323030"/>
<path fill-rule="evenodd" clip-rule="evenodd" d="M153.184 307.839L129.417 341.44H153.184L144.715 355.919L174.219 386.242L203.722 355.919L195.253 341.44H219.02L195.253 307.839L183.878 340.046L174.219 386.242L165.052 341.44L153.184 307.839Z" fill="#3F3D3D"/>
<path d="M195.253 307.839L153.184 307.839C153.184 307.839 164.657 328.328 174.219 328.328C183.78 328.328 195.253 307.839 195.253 307.839Z" fill="#FEE6DA"/>
<path fill-rule="evenodd" clip-rule="evenodd" d="M153.184 307.839L165.052 341.44L174.219 328.328L183.878 340.046L195.253 307.839C195.253 307.839 183.78 328.328 174.219 328.328C164.657 328.328 153.184 307.839 153.184 307.839Z" fill="white"/>
<path d="M165.052 341.44L174.219 386.242L183.878 340.046L174.219 328.328L165.052 341.44Z" fill="#EE6363"/>
<path d="M265.532 244.458C264.021 273.507 243.25 297.837 212.983 307.628C202.16 311.129 190.123 312.771 177.317 312.105C128.702 309.576 87.4298 274.734 89.4817 235.298C91.5335 195.862 132.607 165.943 181.222 168.472C229.837 171.002 267.584 205.022 265.532 244.458Z" fill="#FEE6DA"/>
<path d="M265.532 244.458C264.021 273.507 243.25 297.837 212.983 307.628C245.651 302.053 263.205 292.753 273.964 269.669C274.806 258.756 273.028 253.219 265.532 244.458Z" fill="#FEE6DA"/>
<path d="M89.4817 235.298C86.6118 264.236 148.89 297.545 177.317 312.105C98.572 314.642 81.9118 284.673 81.5964 263.484C81.4894 256.303 80.7612 242.741 89.4817 235.298Z" fill="#FEE6DA"/>
<ellipse cx="111.663" cy="418.205" rx="12.0199" ry="10.3809" fill="#FEE6DA"/>
<ellipse cx="240.057" cy="418.205" rx="12.0199" ry="10.3809" fill="#FEE6DA"/>
<path d="M94.9767 172.534L118.25 179.111L180.237 161.365L231.771 174.802L261.504 207.198L269.977 226.281L261.504 250.335L253.008 230.307C248.702 234.54 243.003 238.921 236.469 246.691C238.966 228.439 232.098 230.191 218.842 211.767C205.508 223.653 201.345 231.039 205.395 246.691C195.71 236.737 193.294 231.185 193.241 221.292C189.66 231.543 185.603 237.179 168.675 246.691C176.825 239.443 179.781 235.211 172.037 226.281C148.15 232.996 141.876 240.171 135.575 255.309C129.937 242.695 129.708 236.274 135.575 226.281C135.575 226.281 121.87 234.672 118.25 246.691C114.63 258.711 118.25 261.886 118.25 261.886L102.993 255.309L113.078 226.281C96.5735 238.551 87.7079 245.753 80.4956 265.741C66.0555 249.532 65.3435 239.54 67.5661 221.292C67.9324 198.341 76.5751 188.665 94.9767 172.534Z" fill="#3E2A26"/>
</g>
<defs>
<linearGradient id="paint0_linear_60_858" x1="498.182" y1="139.625" x2="498.182" y2="394.302" gradientUnits="userSpaceOnUse">
<stop stop-color="#D9D9D9"/>
<stop offset="1" stop-color="#737373"/>
</linearGradient>
<clipPath id="clip0_60_858">
<rect width="955.596" height="640.043" fill="white"/>
</clipPath>
</defs>
</svg>
