<svg width="956" height="641" viewBox="0 0 956 641" fill="none" xmlns="http://www.w3.org/2000/svg">
<g clip-path="url(#clip0_60_485)">
<rect width="955.596" height="640.043" fill="#36B5FF"/>
<rect y="408.823" width="977.377" height="77.0732" fill="#3E9511"/>
<rect x="73.165" y="206.087" width="322.255" height="190.449" fill="#A9E0FF" stroke="#986028" stroke-width="24.5741"/>
<rect x="521.084" y="112.816" width="394.302" height="360.792" fill="#F0A961" stroke="#DF2626" stroke-width="24.5741"/>
<rect x="-51.9365" y="458.529" width="1056.13" height="202.177" fill="#BC8B5A"/>
<path d="M60.0405 187.656H426.976L454.622 279.25H21.7832L60.0405 187.656Z" fill="#986028"/>
<path d="M943.728 100.808L977.038 264.449H454.434L500.53 100.808H943.728Z" fill="#8D0B0B" stroke="#DF2626" stroke-width="0.558501"/>
<rect x="35.7441" y="359.116" width="402.121" height="54.7331" fill="#714314"/>
<rect x="117.286" y="394.301" width="234.012" height="36.8611" fill="#714314"/>
<rect x="336.778" y="366.375" width="39.6536" height="94.3867" fill="#986028"/>
<rect x="84.334" y="376.988" width="39.6536" height="94.3867" fill="#986028"/>
<circle cx="356.887" cy="458.528" r="27.3666" fill="#404040"/>
<circle cx="103.325" cy="458.528" r="27.3666" fill="#404040"/>
<rect x="84.334" y="341.801" width="299.915" height="17.3135" fill="#673A0D"/>
<rect x="551.802" y="287.069" width="206.087" height="106.674" fill="#A9E0FF"/>
<rect x="551.802" y="375.314" width="206.087" height="18.4305" fill="#36B5FF"/>
<path d="M605.12 383.074H599.855C599.727 383.074 599.656 383.003 599.642 382.861L594.504 352.986C594.475 352.873 594.518 352.816 594.631 352.816H599.515C599.628 352.816 599.699 352.873 599.727 352.986L602.509 372.627L605.375 352.986C605.404 352.873 605.488 352.816 605.63 352.816H609.558C609.671 352.816 609.742 352.873 609.77 352.986L612.595 372.627L615.419 352.986C615.447 352.873 615.518 352.816 615.631 352.816H620.472C620.614 352.816 620.67 352.873 620.642 352.986L615.461 382.861C615.447 382.918 615.404 382.968 615.334 383.01L615.249 383.074H609.983C609.898 383.074 609.827 383.003 609.77 382.861L607.541 367.255L605.333 382.861C605.319 383.003 605.248 383.074 605.12 383.074ZM621.725 382.861L627.118 352.986C627.146 352.873 627.217 352.816 627.33 352.816H633.637C633.75 352.816 633.821 352.873 633.849 352.986L639.03 382.861C639.044 383.003 638.987 383.074 638.86 383.074H634.04C633.899 383.074 633.821 383.003 633.807 382.861L633.339 379.676H627.415L626.948 382.861C626.934 383.003 626.863 383.074 626.736 383.074H621.895C621.781 383.074 621.725 383.003 621.725 382.861ZM630.239 362.817L628.286 375.026H632.469L630.685 362.817L630.43 361.203L630.239 362.817ZM646.844 383.074H641.918C641.804 383.074 641.748 383.003 641.748 382.861L641.833 352.986C641.833 352.873 641.889 352.816 642.003 352.816H650.793C652.364 352.816 653.808 353.199 655.125 353.963C656.441 354.727 657.489 355.754 658.267 357.042C659.06 358.33 659.456 359.788 659.456 361.416C659.456 362.477 659.294 363.44 658.968 364.304C658.642 365.167 658.26 365.896 657.821 366.491C657.397 367.085 657.007 367.524 656.654 367.807C658.225 369.548 659.01 371.594 659.01 373.943L659.053 382.861C659.053 383.003 658.982 383.074 658.841 383.074H653.914C653.801 383.074 653.745 383.031 653.745 382.946V373.943C653.745 372.896 653.377 371.99 652.64 371.226C651.904 370.461 650.998 370.079 649.923 370.079H647.056L647.014 382.861C647.014 383.003 646.957 383.074 646.844 383.074ZM650.793 358.018H647.056V364.856H650.793C651.685 364.856 652.478 364.523 653.171 363.858C653.879 363.192 654.233 362.378 654.233 361.416C654.233 360.496 653.893 359.703 653.214 359.038C652.534 358.358 651.727 358.018 650.793 358.018ZM672.005 383.074H667.1C666.973 383.074 666.909 383.003 666.909 382.861V358.061H661.261C661.12 358.061 661.049 357.99 661.049 357.849L661.091 352.986C661.091 352.873 661.148 352.816 661.261 352.816H677.781C677.936 352.816 678.014 352.873 678.014 352.986V357.849C678.014 357.99 677.958 358.061 677.844 358.061H672.133L672.175 382.861C672.175 383.003 672.118 383.074 672.005 383.074ZM694.364 383.074H680.307C680.194 383.074 680.138 383.003 680.138 382.861L680.18 352.986C680.18 352.873 680.237 352.816 680.35 352.816H694.321C694.435 352.816 694.491 352.887 694.491 353.029V357.891C694.491 358.004 694.435 358.061 694.321 358.061H685.403V364.856H694.321C694.435 364.856 694.491 364.912 694.491 365.025L694.534 369.952C694.534 370.065 694.477 370.121 694.364 370.121H685.403V377.723H694.364C694.477 377.723 694.534 377.794 694.534 377.935V382.904C694.534 383.017 694.477 383.074 694.364 383.074ZM706.361 383.498C704.789 383.498 703.374 383.109 702.114 382.331C700.84 381.552 699.814 380.505 699.035 379.188C698.271 377.872 697.889 376.399 697.889 374.772V360.991C697.889 359.406 698.278 357.962 699.056 356.66C699.821 355.343 700.847 354.296 702.135 353.517C703.423 352.724 704.832 352.328 706.361 352.328C707.96 352.328 709.404 352.71 710.692 353.475C711.98 354.253 713 355.294 713.75 356.596C714.514 357.898 714.896 359.363 714.896 360.991V362.987C714.896 363.1 714.826 363.157 714.684 363.157H709.8C709.687 363.157 709.631 363.1 709.631 362.987V361.331C709.631 360.227 709.319 359.314 708.696 358.592C708.074 357.87 707.295 357.509 706.361 357.509C705.526 357.509 704.782 357.856 704.131 358.549C703.48 359.243 703.154 360.057 703.154 360.991V374.772C703.154 375.72 703.473 376.541 704.11 377.235C704.747 377.914 705.497 378.254 706.361 378.254C707.295 378.254 708.074 377.921 708.696 377.256C709.319 376.576 709.631 375.748 709.631 374.772V372.627H706.594C706.439 372.627 706.361 372.556 706.361 372.415V367.552C706.361 367.411 706.439 367.34 706.594 367.34H714.727C714.84 367.34 714.896 367.411 714.896 367.552V374.772C714.896 376.399 714.514 377.872 713.75 379.188C712.971 380.505 711.945 381.552 710.671 382.331C709.397 383.109 707.96 383.498 706.361 383.498Z" fill="#004973"/>
<rect x="780.226" y="303.823" width="105.557" height="154.705" fill="#986028"/>
</g>
<defs>
<clipPath id="clip0_60_485">
<rect width="955.596" height="640.043" fill="white"/>
</clipPath>
</defs>
</svg>
