<svg width="956" height="641" viewBox="0 0 956 641" fill="none" xmlns="http://www.w3.org/2000/svg">
<g clip-path="url(#clip0_60_1125)">
<rect width="955.596" height="640.043" fill="#36B5FF"/>
<rect x="-44.1221" y="443.451" width="999.717" height="80.4242" fill="#127F1B"/>
<rect x="-10.6162" y="510.47" width="977.377" height="142.976" fill="#64D96D"/>
<rect x="-20.6426" y="307.75" width="65.5153" height="216.399" fill="#804C18"/>
<ellipse cx="11.6183" cy="247.198" rx="132.52" ry="131.031" fill="#6C9D53"/>
<rect x="289.07" y="307.75" width="65.5153" height="216.399" fill="#804C18"/>
<ellipse cx="321.332" cy="247.198" rx="132.52" ry="131.031" fill="#6C9D53"/>
<rect x="598.776" y="307.75" width="65.5153" height="216.399" fill="#804C18"/>
<ellipse cx="631.041" cy="247.199" rx="132.52" ry="131.031" fill="#6C9D53"/>
<rect x="908.487" y="307.75" width="65.5153" height="216.399" fill="#804C18"/>
<ellipse cx="940.746" cy="247.199" rx="132.52" ry="131.031" fill="#6C9D53"/>
<rect x="60.874" y="392.068" width="236.805" height="102.764" fill="#986028"/>
<rect x="60.874" y="408.823" width="236.805" height="7.26052" fill="#A97B4E"/>
<rect x="60.874" y="425.578" width="236.805" height="7.26052" fill="#A97B4E"/>
<rect x="60.874" y="442.333" width="236.805" height="7.26052" fill="#A97B4E"/>
<rect x="46.3545" y="463.556" width="265.847" height="31.2761" fill="#6F3F0F"/>
<rect x="77.0693" y="479.194" width="36.8611" height="54.1746" fill="#6F3F0F"/>
<rect x="244.06" y="479.194" width="36.8611" height="54.1746" fill="#6F3F0F"/>
<rect x="437.863" y="473.052" width="288.187" height="50.8236" fill="#7A7570"/>
<path d="M581.674 440.657C621.779 440.657 657.864 444.689 683.729 451.094C696.714 454.309 706.747 458.032 713.373 461.911C720.466 466.064 721.578 469.109 721.578 470.258C721.578 471.406 720.466 474.452 713.373 478.604C706.747 482.483 696.714 486.207 683.729 489.422C657.864 495.827 621.779 499.858 581.674 499.858C541.569 499.858 505.483 495.827 479.618 489.422C466.634 486.207 456.6 482.483 449.975 478.604C442.882 474.452 441.77 471.406 441.77 470.258C441.77 469.109 442.882 466.064 449.975 461.911C456.6 458.032 466.634 454.309 479.618 451.094C505.483 444.689 541.569 440.657 581.674 440.657Z" fill="#A9E0FF" stroke="#7A7570" stroke-width="13.404"/>
<path d="M581.674 513.263C621.952 513.263 658.285 515.503 684.43 519.089C697.552 520.888 707.832 522.991 714.692 525.216C716.25 525.721 717.551 526.21 718.621 526.666C717.551 527.122 716.25 527.612 714.692 528.117C707.832 530.342 697.552 532.445 684.43 534.244C658.285 537.83 621.952 540.07 581.674 540.07C541.396 540.07 505.063 537.83 478.918 534.244C465.796 532.445 455.516 530.342 448.655 528.117C447.097 527.612 445.796 527.122 444.726 526.666C445.796 526.21 447.097 525.721 448.655 525.216C455.516 522.991 465.796 520.888 478.918 519.089C505.063 515.503 541.396 513.263 581.674 513.263Z" fill="#7A7570" stroke="#7A7570" stroke-width="13.404"/>
<mask id="path-21-inside-1_60_1125" fill="white">
<ellipse cx="581.957" cy="468.304" rx="58.6426" ry="10.8908"/>
</mask>
<ellipse cx="581.957" cy="468.304" rx="58.6426" ry="10.8908" fill="#7A7570"/>
<path d="M640.6 468.304H627.196C627.196 463.799 629.703 461.206 630.4 460.573C631.131 459.909 631.445 459.9 630.602 460.27C629.012 460.968 625.879 461.916 620.976 462.826C611.391 464.606 597.588 465.791 581.957 465.791V479.195V492.599C598.713 492.599 614.232 491.345 625.871 489.183C631.581 488.123 637.035 486.724 641.38 484.816C643.505 483.883 646.123 482.506 648.417 480.424C650.676 478.374 654.004 474.313 654.004 468.304H640.6ZM581.957 479.195V465.791C566.326 465.791 552.523 464.606 542.938 462.826C538.035 461.916 534.902 460.968 533.312 460.27C532.469 459.9 532.783 459.909 533.514 460.573C534.211 461.206 536.718 463.799 536.718 468.304H523.314H509.91C509.91 474.313 513.238 478.374 515.498 480.424C517.791 482.506 520.41 483.883 522.534 484.816C526.879 486.724 532.334 488.123 538.043 489.183C549.682 491.345 565.201 492.599 581.957 492.599V479.195ZM523.314 468.304H536.718C536.718 472.809 534.211 475.402 533.514 476.035C532.783 476.698 532.469 476.708 533.312 476.338C534.902 475.64 538.035 474.692 542.938 473.782C552.523 472.001 566.326 470.817 581.957 470.817V457.413V444.009C565.201 444.009 549.682 445.263 538.043 447.424C532.334 448.485 526.879 449.884 522.534 451.792C520.41 452.724 517.791 454.102 515.498 456.183C513.238 458.234 509.91 462.295 509.91 468.304H523.314ZM581.957 457.413V470.817C597.588 470.817 611.391 472.001 620.976 473.782C625.879 474.692 629.012 475.64 630.602 476.338C631.445 476.708 631.131 476.698 630.4 476.035C629.703 475.402 627.196 472.809 627.196 468.304H640.6H654.004C654.004 462.295 650.676 458.234 648.417 456.183C646.123 454.102 643.505 452.724 641.38 451.792C637.035 449.884 631.581 448.485 625.871 447.424C614.232 445.263 598.713 444.009 581.957 444.009V457.413Z" fill="#7A7570" mask="url(#path-21-inside-1_60_1125)"/>
<rect x="524.988" y="401.561" width="113.376" height="67.0202" fill="#7A7570"/>
<path d="M581.68 383.69C599.066 383.69 614.511 386.302 625.367 390.309C630.821 392.322 634.767 394.559 637.226 396.705C639.699 398.863 640.043 400.335 640.043 401.003C640.043 401.672 639.699 403.143 637.226 405.301C634.767 407.447 630.822 409.685 625.367 411.698C614.511 415.705 599.066 418.317 581.68 418.317C564.293 418.317 548.848 415.705 537.992 411.698C532.538 409.685 528.592 407.447 526.134 405.301C523.661 403.143 523.316 401.672 523.316 401.003C523.316 400.335 523.66 398.863 526.134 396.705C528.592 394.559 532.538 392.322 537.992 390.309C548.848 386.302 564.293 383.69 581.68 383.69Z" fill="#A9E0FF" stroke="#7A7570" stroke-width="13.404"/>
<mask id="path-25-inside-2_60_1125" fill="white">
<ellipse cx="582.234" cy="394.023" rx="23.1778" ry="6.98127"/>
</mask>
<ellipse cx="582.234" cy="394.023" rx="23.1778" ry="6.98127" fill="#7A7570"/>
<path d="M605.412 394.023H592.008C592.008 388.513 595.661 385.932 595.815 385.822C596.309 385.471 596.155 385.704 594.758 386.125C592.133 386.916 587.702 387.6 582.234 387.6V401.005V414.409C589.567 414.409 596.725 413.53 602.489 411.794C605.287 410.952 608.527 409.681 611.366 407.659C613.866 405.879 618.816 401.461 618.816 394.023H605.412ZM582.234 401.005V387.6C576.767 387.6 572.336 386.916 569.711 386.125C568.314 385.704 568.16 385.471 568.653 385.822C568.808 385.932 572.461 388.513 572.461 394.023H559.057H545.653C545.653 401.461 550.603 405.879 553.103 407.659C555.942 409.681 559.182 410.952 561.979 411.794C567.744 413.53 574.901 414.409 582.234 414.409V401.005ZM559.057 394.023H572.461C572.461 399.533 568.808 402.114 568.653 402.224C568.16 402.576 568.314 402.342 569.711 401.921C572.336 401.131 576.767 400.446 582.234 400.446V387.042V373.638C574.901 373.638 567.744 374.516 561.979 376.252C559.182 377.095 555.942 378.365 553.103 380.387C550.603 382.168 545.653 386.586 545.653 394.023H559.057ZM582.234 387.042V400.446C587.702 400.446 592.133 401.131 594.758 401.921C596.155 402.342 596.309 402.576 595.815 402.224C595.661 402.114 592.008 399.533 592.008 394.023H605.412H618.816C618.816 386.586 613.866 382.168 611.366 380.387C608.527 378.365 605.287 377.095 602.489 376.252C596.725 374.516 589.567 373.638 582.234 373.638V387.042Z" fill="#7A7570" mask="url(#path-25-inside-2_60_1125)"/>
<rect x="559.617" y="350.739" width="44.6801" height="43.5631" fill="#7A7570"/>
<path d="M581.956 341.244C588.027 341.244 593.202 342.755 596.638 344.847C600.192 347.01 600.944 349.093 600.944 350.18C600.944 351.267 600.192 353.349 596.638 355.513C593.202 357.604 588.027 359.116 581.956 359.116C575.885 359.116 570.71 357.604 567.274 355.513C563.72 353.349 562.967 351.267 562.967 350.18C562.967 349.093 563.72 347.01 567.274 344.847C570.71 342.755 575.885 341.244 581.956 341.244Z" fill="#A9E0FF" stroke="#7A7570" stroke-width="13.404"/>
<path d="M581.956 350.4C631.743 344.77 645.888 380.76 661.263 472.991C689.165 289.184 617.517 237.606 581.956 350.4Z" fill="#A9E0FF"/>
<path d="M582.118 350.4C532.332 344.77 518.187 380.76 502.811 472.991C474.909 289.184 546.557 237.606 582.118 350.4Z" fill="#A9E0FF"/>
</g>
<defs>
<clipPath id="clip0_60_1125">
<rect width="955.596" height="640.043" fill="white"/>
</clipPath>
</defs>
</svg>
