<svg width="956" height="641" viewBox="0 0 956 641" fill="none" xmlns="http://www.w3.org/2000/svg">
<g clip-path="url(#clip0_60_676)">
<rect width="955.596" height="640.043" fill="#36B5FF"/>
<rect x="255.235" y="95.5065" width="445.126" height="746.158" fill="#393838"/>
<rect x="317.786" y="158.057" width="320.021" height="527.784" fill="white"/>
<rect x="340.126" y="178.164" width="275.341" height="83.7752" fill="#D9D9D9"/>
<path d="M341.242 285.955H616.583V518.292H368.05L335.378 524.715L341.242 495.114V285.955Z" fill="#D9D9D9"/>
<path d="M430.406 243.306C427.757 243.306 425.334 242.637 423.138 241.301C420.966 239.964 419.236 238.174 417.947 235.93C416.682 233.663 416.049 231.144 416.049 228.376L416.121 205.497C416.121 202.776 416.741 200.317 417.982 198.121C419.224 195.902 420.93 194.123 423.102 192.787C425.298 191.426 427.733 190.746 430.406 190.746C433.127 190.746 435.55 191.402 437.675 192.715C439.823 194.028 441.529 195.806 442.794 198.05C444.083 200.27 444.728 202.752 444.728 205.497V208.863C444.728 209.053 444.632 209.149 444.441 209.149H436.207C436.016 209.149 435.92 209.053 435.92 208.863V205.497C435.92 203.874 435.395 202.478 434.345 201.308C433.295 200.138 431.982 199.554 430.406 199.554C428.664 199.554 427.327 200.15 426.396 201.344C425.465 202.537 425 203.922 425 205.497V228.376C425 230.166 425.525 231.634 426.575 232.779C427.626 233.901 428.903 234.462 430.406 234.462C431.982 234.462 433.295 233.842 434.345 232.6C435.395 231.335 435.92 229.927 435.92 228.376V224.974C435.92 224.783 436.016 224.688 436.207 224.688H444.513C444.704 224.688 444.799 224.783 444.799 224.974V228.376C444.799 231.121 444.155 233.627 442.866 235.894C441.553 238.138 439.823 239.94 437.675 241.301C435.526 242.637 433.104 243.306 430.406 243.306ZM458.727 242.59H450.421C450.23 242.59 450.134 242.47 450.134 242.232L450.206 191.856C450.206 191.665 450.325 191.569 450.564 191.569H458.727C458.966 191.569 459.085 191.665 459.085 191.856L459.014 211.798H470.005V191.856C470.005 191.665 470.101 191.569 470.292 191.569H478.455C478.694 191.569 478.813 191.665 478.813 191.856L478.956 242.232C478.956 242.47 478.837 242.59 478.598 242.59H470.363C470.125 242.59 470.005 242.47 470.005 242.232V220.678H459.014V242.232C459.014 242.47 458.918 242.59 458.727 242.59ZM482.465 242.232L491.559 191.856C491.607 191.665 491.726 191.569 491.917 191.569H502.551C502.742 191.569 502.861 191.665 502.909 191.856L511.645 242.232C511.669 242.47 511.574 242.59 511.359 242.59H503.231C502.993 242.59 502.861 242.47 502.837 242.232L502.05 236.861H492.061L491.273 242.232C491.249 242.47 491.13 242.59 490.915 242.59H482.752C482.561 242.59 482.465 242.47 482.465 242.232ZM496.822 208.433L493.528 229.02H500.582L497.574 208.433L497.145 205.712L496.822 208.433ZM531.874 242.59H523.604C523.389 242.59 523.281 242.47 523.281 242.232V200.413H513.758C513.519 200.413 513.4 200.293 513.4 200.055L513.471 191.856C513.471 191.665 513.567 191.569 513.758 191.569H541.613C541.876 191.569 542.007 191.665 542.007 191.856V200.055C542.007 200.293 541.911 200.413 541.72 200.413H532.089L532.161 242.232C532.161 242.47 532.065 242.59 531.874 242.59Z" fill="white"/>
<path d="M378.459 327.245C377.68 327.245 376.968 327.049 376.322 326.655C375.683 326.262 375.174 325.736 374.795 325.076C374.423 324.409 374.237 323.669 374.237 322.854L374.258 316.126C374.258 315.326 374.44 314.603 374.806 313.957C375.171 313.304 375.672 312.781 376.311 312.388C376.957 311.988 377.673 311.788 378.459 311.788C379.26 311.788 379.972 311.981 380.597 312.367C381.229 312.753 381.73 313.276 382.103 313.936C382.482 314.589 382.671 315.319 382.671 316.126V317.116C382.671 317.172 382.643 317.2 382.587 317.2H380.165C380.109 317.2 380.081 317.172 380.081 317.116V316.126C380.081 315.649 379.926 315.238 379.618 314.894C379.309 314.55 378.923 314.378 378.459 314.378C377.947 314.378 377.554 314.553 377.28 314.904C377.006 315.255 376.869 315.663 376.869 316.126V322.854C376.869 323.381 377.024 323.812 377.333 324.149C377.641 324.479 378.017 324.644 378.459 324.644C378.923 324.644 379.309 324.462 379.618 324.097C379.926 323.725 380.081 323.311 380.081 322.854V321.854C380.081 321.798 380.109 321.77 380.165 321.77H382.608C382.664 321.77 382.692 321.798 382.692 321.854V322.854C382.692 323.662 382.503 324.399 382.124 325.066C381.737 325.725 381.229 326.255 380.597 326.655C379.965 327.049 379.253 327.245 378.459 327.245ZM388.252 327.245C387.487 327.245 386.781 327.049 386.135 326.655C385.497 326.262 384.981 325.739 384.587 325.087C384.201 324.427 384.008 323.704 384.008 322.917L384.029 316.084C384.029 315.284 384.222 314.564 384.609 313.925C384.988 313.279 385.5 312.763 386.146 312.377C386.792 311.984 387.494 311.788 388.252 311.788C389.038 311.788 389.743 311.981 390.368 312.367C391 312.753 391.505 313.272 391.885 313.925C392.271 314.571 392.464 315.291 392.464 316.084L392.485 322.917C392.485 323.704 392.295 324.423 391.916 325.076C391.53 325.736 391.018 326.262 390.379 326.655C389.74 327.049 389.031 327.245 388.252 327.245ZM388.252 324.644C388.687 324.644 389.066 324.469 389.389 324.118C389.712 323.76 389.873 323.36 389.873 322.917L389.852 316.084C389.852 315.606 389.701 315.203 389.4 314.873C389.098 314.543 388.715 314.378 388.252 314.378C387.81 314.378 387.43 314.539 387.115 314.862C386.799 315.185 386.641 315.592 386.641 316.084V322.917C386.641 323.388 386.799 323.795 387.115 324.139C387.43 324.476 387.81 324.644 388.252 324.644ZM396.465 327.035H394.306C394.194 327.035 394.138 326.985 394.138 326.887L394.117 312.198C394.117 312.086 394.173 312.03 394.285 312.03H396.233L399.876 320.527L399.771 312.198C399.771 312.086 399.834 312.03 399.961 312.03H402.098C402.182 312.03 402.225 312.086 402.225 312.198L402.246 326.908C402.246 326.992 402.211 327.035 402.14 327.035H400.245L396.507 319.095L396.665 326.866C396.665 326.978 396.598 327.035 396.465 327.035ZM408.068 327.245C407.289 327.245 406.587 327.052 405.963 326.666C405.331 326.28 404.822 325.76 404.436 325.108C404.057 324.455 403.867 323.725 403.867 322.917V316.084C403.867 315.298 404.06 314.582 404.446 313.936C404.825 313.283 405.334 312.763 405.973 312.377C406.612 311.984 407.31 311.788 408.068 311.788C408.862 311.788 409.578 311.977 410.217 312.356C410.855 312.742 411.361 313.258 411.733 313.904C412.112 314.55 412.301 315.277 412.301 316.084V317.074C412.301 317.13 412.266 317.158 412.196 317.158H409.774C409.718 317.158 409.69 317.13 409.69 317.074V316.252C409.69 315.705 409.536 315.252 409.227 314.894C408.918 314.536 408.532 314.357 408.068 314.357C407.654 314.357 407.286 314.529 406.963 314.873C406.64 315.217 406.479 315.62 406.479 316.084V322.917C406.479 323.388 406.636 323.795 406.952 324.139C407.268 324.476 407.64 324.644 408.068 324.644C408.532 324.644 408.918 324.479 409.227 324.149C409.536 323.812 409.69 323.402 409.69 322.917V321.854H408.184C408.107 321.854 408.068 321.819 408.068 321.749V319.337C408.068 319.267 408.107 319.232 408.184 319.232H412.217C412.273 319.232 412.301 319.267 412.301 319.337V322.917C412.301 323.725 412.112 324.455 411.733 325.108C411.347 325.76 410.838 326.28 410.206 326.666C409.574 327.052 408.862 327.245 408.068 327.245ZM416.355 327.035H413.912C413.856 327.035 413.828 326.999 413.828 326.929L413.87 312.114C413.87 312.058 413.898 312.03 413.955 312.03H418.314C419.093 312.03 419.809 312.219 420.462 312.598C421.115 312.978 421.634 313.486 422.02 314.125C422.413 314.764 422.61 315.487 422.61 316.294C422.61 316.821 422.529 317.298 422.368 317.726C422.206 318.155 422.017 318.516 421.799 318.811C421.588 319.106 421.395 319.323 421.22 319.464C421.999 320.327 422.389 321.342 422.389 322.507L422.41 326.929C422.41 326.999 422.375 327.035 422.304 327.035H419.862C419.805 327.035 419.777 327.013 419.777 326.971V322.507C419.777 321.987 419.595 321.538 419.23 321.159C418.865 320.78 418.416 320.59 417.882 320.59H416.461L416.44 326.929C416.44 326.999 416.411 327.035 416.355 327.035ZM418.314 314.61H416.461V318H418.314C418.756 318 419.149 317.835 419.493 317.505C419.844 317.175 420.02 316.772 420.02 316.294C420.02 315.838 419.851 315.445 419.514 315.115C419.177 314.778 418.777 314.61 418.314 314.61ZM423.084 326.929L425.758 312.114C425.772 312.058 425.807 312.03 425.863 312.03H428.991C429.047 312.03 429.082 312.058 429.096 312.114L431.665 326.929C431.672 326.999 431.644 327.035 431.581 327.035H429.191C429.121 327.035 429.082 326.999 429.075 326.929L428.843 325.35H425.906L425.674 326.929C425.667 326.999 425.632 327.035 425.569 327.035H423.168C423.112 327.035 423.084 326.999 423.084 326.929ZM427.306 316.989L426.337 323.044H428.412L427.527 316.989L427.401 316.189L427.306 316.989ZM437.615 327.035H435.182C435.119 327.035 435.087 326.999 435.087 326.929V314.631H432.287C432.216 314.631 432.181 314.596 432.181 314.525L432.202 312.114C432.202 312.058 432.23 312.03 432.287 312.03H440.479C440.556 312.03 440.594 312.058 440.594 312.114V314.525C440.594 314.596 440.566 314.631 440.51 314.631H437.678L437.699 326.929C437.699 326.999 437.671 327.035 437.615 327.035ZM445.617 327.245C444.859 327.245 444.157 327.049 443.511 326.655C442.865 326.262 442.349 325.736 441.963 325.076C441.584 324.409 441.395 323.683 441.395 322.896L441.437 312.114C441.437 312.058 441.465 312.03 441.521 312.03H443.943C443.999 312.03 444.027 312.058 444.027 312.114V322.896C444.027 323.381 444.181 323.795 444.49 324.139C444.799 324.476 445.175 324.644 445.617 324.644C446.08 324.644 446.466 324.476 446.775 324.139C447.084 323.795 447.239 323.381 447.239 322.896V312.114C447.239 312.058 447.267 312.03 447.323 312.03H449.745C449.801 312.03 449.829 312.058 449.829 312.114L449.871 322.896C449.871 323.69 449.681 324.42 449.302 325.087C448.916 325.746 448.404 326.273 447.765 326.666C447.126 327.052 446.41 327.245 445.617 327.245ZM458.621 327.035H451.65C451.594 327.035 451.566 326.999 451.566 326.929L451.587 312.135C451.587 312.065 451.622 312.03 451.693 312.03H454.093C454.164 312.03 454.199 312.065 454.199 312.135L454.178 324.381H458.621C458.691 324.381 458.726 324.416 458.726 324.486V326.929C458.726 326.999 458.691 327.035 458.621 327.035ZM459.411 326.929L462.085 312.114C462.099 312.058 462.134 312.03 462.191 312.03H465.318C465.374 312.03 465.409 312.058 465.423 312.114L467.992 326.929C467.999 326.999 467.971 327.035 467.908 327.035H465.518C465.448 327.035 465.409 326.999 465.402 326.929L465.17 325.35H462.233L462.001 326.929C461.994 326.999 461.959 327.035 461.896 327.035H459.495C459.439 327.035 459.411 326.999 459.411 326.929ZM463.633 316.989L462.664 323.044H464.739L463.854 316.989L463.728 316.189L463.633 316.989ZM473.942 327.035H471.509C471.446 327.035 471.415 326.999 471.415 326.929V314.631H468.614C468.543 314.631 468.508 314.596 468.508 314.525L468.529 312.114C468.529 312.058 468.557 312.03 468.614 312.03H476.806C476.883 312.03 476.921 312.058 476.921 312.114V314.525C476.921 314.596 476.893 314.631 476.837 314.631H474.005L474.026 326.929C474.026 326.999 473.998 327.035 473.942 327.035ZM480.523 327.035H478.08C478.01 327.035 477.974 326.999 477.974 326.929L477.996 312.114C477.996 312.058 478.024 312.03 478.08 312.03H480.502C480.558 312.03 480.586 312.058 480.586 312.114L480.607 326.929C480.607 326.999 480.579 327.035 480.523 327.035ZM486.493 327.245C485.728 327.245 485.022 327.049 484.376 326.655C483.738 326.262 483.222 325.739 482.829 325.087C482.443 324.427 482.249 323.704 482.249 322.917L482.271 316.084C482.271 315.284 482.464 314.564 482.85 313.925C483.229 313.279 483.741 312.763 484.387 312.377C485.033 311.984 485.735 311.788 486.493 311.788C487.279 311.788 487.985 311.981 488.609 312.367C489.241 312.753 489.747 313.272 490.126 313.925C490.512 314.571 490.705 315.291 490.705 316.084L490.726 322.917C490.726 323.704 490.536 324.423 490.157 325.076C489.771 325.736 489.259 326.262 488.62 326.655C487.981 327.049 487.272 327.245 486.493 327.245ZM486.493 324.644C486.928 324.644 487.307 324.469 487.63 324.118C487.953 323.76 488.114 323.36 488.114 322.917L488.093 316.084C488.093 315.606 487.942 315.203 487.641 314.873C487.339 314.543 486.956 314.378 486.493 314.378C486.051 314.378 485.672 314.539 485.356 314.862C485.04 315.185 484.882 315.592 484.882 316.084V322.917C484.882 323.388 485.04 323.795 485.356 324.139C485.672 324.476 486.051 324.644 486.493 324.644ZM494.706 327.035H492.547C492.435 327.035 492.379 326.985 492.379 326.887L492.358 312.198C492.358 312.086 492.414 312.03 492.526 312.03H494.474L498.118 320.527L498.012 312.198C498.012 312.086 498.075 312.03 498.202 312.03H500.339C500.424 312.03 500.466 312.086 500.466 312.198L500.487 326.908C500.487 326.992 500.452 327.035 500.381 327.035H498.486L494.748 319.095L494.906 326.866C494.906 326.978 494.839 327.035 494.706 327.035ZM506.025 327.245C505.26 327.245 504.555 327.049 503.909 326.655C503.27 326.262 502.758 325.739 502.372 325.087C501.992 324.427 501.803 323.704 501.803 322.917V321.928C501.803 321.85 501.838 321.812 501.908 321.812H504.33C504.386 321.812 504.414 321.85 504.414 321.928V322.917C504.414 323.388 504.572 323.795 504.888 324.139C505.204 324.476 505.583 324.644 506.025 324.644C506.475 324.644 506.857 324.472 507.173 324.128C507.489 323.777 507.647 323.374 507.647 322.917C507.647 322.391 507.303 321.931 506.615 321.538C506.503 321.468 506.355 321.384 506.173 321.285C505.997 321.18 505.787 321.061 505.541 320.927C505.295 320.794 505.057 320.664 504.825 320.538C504.593 320.404 504.369 320.278 504.151 320.159C503.365 319.695 502.779 319.116 502.393 318.421C502.014 317.719 501.824 316.933 501.824 316.063C501.824 315.262 502.021 314.539 502.414 313.894C502.807 313.255 503.319 312.749 503.951 312.377C504.59 311.998 505.281 311.809 506.025 311.809C506.79 311.809 507.492 311.998 508.131 312.377C508.77 312.763 509.279 313.276 509.658 313.915C510.044 314.553 510.237 315.269 510.237 316.063V317.832C510.237 317.888 510.209 317.916 510.153 317.916H507.731C507.675 317.916 507.647 317.888 507.647 317.832L507.626 316.063C507.626 315.557 507.468 315.147 507.152 314.831C506.836 314.515 506.461 314.357 506.025 314.357C505.583 314.357 505.204 314.525 504.888 314.862C504.572 315.199 504.414 315.599 504.414 316.063C504.414 316.533 504.513 316.926 504.709 317.242C504.913 317.558 505.281 317.86 505.815 318.148C505.871 318.176 506.001 318.246 506.204 318.358C506.408 318.47 506.632 318.597 506.878 318.737C507.131 318.871 507.359 318.993 507.563 319.106C507.766 319.211 507.889 319.274 507.931 319.295C508.647 319.695 509.212 320.187 509.626 320.769C510.048 321.352 510.258 322.068 510.258 322.917C510.258 323.739 510.069 324.476 509.69 325.129C509.303 325.782 508.791 326.297 508.152 326.677C507.513 327.056 506.804 327.245 506.025 327.245ZM513.786 323.065H512.311C512.248 323.065 512.213 323.03 512.206 322.96L511.753 318V312.135C511.753 312.065 511.781 312.03 511.838 312.03H514.259C514.33 312.03 514.365 312.065 514.365 312.135L514.344 318L513.891 322.96C513.884 323.03 513.849 323.065 513.786 323.065ZM514.259 327.035H511.838C511.781 327.035 511.753 326.999 511.753 326.929V324.581C511.753 324.518 511.781 324.486 511.838 324.486H514.259C514.316 324.486 514.344 324.518 514.344 324.581V326.929C514.344 326.999 514.316 327.035 514.259 327.035ZM526.232 327.035H523.757C523.708 327.035 523.683 327.006 523.683 326.95L523.704 320.822L520.819 312.114C520.805 312.058 520.826 312.03 520.883 312.03H523.283C523.353 312.03 523.396 312.058 523.41 312.114L525 317.916L526.621 312.114C526.635 312.058 526.67 312.03 526.726 312.03H529.148C529.204 312.03 529.225 312.058 529.211 312.114L526.295 320.738L526.316 326.95C526.316 327.006 526.288 327.035 526.232 327.035ZM532.886 327.245C532.121 327.245 531.416 327.049 530.77 326.655C530.131 326.262 529.615 325.739 529.222 325.087C528.836 324.427 528.643 323.704 528.643 322.917L528.664 316.084C528.664 315.284 528.857 314.564 529.243 313.925C529.622 313.279 530.135 312.763 530.78 312.377C531.426 311.984 532.128 311.788 532.886 311.788C533.672 311.788 534.378 311.981 535.003 312.367C535.634 312.753 536.14 313.272 536.519 313.925C536.905 314.571 537.098 315.291 537.098 316.084L537.119 322.917C537.119 323.704 536.93 324.423 536.551 325.076C536.164 325.736 535.652 326.262 535.013 326.655C534.374 327.049 533.665 327.245 532.886 327.245ZM532.886 324.644C533.321 324.644 533.701 324.469 534.023 324.118C534.346 323.76 534.508 323.36 534.508 322.917L534.487 316.084C534.487 315.606 534.336 315.203 534.034 314.873C533.732 314.543 533.35 314.378 532.886 314.378C532.444 314.378 532.065 314.539 531.749 314.862C531.433 315.185 531.275 315.592 531.275 316.084V322.917C531.275 323.388 531.433 323.795 531.749 324.139C532.065 324.476 532.444 324.644 532.886 324.644ZM542.721 327.245C541.963 327.245 541.261 327.049 540.615 326.655C539.969 326.262 539.453 325.736 539.067 325.076C538.688 324.409 538.499 323.683 538.499 322.896L538.541 312.114C538.541 312.058 538.569 312.03 538.625 312.03H541.047C541.103 312.03 541.131 312.058 541.131 312.114V322.896C541.131 323.381 541.285 323.795 541.594 324.139C541.903 324.476 542.279 324.644 542.721 324.644C543.184 324.644 543.57 324.476 543.879 324.139C544.188 323.795 544.342 323.381 544.342 322.896V312.114C544.342 312.058 544.371 312.03 544.427 312.03H546.849C546.905 312.03 546.933 312.058 546.933 312.114L546.975 322.896C546.975 323.69 546.785 324.42 546.406 325.087C546.02 325.746 545.508 326.273 544.869 326.666C544.23 327.052 543.514 327.245 542.721 327.245ZM550.945 317.095H548.828C548.772 317.095 548.744 317.06 548.744 316.989L549.091 312.114C549.105 312.058 549.14 312.03 549.197 312.03H551.334C551.404 312.03 551.432 312.058 551.418 312.114L551.008 317.031C551.008 317.074 550.987 317.095 550.945 317.095ZM558.273 327.035H555.662C555.599 327.035 555.564 326.999 555.556 326.929L552.577 312.114C552.563 312.058 552.591 312.03 552.661 312.03H555.104C555.16 312.03 555.195 312.058 555.209 312.114L556.978 321.991L558.705 312.114C558.719 312.058 558.754 312.03 558.81 312.03H561.221C561.299 312.03 561.327 312.058 561.306 312.114L558.378 326.929C558.371 326.999 558.336 327.035 558.273 327.035ZM569.624 327.035H562.653C562.597 327.035 562.569 326.999 562.569 326.929L562.59 312.114C562.59 312.058 562.618 312.03 562.675 312.03H569.603C569.659 312.03 569.687 312.065 569.687 312.135V314.546C569.687 314.603 569.659 314.631 569.603 314.631H565.181V318H569.603C569.659 318 569.687 318.028 569.687 318.084L569.708 320.527C569.708 320.583 569.68 320.611 569.624 320.611H565.181V324.381H569.624C569.68 324.381 569.708 324.416 569.708 324.486V326.95C569.708 327.006 569.68 327.035 569.624 327.035ZM378.438 366.035H374.574C374.518 366.035 374.49 365.999 374.49 365.929L374.532 351.114C374.532 351.058 374.56 351.03 374.616 351.03H378.765C379.572 351.03 380.305 351.226 380.965 351.62C381.611 352.013 382.12 352.536 382.492 353.188C382.864 353.834 383.05 354.536 383.05 355.294C383.05 355.912 382.91 356.488 382.629 357.021C382.348 357.555 382.015 357.986 381.629 358.316C382.043 358.731 382.366 359.211 382.597 359.759C382.829 360.306 382.945 360.882 382.945 361.486C382.945 362.321 382.745 363.083 382.345 363.771C381.938 364.459 381.394 365.01 380.713 365.424C380.032 365.831 379.274 366.035 378.438 366.035ZM378.765 353.589H377.122V356.979H378.765C379.263 356.979 379.667 356.804 379.976 356.453C380.284 356.095 380.439 355.709 380.439 355.294C380.439 354.838 380.274 354.441 379.944 354.105C379.614 353.761 379.221 353.589 378.765 353.589ZM378.438 359.59H377.122L377.101 363.402H378.438C378.958 363.402 379.403 363.213 379.775 362.834C380.148 362.454 380.334 362.005 380.334 361.486C380.334 360.966 380.148 360.521 379.775 360.149C379.403 359.776 378.958 359.59 378.438 359.59ZM391.548 366.035H384.577C384.521 366.035 384.493 365.999 384.493 365.929L384.514 351.114C384.514 351.058 384.542 351.03 384.598 351.03H391.526C391.583 351.03 391.611 351.065 391.611 351.135V353.546C391.611 353.603 391.583 353.631 391.526 353.631H387.104V357H391.526C391.583 357 391.611 357.028 391.611 357.084L391.632 359.527C391.632 359.583 391.604 359.611 391.548 359.611H387.104V363.381H391.548C391.604 363.381 391.632 363.416 391.632 363.486V365.95C391.632 366.006 391.604 366.035 391.548 366.035ZM400.603 366.035H393.632C393.576 366.035 393.548 365.999 393.548 365.929L393.569 351.114C393.569 351.058 393.597 351.03 393.653 351.03H400.582C400.638 351.03 400.666 351.065 400.666 351.135V353.546C400.666 353.603 400.638 353.631 400.582 353.631H396.16V357H400.582C400.638 357 400.666 357.028 400.666 357.084L400.687 359.527C400.687 359.583 400.659 359.611 400.603 359.611H396.16V363.381H400.603C400.659 363.381 400.687 363.416 400.687 363.486V365.95C400.687 366.006 400.659 366.035 400.603 366.035ZM404.952 366.035H402.793C402.681 366.035 402.625 365.985 402.625 365.887L402.604 351.198C402.604 351.086 402.66 351.03 402.772 351.03H404.72L408.363 359.527L408.258 351.198C408.258 351.086 408.321 351.03 408.448 351.03H410.585C410.669 351.03 410.711 351.086 410.711 351.198L410.732 365.908C410.732 365.992 410.697 366.035 410.627 366.035H408.732L404.994 358.095L405.152 365.866C405.152 365.978 405.085 366.035 404.952 366.035ZM421.873 366.245C421.108 366.245 420.402 366.049 419.756 365.655C419.118 365.262 418.605 364.739 418.219 364.087C417.84 363.427 417.65 362.704 417.65 361.917V360.928C417.65 360.85 417.686 360.812 417.756 360.812H420.178C420.234 360.812 420.262 360.85 420.262 360.928V361.917C420.262 362.388 420.42 362.795 420.736 363.139C421.051 363.476 421.431 363.644 421.873 363.644C422.322 363.644 422.705 363.472 423.021 363.128C423.336 362.777 423.494 362.374 423.494 361.917C423.494 361.391 423.15 360.931 422.462 360.538C422.35 360.468 422.203 360.384 422.02 360.285C421.845 360.18 421.634 360.061 421.388 359.927C421.143 359.794 420.904 359.664 420.672 359.538C420.441 359.404 420.216 359.278 419.999 359.159C419.212 358.695 418.626 358.116 418.24 357.421C417.861 356.719 417.671 355.933 417.671 355.063C417.671 354.262 417.868 353.539 418.261 352.894C418.654 352.255 419.167 351.749 419.798 351.377C420.437 350.998 421.129 350.809 421.873 350.809C422.638 350.809 423.34 350.998 423.979 351.377C424.617 351.763 425.126 352.276 425.505 352.915C425.892 353.553 426.085 354.269 426.085 355.063V356.832C426.085 356.888 426.057 356.916 426 356.916H423.579C423.522 356.916 423.494 356.888 423.494 356.832L423.473 355.063C423.473 354.557 423.315 354.147 422.999 353.831C422.684 353.515 422.308 353.357 421.873 353.357C421.431 353.357 421.051 353.525 420.736 353.862C420.42 354.199 420.262 354.599 420.262 355.063C420.262 355.533 420.36 355.926 420.557 356.242C420.76 356.558 421.129 356.86 421.662 357.148C421.718 357.176 421.848 357.246 422.052 357.358C422.255 357.47 422.48 357.597 422.726 357.737C422.978 357.871 423.207 357.993 423.41 358.106C423.614 358.211 423.737 358.274 423.779 358.295C424.495 358.695 425.06 359.187 425.474 359.769C425.895 360.352 426.106 361.068 426.106 361.917C426.106 362.739 425.916 363.476 425.537 364.129C425.151 364.782 424.639 365.297 424 365.677C423.361 366.056 422.652 366.245 421.873 366.245ZM434.656 366.035H427.685C427.629 366.035 427.601 365.999 427.601 365.929L427.622 351.114C427.622 351.058 427.65 351.03 427.706 351.03H434.635C434.691 351.03 434.719 351.065 434.719 351.135V353.546C434.719 353.603 434.691 353.631 434.635 353.631H430.212V357H434.635C434.691 357 434.719 357.028 434.719 357.084L434.74 359.527C434.74 359.583 434.712 359.611 434.656 359.611H430.212V363.381H434.656C434.712 363.381 434.74 363.416 434.74 363.486V365.95C434.74 366.006 434.712 366.035 434.656 366.035ZM443.711 366.035H436.741C436.684 366.035 436.656 365.999 436.656 365.929L436.677 351.135C436.677 351.065 436.712 351.03 436.783 351.03H439.183C439.254 351.03 439.289 351.065 439.289 351.135L439.268 363.381H443.711C443.781 363.381 443.816 363.416 443.816 363.486V365.929C443.816 365.999 443.781 366.035 443.711 366.035ZM452.282 366.035H445.312C445.255 366.035 445.227 365.999 445.227 365.929L445.248 351.114C445.248 351.058 445.277 351.03 445.333 351.03H452.261C452.317 351.03 452.345 351.065 452.345 351.135V353.546C452.345 353.603 452.317 353.631 452.261 353.631H447.839V357H452.261C452.317 357 452.345 357.028 452.345 357.084L452.366 359.527C452.366 359.583 452.338 359.611 452.282 359.611H447.839V363.381H452.282C452.338 363.381 452.366 363.416 452.366 363.486V365.95C452.366 366.006 452.338 366.035 452.282 366.035ZM458.253 366.245C457.473 366.245 456.761 366.049 456.115 365.655C455.476 365.262 454.967 364.736 454.588 364.076C454.216 363.409 454.03 362.669 454.03 361.854L454.051 355.126C454.051 354.326 454.234 353.603 454.599 352.957C454.964 352.304 455.466 351.781 456.104 351.388C456.75 350.988 457.466 350.788 458.253 350.788C459.053 350.788 459.765 350.981 460.39 351.367C461.022 351.753 461.524 352.276 461.896 352.936C462.275 353.589 462.464 354.319 462.464 355.126V356.116C462.464 356.172 462.436 356.2 462.38 356.2H459.958C459.902 356.2 459.874 356.172 459.874 356.116V355.126C459.874 354.649 459.72 354.238 459.411 353.894C459.102 353.55 458.716 353.378 458.253 353.378C457.74 353.378 457.347 353.553 457.073 353.904C456.799 354.255 456.663 354.663 456.663 355.126V361.854C456.663 362.381 456.817 362.812 457.126 363.149C457.435 363.479 457.81 363.644 458.253 363.644C458.716 363.644 459.102 363.462 459.411 363.097C459.72 362.725 459.874 362.311 459.874 361.854V360.854C459.874 360.798 459.902 360.77 459.958 360.77H462.401C462.457 360.77 462.485 360.798 462.485 360.854V361.854C462.485 362.662 462.296 363.399 461.917 364.066C461.531 364.725 461.022 365.255 460.39 365.655C459.758 366.049 459.046 366.245 458.253 366.245ZM468.656 366.035H466.223C466.16 366.035 466.129 365.999 466.129 365.929V353.631H463.328C463.258 353.631 463.222 353.596 463.222 353.525L463.244 351.114C463.244 351.058 463.272 351.03 463.328 351.03H471.52C471.597 351.03 471.636 351.058 471.636 351.114V353.525C471.636 353.596 471.608 353.631 471.551 353.631H468.719L468.74 365.929C468.74 365.999 468.712 366.035 468.656 366.035ZM479.743 366.035H472.773C472.717 366.035 472.689 365.999 472.689 365.929L472.71 351.114C472.71 351.058 472.738 351.03 472.794 351.03H479.722C479.779 351.03 479.807 351.065 479.807 351.135V353.546C479.807 353.603 479.779 353.631 479.722 353.631H475.3V357H479.722C479.779 357 479.807 357.028 479.807 357.084L479.828 359.527C479.828 359.583 479.8 359.611 479.743 359.611H475.3V363.381H479.743C479.8 363.381 479.828 363.416 479.828 363.486V365.95C479.828 366.006 479.8 366.035 479.743 366.035ZM485.714 366.013L481.849 366.035C481.779 366.035 481.744 365.999 481.744 365.929L481.786 351.114C481.786 351.058 481.814 351.03 481.87 351.03L485.903 351.009C486.703 350.988 487.427 351.17 488.072 351.556C488.725 351.942 489.245 352.465 489.631 353.125C490.024 353.778 490.22 354.501 490.22 355.294V361.486C490.22 362.314 490.02 363.072 489.62 363.76C489.213 364.441 488.673 364.985 487.999 365.392C487.325 365.792 486.563 365.999 485.714 366.013ZM485.903 353.589L484.398 353.61L484.376 363.381H485.714C486.247 363.381 486.696 363.195 487.061 362.823C487.427 362.451 487.609 362.005 487.609 361.486V355.273C487.609 354.817 487.441 354.42 487.104 354.083C486.767 353.739 486.367 353.575 485.903 353.589ZM502.119 366.035H499.686C499.623 366.035 499.592 365.999 499.592 365.929V353.631H496.791C496.721 353.631 496.686 353.596 496.686 353.525L496.707 351.114C496.707 351.058 496.735 351.03 496.791 351.03H504.983C505.06 351.03 505.099 351.058 505.099 351.114V353.525C505.099 353.596 505.071 353.631 505.014 353.631H502.182L502.203 365.929C502.203 365.999 502.175 366.035 502.119 366.035ZM510.142 366.245C509.377 366.245 508.672 366.049 508.026 365.655C507.387 365.262 506.871 364.739 506.478 364.087C506.092 363.427 505.899 362.704 505.899 361.917L505.92 355.084C505.92 354.284 506.113 353.564 506.499 352.925C506.878 352.279 507.391 351.763 508.036 351.377C508.682 350.984 509.384 350.788 510.142 350.788C510.929 350.788 511.634 350.981 512.259 351.367C512.891 351.753 513.396 352.272 513.775 352.925C514.161 353.571 514.354 354.291 514.354 355.084L514.375 361.917C514.375 362.704 514.186 363.423 513.807 364.076C513.421 364.736 512.908 365.262 512.269 365.655C511.631 366.049 510.922 366.245 510.142 366.245ZM510.142 363.644C510.578 363.644 510.957 363.469 511.28 363.118C511.602 362.76 511.764 362.36 511.764 361.917L511.743 355.084C511.743 354.606 511.592 354.203 511.29 353.873C510.988 353.543 510.606 353.378 510.142 353.378C509.7 353.378 509.321 353.539 509.005 353.862C508.689 354.185 508.531 354.592 508.531 355.084V361.917C508.531 362.388 508.689 362.795 509.005 363.139C509.321 363.476 509.7 363.644 510.142 363.644ZM524.136 366.035H521.693C521.637 366.035 521.609 365.999 521.609 365.929L521.651 351.114C521.651 351.058 521.679 351.03 521.735 351.03H526.095C526.874 351.03 527.59 351.219 528.243 351.598C528.896 351.978 529.415 352.486 529.801 353.125C530.194 353.764 530.391 354.487 530.391 355.294C530.391 355.821 530.31 356.298 530.149 356.726C529.987 357.155 529.798 357.516 529.58 357.811C529.369 358.106 529.176 358.323 529.001 358.464C529.78 359.327 530.17 360.342 530.17 361.507L530.191 365.929C530.191 365.999 530.156 366.035 530.085 366.035H527.643C527.586 366.035 527.558 366.013 527.558 365.971V361.507C527.558 360.987 527.376 360.538 527.011 360.159C526.646 359.78 526.196 359.59 525.663 359.59H524.241L524.22 365.929C524.22 365.999 524.192 366.035 524.136 366.035ZM526.095 353.61H524.241V357H526.095C526.537 357 526.93 356.835 527.274 356.505C527.625 356.175 527.8 355.772 527.8 355.294C527.8 354.838 527.632 354.445 527.295 354.115C526.958 353.778 526.558 353.61 526.095 353.61ZM539.067 366.035H532.097C532.04 366.035 532.012 365.999 532.012 365.929L532.033 351.114C532.033 351.058 532.061 351.03 532.118 351.03H539.046C539.102 351.03 539.13 351.065 539.13 351.135V353.546C539.13 353.603 539.102 353.631 539.046 353.631H534.624V357H539.046C539.102 357 539.13 357.028 539.13 357.084L539.151 359.527C539.151 359.583 539.123 359.611 539.067 359.611H534.624V363.381H539.067C539.123 363.381 539.151 363.416 539.151 363.486V365.95C539.151 366.006 539.123 366.035 539.067 366.035ZM545.037 366.245C544.258 366.245 543.546 366.049 542.9 365.655C542.261 365.262 541.752 364.736 541.373 364.076C541.001 363.409 540.815 362.669 540.815 361.854L540.836 355.126C540.836 354.326 541.019 353.603 541.384 352.957C541.749 352.304 542.251 351.781 542.889 351.388C543.535 350.988 544.251 350.788 545.037 350.788C545.838 350.788 546.55 350.981 547.175 351.367C547.807 351.753 548.309 352.276 548.681 352.936C549.06 353.589 549.249 354.319 549.249 355.126V356.116C549.249 356.172 549.221 356.2 549.165 356.2H546.743C546.687 356.2 546.659 356.172 546.659 356.116V355.126C546.659 354.649 546.505 354.238 546.196 353.894C545.887 353.55 545.501 353.378 545.037 353.378C544.525 353.378 544.132 353.553 543.858 353.904C543.584 354.255 543.447 354.663 543.447 355.126V361.854C543.447 362.381 543.602 362.812 543.911 363.149C544.22 363.479 544.595 363.644 545.037 363.644C545.501 363.644 545.887 363.462 546.196 363.097C546.505 362.725 546.659 362.311 546.659 361.854V360.854C546.659 360.798 546.687 360.77 546.743 360.77H549.186C549.242 360.77 549.27 360.798 549.27 360.854V361.854C549.27 362.662 549.081 363.399 548.702 364.066C548.316 364.725 547.807 365.255 547.175 365.655C546.543 366.049 545.831 366.245 545.037 366.245ZM557.894 366.035H550.923C550.867 366.035 550.839 365.999 550.839 365.929L550.86 351.114C550.86 351.058 550.888 351.03 550.945 351.03H557.873C557.929 351.03 557.957 351.065 557.957 351.135V353.546C557.957 353.603 557.929 353.631 557.873 353.631H553.451V357H557.873C557.929 357 557.957 357.028 557.957 357.084L557.978 359.527C557.978 359.583 557.95 359.611 557.894 359.611H553.451V363.381H557.894C557.95 363.381 557.978 363.416 557.978 363.486V365.95C557.978 366.006 557.95 366.035 557.894 366.035ZM562.443 366.035H560C559.93 366.035 559.895 365.999 559.895 365.929L559.916 351.114C559.916 351.058 559.944 351.03 560 351.03H562.422C562.478 351.03 562.506 351.058 562.506 351.114L562.527 365.929C562.527 365.999 562.499 366.035 562.443 366.035ZM569.456 366.035H566.844C566.781 366.035 566.746 365.999 566.739 365.929L563.759 351.114C563.745 351.058 563.773 351.03 563.843 351.03H566.286C566.342 351.03 566.377 351.058 566.391 351.114L568.16 360.991L569.887 351.114C569.901 351.058 569.936 351.03 569.993 351.03H572.404C572.481 351.03 572.509 351.058 572.488 351.114L569.561 365.929C569.554 365.999 569.519 366.035 569.456 366.035ZM580.806 366.035H573.836C573.78 366.035 573.752 365.999 573.752 365.929L573.773 351.114C573.773 351.058 573.801 351.03 573.857 351.03H580.785C580.842 351.03 580.87 351.065 580.87 351.135V353.546C580.87 353.603 580.842 353.631 580.785 353.631H576.363V357H580.785C580.842 357 580.87 357.028 580.87 357.084L580.891 359.527C580.891 359.583 580.863 359.611 580.806 359.611H576.363V363.381H580.806C580.863 363.381 580.891 363.416 580.891 363.486V365.95C580.891 366.006 580.863 366.035 580.806 366.035ZM587.682 365.929L590.357 351.114C590.371 351.058 590.406 351.03 590.462 351.03H593.589C593.646 351.03 593.681 351.058 593.695 351.114L596.264 365.929C596.271 365.999 596.243 366.035 596.18 366.035H593.789C593.719 366.035 593.681 365.999 593.674 365.929L593.442 364.35H590.504L590.273 365.929C590.266 365.999 590.23 366.035 590.167 366.035H587.767C587.71 366.035 587.682 365.999 587.682 365.929ZM591.905 355.989L590.936 362.044H593.01L592.126 355.989L591.999 355.189L591.905 355.989ZM377.017 405.035H374.595C374.525 405.035 374.49 404.999 374.49 404.929L374.532 390.114C374.532 390.058 374.56 390.03 374.616 390.03H381.523C381.594 390.03 381.629 390.058 381.629 390.114V392.546C381.629 392.603 381.601 392.631 381.544 392.631H377.122V395.979H381.544C381.601 395.979 381.629 396.014 381.629 396.084L381.65 398.527C381.65 398.583 381.615 398.611 381.544 398.611H377.122V404.929C377.122 404.999 377.087 405.035 377.017 405.035ZM390.621 405.035H383.65C383.594 405.035 383.566 404.999 383.566 404.929L383.587 390.135C383.587 390.065 383.622 390.03 383.692 390.03H386.093C386.163 390.03 386.199 390.065 386.199 390.135L386.177 402.381H390.621C390.691 402.381 390.726 402.416 390.726 402.486V404.929C390.726 404.999 390.691 405.035 390.621 405.035ZM391.411 404.929L394.085 390.114C394.099 390.058 394.134 390.03 394.19 390.03H397.318C397.374 390.03 397.409 390.058 397.423 390.114L399.992 404.929C399.999 404.999 399.971 405.035 399.908 405.035H397.518C397.448 405.035 397.409 404.999 397.402 404.929L397.17 403.35H394.233L394.001 404.929C393.994 404.999 393.959 405.035 393.896 405.035H391.495C391.439 405.035 391.411 404.999 391.411 404.929ZM395.633 394.989L394.664 401.044H396.739L395.854 394.989L395.728 394.189L395.633 394.989ZM405.004 405.245C404.239 405.245 403.534 405.049 402.888 404.655C402.249 404.262 401.737 403.739 401.351 403.087C400.972 402.427 400.782 401.704 400.782 400.917V399.928C400.782 399.85 400.817 399.812 400.887 399.812H403.309C403.365 399.812 403.393 399.85 403.393 399.928V400.917C403.393 401.388 403.551 401.795 403.867 402.139C404.183 402.476 404.562 402.644 405.004 402.644C405.454 402.644 405.836 402.472 406.152 402.128C406.468 401.777 406.626 401.374 406.626 400.917C406.626 400.391 406.282 399.931 405.594 399.538C405.482 399.468 405.334 399.384 405.152 399.285C404.976 399.18 404.766 399.061 404.52 398.927C404.274 398.794 404.036 398.664 403.804 398.538C403.572 398.404 403.348 398.278 403.13 398.159C402.344 397.695 401.758 397.116 401.372 396.421C400.993 395.719 400.803 394.933 400.803 394.063C400.803 393.262 401 392.539 401.393 391.894C401.786 391.255 402.298 390.749 402.93 390.377C403.569 389.998 404.26 389.809 405.004 389.809C405.77 389.809 406.471 389.998 407.11 390.377C407.749 390.763 408.258 391.276 408.637 391.915C409.023 392.553 409.216 393.269 409.216 394.063V395.832C409.216 395.888 409.188 395.916 409.132 395.916H406.71C406.654 395.916 406.626 395.888 406.626 395.832L406.605 394.063C406.605 393.557 406.447 393.147 406.131 392.831C405.815 392.515 405.44 392.357 405.004 392.357C404.562 392.357 404.183 392.525 403.867 392.862C403.551 393.199 403.393 393.599 403.393 394.063C403.393 394.533 403.492 394.926 403.688 395.242C403.892 395.558 404.26 395.86 404.794 396.148C404.85 396.176 404.98 396.246 405.183 396.358C405.387 396.47 405.612 396.597 405.857 396.737C406.11 396.871 406.338 396.993 406.542 397.106C406.745 397.211 406.868 397.274 406.91 397.295C407.626 397.695 408.191 398.187 408.605 398.769C409.027 399.352 409.237 400.068 409.237 400.917C409.237 401.739 409.048 402.476 408.669 403.129C408.283 403.782 407.77 404.297 407.131 404.677C406.493 405.056 405.784 405.245 405.004 405.245ZM413.26 405.035H410.817C410.761 405.035 410.732 404.999 410.732 404.929L410.754 390.114C410.754 390.058 410.789 390.03 410.859 390.03H413.26C413.33 390.03 413.365 390.058 413.365 390.114L413.344 395.979H416.576V390.114C416.576 390.058 416.604 390.03 416.661 390.03H419.061C419.132 390.03 419.167 390.058 419.167 390.114L419.209 404.929C419.209 404.999 419.174 405.035 419.104 405.035H416.682C416.611 405.035 416.576 404.999 416.576 404.929V398.59H413.344V404.929C413.344 404.999 413.316 405.035 413.26 405.035ZM429.117 405.035H426.674C426.604 405.035 426.569 404.999 426.569 404.929L426.59 390.114C426.59 390.058 426.618 390.03 426.674 390.03H429.096C429.152 390.03 429.18 390.058 429.18 390.114L429.201 404.929C429.201 404.999 429.173 405.035 429.117 405.035ZM433.445 405.035H431.286C431.174 405.035 431.118 404.985 431.118 404.887L431.097 390.198C431.097 390.086 431.153 390.03 431.265 390.03H433.213L436.856 398.527L436.751 390.198C436.751 390.086 436.814 390.03 436.941 390.03H439.078C439.162 390.03 439.204 390.086 439.204 390.198L439.226 404.908C439.226 404.992 439.19 405.035 439.12 405.035H437.225L433.487 397.095L433.645 404.866C433.645 404.978 433.578 405.035 433.445 405.035ZM446.133 405.035H443.522C443.458 405.035 443.423 404.999 443.416 404.929L440.436 390.114C440.422 390.058 440.45 390.03 440.521 390.03H442.964C443.02 390.03 443.055 390.058 443.069 390.114L444.838 399.991L446.565 390.114C446.579 390.058 446.614 390.03 446.67 390.03H449.081C449.158 390.03 449.187 390.058 449.165 390.114L446.238 404.929C446.231 404.999 446.196 405.035 446.133 405.035ZM457.484 405.035H450.513C450.457 405.035 450.429 404.999 450.429 404.929L450.45 390.114C450.45 390.058 450.478 390.03 450.534 390.03H457.463C457.519 390.03 457.547 390.065 457.547 390.135V392.546C457.547 392.603 457.519 392.631 457.463 392.631H453.04V396H457.463C457.519 396 457.547 396.028 457.547 396.084L457.568 398.527C457.568 398.583 457.54 398.611 457.484 398.611H453.04V402.381H457.484C457.54 402.381 457.568 402.416 457.568 402.486V404.95C457.568 405.006 457.54 405.035 457.484 405.035ZM463.149 405.245C462.384 405.245 461.678 405.049 461.032 404.655C460.394 404.262 459.881 403.739 459.495 403.087C459.116 402.427 458.926 401.704 458.926 400.917V399.928C458.926 399.85 458.962 399.812 459.032 399.812H461.454C461.51 399.812 461.538 399.85 461.538 399.928V400.917C461.538 401.388 461.696 401.795 462.012 402.139C462.327 402.476 462.707 402.644 463.149 402.644C463.598 402.644 463.981 402.472 464.297 402.128C464.612 401.777 464.77 401.374 464.77 400.917C464.77 400.391 464.426 399.931 463.738 399.538C463.626 399.468 463.479 399.384 463.296 399.285C463.121 399.18 462.91 399.061 462.664 398.927C462.419 398.794 462.18 398.664 461.948 398.538C461.717 398.404 461.492 398.278 461.275 398.159C460.488 397.695 459.902 397.116 459.516 396.421C459.137 395.719 458.947 394.933 458.947 394.063C458.947 393.262 459.144 392.539 459.537 391.894C459.93 391.255 460.443 390.749 461.074 390.377C461.713 389.998 462.405 389.809 463.149 389.809C463.914 389.809 464.616 389.998 465.255 390.377C465.894 390.763 466.402 391.276 466.781 391.915C467.168 392.553 467.361 393.269 467.361 394.063V395.832C467.361 395.888 467.333 395.916 467.276 395.916H464.855C464.798 395.916 464.77 395.888 464.77 395.832L464.749 394.063C464.749 393.557 464.591 393.147 464.275 392.831C463.96 392.515 463.584 392.357 463.149 392.357C462.707 392.357 462.327 392.525 462.012 392.862C461.696 393.199 461.538 393.599 461.538 394.063C461.538 394.533 461.636 394.926 461.833 395.242C462.036 395.558 462.405 395.86 462.938 396.148C462.994 396.176 463.124 396.246 463.328 396.358C463.531 396.47 463.756 396.597 464.002 396.737C464.254 396.871 464.483 396.993 464.686 397.106C464.89 397.211 465.013 397.274 465.055 397.295C465.771 397.695 466.336 398.187 466.75 398.769C467.171 399.352 467.382 400.068 467.382 400.917C467.382 401.739 467.192 402.476 466.813 403.129C466.427 403.782 465.915 404.297 465.276 404.677C464.637 405.056 463.928 405.245 463.149 405.245ZM473.478 405.035H471.046C470.983 405.035 470.951 404.999 470.951 404.929V392.631H468.15C468.08 392.631 468.045 392.596 468.045 392.525L468.066 390.114C468.066 390.058 468.094 390.03 468.15 390.03H476.342C476.42 390.03 476.458 390.058 476.458 390.114V392.525C476.458 392.596 476.43 392.631 476.374 392.631H473.541L473.563 404.929C473.563 404.999 473.534 405.035 473.478 405.035ZM480.038 405.035H477.595C477.539 405.035 477.511 404.999 477.511 404.929L477.553 390.114C477.553 390.058 477.581 390.03 477.638 390.03H480.27C480.326 390.03 480.375 390.058 480.417 390.114L482.386 392.957L484.345 390.114C484.387 390.058 484.44 390.03 484.503 390.03H487.146C487.209 390.03 487.24 390.058 487.24 390.114L487.283 404.929C487.283 404.999 487.255 405.035 487.198 405.035H484.756C484.699 405.035 484.671 404.999 484.671 404.929L484.65 393.926L482.386 397.211L480.144 393.926L480.122 404.929C480.122 404.999 480.094 405.035 480.038 405.035ZM496.149 405.035H489.178C489.122 405.035 489.094 404.999 489.094 404.929L489.115 390.114C489.115 390.058 489.143 390.03 489.199 390.03H496.127C496.184 390.03 496.212 390.065 496.212 390.135V392.546C496.212 392.603 496.184 392.631 496.127 392.631H491.705V396H496.127C496.184 396 496.212 396.028 496.212 396.084L496.233 398.527C496.233 398.583 496.205 398.611 496.149 398.611H491.705V402.381H496.149C496.205 402.381 496.233 402.416 496.233 402.486V404.95C496.233 405.006 496.205 405.035 496.149 405.035ZM500.497 405.035H498.339C498.226 405.035 498.17 404.985 498.17 404.887L498.149 390.198C498.149 390.086 498.205 390.03 498.318 390.03H500.266L503.909 398.527L503.804 390.198C503.804 390.086 503.867 390.03 503.993 390.03H506.131C506.215 390.03 506.257 390.086 506.257 390.198L506.278 404.908C506.278 404.992 506.243 405.035 506.173 405.035H504.277L500.539 397.095L500.697 404.866C500.697 404.978 500.631 405.035 500.497 405.035ZM512.754 405.035H510.321C510.258 405.035 510.227 404.999 510.227 404.929V392.631H507.426C507.356 392.631 507.32 392.596 507.32 392.525L507.341 390.114C507.341 390.058 507.37 390.03 507.426 390.03H515.618C515.695 390.03 515.734 390.058 515.734 390.114V392.525C515.734 392.596 515.705 392.631 515.649 392.631H512.817L512.838 404.929C512.838 404.999 512.81 405.035 512.754 405.035ZM516.787 407.751V406.414C517.145 406.414 517.45 406.277 517.703 406.003C517.955 405.729 518.082 405.407 518.082 405.035H516.871C516.815 405.035 516.787 405.006 516.787 404.95V402.529C516.787 402.472 516.815 402.444 516.871 402.444H519.314C519.37 402.444 519.398 402.472 519.398 402.529V405.035C519.398 405.54 519.275 406 519.029 406.414C518.784 406.828 518.464 407.155 518.071 407.393C517.678 407.632 517.25 407.751 516.787 407.751ZM531.37 405.035H528.938C528.874 405.035 528.843 404.999 528.843 404.929V392.631H526.042C525.972 392.631 525.937 392.596 525.937 392.525L525.958 390.114C525.958 390.058 525.986 390.03 526.042 390.03H534.234C534.311 390.03 534.35 390.058 534.35 390.114V392.525C534.35 392.596 534.322 392.631 534.266 392.631H531.433L531.454 404.929C531.454 404.999 531.426 405.035 531.37 405.035ZM539.373 405.245C538.614 405.245 537.912 405.049 537.267 404.655C536.621 404.262 536.105 403.736 535.719 403.076C535.34 402.409 535.15 401.683 535.15 400.896L535.192 390.114C535.192 390.058 535.22 390.03 535.276 390.03H537.698C537.754 390.03 537.783 390.058 537.783 390.114V400.896C537.783 401.381 537.937 401.795 538.246 402.139C538.555 402.476 538.93 402.644 539.373 402.644C539.836 402.644 540.222 402.476 540.531 402.139C540.84 401.795 540.994 401.381 540.994 400.896V390.114C540.994 390.058 541.022 390.03 541.078 390.03H543.5C543.556 390.03 543.584 390.058 543.584 390.114L543.626 400.896C543.626 401.69 543.437 402.42 543.058 403.087C542.672 403.746 542.159 404.273 541.521 404.666C540.882 405.052 540.166 405.245 539.373 405.245ZM547.849 405.035H545.406C545.35 405.035 545.322 404.999 545.322 404.929L545.364 390.114C545.364 390.058 545.392 390.03 545.448 390.03H549.807C550.587 390.03 551.303 390.219 551.955 390.598C552.608 390.978 553.128 391.486 553.514 392.125C553.907 392.764 554.103 393.487 554.103 394.294C554.103 394.821 554.023 395.298 553.861 395.726C553.7 396.155 553.51 396.516 553.293 396.811C553.082 397.106 552.889 397.323 552.713 397.464C553.493 398.327 553.882 399.342 553.882 400.507L553.903 404.929C553.903 404.999 553.868 405.035 553.798 405.035H551.355C551.299 405.035 551.271 405.013 551.271 404.971V400.507C551.271 399.987 551.088 399.538 550.723 399.159C550.358 398.78 549.909 398.59 549.376 398.59H547.954L547.933 404.929C547.933 404.999 547.905 405.035 547.849 405.035ZM549.807 392.61H547.954V396H549.807C550.25 396 550.643 395.835 550.987 395.505C551.338 395.175 551.513 394.772 551.513 394.294C551.513 393.838 551.345 393.445 551.008 393.115C550.671 392.778 550.271 392.61 549.807 392.61ZM558.073 405.035H555.914C555.802 405.035 555.746 404.985 555.746 404.887L555.725 390.198C555.725 390.086 555.781 390.03 555.893 390.03H557.841L561.485 398.527L561.379 390.198C561.379 390.086 561.443 390.03 561.569 390.03H563.706C563.791 390.03 563.833 390.086 563.833 390.198L563.854 404.908C563.854 404.992 563.819 405.035 563.749 405.035H561.853L558.115 397.095L558.273 404.866C558.273 404.978 558.206 405.035 558.073 405.035ZM568.276 405.035H565.833C565.763 405.035 565.728 404.999 565.728 404.929L565.749 390.114C565.749 390.058 565.777 390.03 565.833 390.03H568.255C568.311 390.03 568.339 390.058 568.339 390.114L568.36 404.929C568.36 404.999 568.332 405.035 568.276 405.035ZM572.604 405.035H570.445C570.333 405.035 570.277 404.985 570.277 404.887L570.256 390.198C570.256 390.086 570.312 390.03 570.424 390.03H572.372L576.015 398.527L575.91 390.198C575.91 390.086 575.973 390.03 576.1 390.03H578.237C578.321 390.03 578.364 390.086 578.364 390.198L578.385 404.908C578.385 404.992 578.35 405.035 578.279 405.035H576.384L572.646 397.095L572.804 404.866C572.804 404.978 572.737 405.035 572.604 405.035ZM584.208 405.245C583.428 405.245 582.726 405.052 582.102 404.666C581.47 404.28 580.961 403.76 580.575 403.108C580.196 402.455 580.006 401.725 580.006 400.917V394.084C580.006 393.298 580.199 392.582 580.585 391.936C580.964 391.283 581.473 390.763 582.112 390.377C582.751 389.984 583.449 389.788 584.208 389.788C585.001 389.788 585.717 389.977 586.356 390.356C586.994 390.742 587.5 391.258 587.872 391.904C588.251 392.55 588.44 393.277 588.44 394.084V395.074C588.44 395.13 588.405 395.158 588.335 395.158H585.913C585.857 395.158 585.829 395.13 585.829 395.074V394.252C585.829 393.705 585.675 393.252 585.366 392.894C585.057 392.536 584.671 392.357 584.208 392.357C583.793 392.357 583.425 392.529 583.102 392.873C582.779 393.217 582.618 393.62 582.618 394.084V400.917C582.618 401.388 582.775 401.795 583.091 402.139C583.407 402.476 583.779 402.644 584.208 402.644C584.671 402.644 585.057 402.479 585.366 402.149C585.675 401.812 585.829 401.402 585.829 400.917V399.854H584.323C584.246 399.854 584.208 399.819 584.208 399.749V397.337C584.208 397.267 584.246 397.232 584.323 397.232H588.356C588.412 397.232 588.44 397.267 588.44 397.337V400.917C588.44 401.725 588.251 402.455 587.872 403.108C587.486 403.76 586.977 404.28 586.345 404.666C585.713 405.052 585.001 405.245 584.208 405.245ZM378.986 444.035H376.511C376.462 444.035 376.438 444.006 376.438 443.95L376.459 437.822L373.574 429.114C373.56 429.058 373.581 429.03 373.637 429.03H376.037C376.108 429.03 376.15 429.058 376.164 429.114L377.754 434.916L379.375 429.114C379.389 429.058 379.424 429.03 379.481 429.03H381.902C381.959 429.03 381.98 429.058 381.966 429.114L379.049 437.738L379.07 443.95C379.07 444.006 379.042 444.035 378.986 444.035ZM387.136 444.245C386.371 444.245 385.665 444.049 385.019 443.655C384.38 443.262 383.864 442.739 383.471 442.087C383.085 441.427 382.892 440.704 382.892 439.917L382.913 433.084C382.913 432.284 383.106 431.564 383.492 430.925C383.871 430.279 384.384 429.763 385.03 429.377C385.676 428.984 386.378 428.788 387.136 428.788C387.922 428.788 388.627 428.981 389.252 429.367C389.884 429.753 390.389 430.272 390.768 430.925C391.154 431.571 391.347 432.291 391.347 433.084L391.369 439.917C391.369 440.704 391.179 441.423 390.8 442.076C390.414 442.736 389.901 443.262 389.263 443.655C388.624 444.049 387.915 444.245 387.136 444.245ZM387.136 441.644C387.571 441.644 387.95 441.469 388.273 441.118C388.596 440.76 388.757 440.36 388.757 439.917L388.736 433.084C388.736 432.606 388.585 432.203 388.283 431.873C387.982 431.543 387.599 431.378 387.136 431.378C386.693 431.378 386.314 431.539 385.998 431.862C385.683 432.185 385.525 432.592 385.525 433.084V439.917C385.525 440.388 385.683 440.795 385.998 441.139C386.314 441.476 386.693 441.644 387.136 441.644ZM396.97 444.245C396.212 444.245 395.51 444.049 394.864 443.655C394.219 443.262 393.703 442.736 393.317 442.076C392.937 441.409 392.748 440.683 392.748 439.896L392.79 429.114C392.79 429.058 392.818 429.03 392.874 429.03H395.296C395.352 429.03 395.38 429.058 395.38 429.114V439.896C395.38 440.381 395.535 440.795 395.844 441.139C396.152 441.476 396.528 441.644 396.97 441.644C397.434 441.644 397.82 441.476 398.129 441.139C398.437 440.795 398.592 440.381 398.592 439.896V429.114C398.592 429.058 398.62 429.03 398.676 429.03H401.098C401.154 429.03 401.182 429.058 401.182 429.114L401.224 439.896C401.224 440.69 401.035 441.42 400.656 442.087C400.27 442.746 399.757 443.273 399.118 443.666C398.48 444.052 397.764 444.245 396.97 444.245ZM405.447 444.035H403.004C402.948 444.035 402.92 443.999 402.92 443.929L402.962 429.114C402.962 429.058 402.99 429.03 403.046 429.03H407.405C408.184 429.03 408.9 429.219 409.553 429.598C410.206 429.978 410.725 430.486 411.112 431.125C411.505 431.764 411.701 432.487 411.701 433.294C411.701 433.821 411.62 434.298 411.459 434.726C411.298 435.155 411.108 435.516 410.89 435.811C410.68 436.106 410.487 436.323 410.311 436.464C411.09 437.327 411.48 438.342 411.48 439.507L411.501 443.929C411.501 443.999 411.466 444.035 411.396 444.035H408.953C408.897 444.035 408.869 444.013 408.869 443.971V439.507C408.869 438.987 408.686 438.538 408.321 438.159C407.956 437.78 407.507 437.59 406.973 437.59H405.552L405.531 443.929C405.531 443.999 405.503 444.035 405.447 444.035ZM407.405 431.61H405.552V435H407.405C407.847 435 408.24 434.835 408.584 434.505C408.935 434.175 409.111 433.772 409.111 433.294C409.111 432.838 408.942 432.445 408.605 432.115C408.269 431.778 407.868 431.61 407.405 431.61ZM422.936 444.035H421.062C421.006 444.035 420.978 444.006 420.978 443.95V442.697C420.255 442.48 419.658 442.058 419.188 441.434C418.724 440.809 418.493 440.1 418.493 439.307V438.496C418.493 438.433 418.521 438.401 418.577 438.401H420.546C420.588 438.401 420.609 438.433 420.609 438.496V439.307C420.609 439.686 420.743 440.016 421.009 440.297C421.276 440.577 421.588 440.718 421.946 440.718C422.319 440.718 422.631 440.577 422.884 440.297C423.136 440.016 423.263 439.703 423.263 439.359C423.263 438.91 422.982 438.528 422.42 438.212C422.231 438.099 421.932 437.934 421.525 437.717C421.125 437.499 420.753 437.299 420.409 437.117C419.735 436.738 419.244 436.253 418.935 435.664C418.626 435.074 418.472 434.414 418.472 433.684C418.472 432.877 418.703 432.175 419.167 431.578C419.637 430.981 420.223 430.578 420.925 430.367V429.114C420.925 429.058 420.957 429.03 421.02 429.03H422.894C422.964 429.03 422.999 429.058 422.999 429.114V430.388C423.687 430.599 424.256 431.006 424.705 431.61C425.162 432.213 425.39 432.905 425.39 433.684V435.127C425.39 435.169 425.369 435.19 425.326 435.19H423.347C423.305 435.19 423.284 435.169 423.284 435.127L423.263 433.684C423.263 433.27 423.129 432.936 422.863 432.684C422.596 432.431 422.29 432.305 421.946 432.305C421.588 432.305 421.283 432.441 421.03 432.715C420.778 432.989 420.651 433.312 420.651 433.684C420.651 434.042 420.729 434.347 420.883 434.6C421.044 434.853 421.332 435.102 421.746 435.348L423.536 436.337C424.126 436.653 424.589 437.05 424.926 437.527C425.27 437.998 425.442 438.591 425.442 439.307C425.442 440.128 425.218 440.837 424.768 441.434C424.326 442.03 423.751 442.445 423.042 442.676V443.95C423.042 444.006 423.006 444.035 422.936 444.035ZM429.559 444.035H427.117C427.046 444.035 427.011 443.999 427.011 443.929L427.032 429.114C427.032 429.058 427.06 429.03 427.117 429.03H429.538C429.594 429.03 429.623 429.058 429.623 429.114L429.644 443.929C429.644 443.999 429.616 444.035 429.559 444.035ZM435.961 444.245C435.049 444.245 434.238 444.049 433.529 443.655C432.827 443.262 432.276 442.739 431.876 442.087C431.483 441.427 431.286 440.704 431.286 439.917L431.307 433.084C431.307 432.284 431.507 431.564 431.907 430.925C432.301 430.279 432.848 429.763 433.55 429.377C434.252 428.984 435.056 428.788 435.961 428.788C436.888 428.788 437.695 428.981 438.383 429.367C439.071 429.753 439.612 430.272 440.005 430.925C440.405 431.571 440.605 432.291 440.605 433.084L440.626 439.917C440.626 440.697 440.429 441.416 440.036 442.076C439.636 442.736 439.085 443.262 438.383 443.655C437.688 444.049 436.881 444.245 435.961 444.245ZM438.015 439.917L437.994 433.084C437.994 432.578 437.804 432.168 437.425 431.852C437.053 431.536 436.565 431.378 435.961 431.378C435.344 431.378 434.849 431.536 434.477 431.852C434.105 432.168 433.919 432.578 433.919 433.084V439.917C433.919 440.451 434.105 440.872 434.477 441.181C434.849 441.49 435.344 441.644 435.961 441.644C436.565 441.644 437.056 441.49 437.436 441.181C437.822 440.872 438.015 440.451 438.015 439.917ZM450.408 444.035H447.965C447.895 444.035 447.86 443.999 447.86 443.929L447.881 429.114C447.881 429.058 447.909 429.03 447.965 429.03H450.387C450.443 429.03 450.471 429.058 450.471 429.114L450.492 443.929C450.492 443.999 450.464 444.035 450.408 444.035ZM454.736 444.035H452.577C452.465 444.035 452.409 443.985 452.409 443.887L452.388 429.198C452.388 429.086 452.444 429.03 452.556 429.03H454.504L458.147 437.527L458.042 429.198C458.042 429.086 458.105 429.03 458.231 429.03H460.369C460.453 429.03 460.495 429.086 460.495 429.198L460.516 443.908C460.516 443.992 460.481 444.035 460.411 444.035H458.516L454.778 436.095L454.936 443.866C454.936 443.978 454.869 444.035 454.736 444.035ZM466.992 444.035H464.56C464.497 444.035 464.465 443.999 464.465 443.929V431.631H461.664C461.594 431.631 461.559 431.596 461.559 431.525L461.58 429.114C461.58 429.058 461.608 429.03 461.664 429.03H469.856C469.933 429.03 469.972 429.058 469.972 429.114V431.525C469.972 431.596 469.944 431.631 469.888 431.631H467.055L467.076 443.929C467.076 443.999 467.048 444.035 466.992 444.035ZM475.016 444.245C474.25 444.245 473.545 444.049 472.899 443.655C472.26 443.262 471.744 442.739 471.351 442.087C470.965 441.427 470.772 440.704 470.772 439.917L470.793 433.084C470.793 432.284 470.986 431.564 471.372 430.925C471.751 430.279 472.264 429.763 472.91 429.377C473.556 428.984 474.258 428.788 475.016 428.788C475.802 428.788 476.507 428.981 477.132 429.367C477.764 429.753 478.269 430.272 478.648 430.925C479.034 431.571 479.227 432.291 479.227 433.084L479.249 439.917C479.249 440.704 479.059 441.423 478.68 442.076C478.294 442.736 477.781 443.262 477.143 443.655C476.504 444.049 475.795 444.245 475.016 444.245ZM475.016 441.644C475.451 441.644 475.83 441.469 476.153 441.118C476.476 440.76 476.637 440.36 476.637 439.917L476.616 433.084C476.616 432.606 476.465 432.203 476.163 431.873C475.862 431.543 475.479 431.378 475.016 431.378C474.573 431.378 474.194 431.539 473.878 431.862C473.563 432.185 473.405 432.592 473.405 433.084V439.917C473.405 440.388 473.563 440.795 473.878 441.139C474.194 441.476 474.573 441.644 475.016 441.644ZM490.494 444.035H488.62C488.564 444.035 488.536 444.006 488.536 443.95V442.697C487.813 442.48 487.216 442.058 486.746 441.434C486.282 440.809 486.051 440.1 486.051 439.307V438.496C486.051 438.433 486.079 438.401 486.135 438.401H488.104C488.146 438.401 488.167 438.433 488.167 438.496V439.307C488.167 439.686 488.3 440.016 488.567 440.297C488.834 440.577 489.146 440.718 489.504 440.718C489.876 440.718 490.189 440.577 490.441 440.297C490.694 440.016 490.821 439.703 490.821 439.359C490.821 438.91 490.54 438.528 489.978 438.212C489.789 438.099 489.49 437.934 489.083 437.717C488.683 437.499 488.311 437.299 487.967 437.117C487.293 436.738 486.802 436.253 486.493 435.664C486.184 435.074 486.03 434.414 486.03 433.684C486.03 432.877 486.261 432.175 486.725 431.578C487.195 430.981 487.781 430.578 488.483 430.367V429.114C488.483 429.058 488.515 429.03 488.578 429.03H490.452C490.522 429.03 490.557 429.058 490.557 429.114V430.388C491.245 430.599 491.814 431.006 492.263 431.61C492.719 432.213 492.948 432.905 492.948 433.684V435.127C492.948 435.169 492.926 435.19 492.884 435.19H490.905C490.863 435.19 490.842 435.169 490.842 435.127L490.821 433.684C490.821 433.27 490.687 432.936 490.42 432.684C490.154 432.431 489.848 432.305 489.504 432.305C489.146 432.305 488.841 432.441 488.588 432.715C488.336 432.989 488.209 433.312 488.209 433.684C488.209 434.042 488.286 434.347 488.441 434.6C488.602 434.853 488.89 435.102 489.304 435.348L491.094 436.337C491.684 436.653 492.147 437.05 492.484 437.527C492.828 437.998 493 438.591 493 439.307C493 440.128 492.776 440.837 492.326 441.434C491.884 442.03 491.308 442.445 490.599 442.676V443.95C490.599 444.006 490.564 444.035 490.494 444.035ZM497.117 444.035H494.674C494.604 444.035 494.569 443.999 494.569 443.929L494.59 429.114C494.59 429.058 494.618 429.03 494.674 429.03H497.096C497.152 429.03 497.18 429.058 497.18 429.114L497.201 443.929C497.201 443.999 497.173 444.035 497.117 444.035ZM503.519 444.245C502.607 444.245 501.796 444.049 501.087 443.655C500.385 443.262 499.834 442.739 499.434 442.087C499.041 441.427 498.844 440.704 498.844 439.917L498.865 433.084C498.865 432.284 499.065 431.564 499.465 430.925C499.858 430.279 500.406 429.763 501.108 429.377C501.81 428.984 502.614 428.788 503.519 428.788C504.446 428.788 505.253 428.981 505.941 429.367C506.629 429.753 507.17 430.272 507.563 430.925C507.963 431.571 508.163 432.291 508.163 433.084L508.184 439.917C508.184 440.697 507.987 441.416 507.594 442.076C507.194 442.736 506.643 443.262 505.941 443.655C505.246 444.049 504.439 444.245 503.519 444.245ZM505.573 439.917L505.551 433.084C505.551 432.578 505.362 432.168 504.983 431.852C504.611 431.536 504.123 431.378 503.519 431.378C502.902 431.378 502.407 431.536 502.035 431.852C501.663 432.168 501.477 432.578 501.477 433.084V439.917C501.477 440.451 501.663 440.872 502.035 441.181C502.407 441.49 502.902 441.644 503.519 441.644C504.123 441.644 504.614 441.49 504.993 441.181C505.379 440.872 505.573 440.451 505.573 439.917ZM514.238 444.245C513.326 444.245 512.515 444.049 511.806 443.655C511.104 443.262 510.553 442.739 510.153 442.087C509.76 441.427 509.563 440.704 509.563 439.917L509.584 433.084C509.584 432.284 509.784 431.564 510.184 430.925C510.578 430.279 511.125 429.763 511.827 429.377C512.529 428.984 513.333 428.788 514.238 428.788C515.165 428.788 515.972 428.981 516.66 429.367C517.348 429.753 517.889 430.272 518.282 430.925C518.682 431.571 518.882 432.291 518.882 433.084L518.903 439.917C518.903 440.697 518.706 441.416 518.313 442.076C517.913 442.736 517.362 443.262 516.66 443.655C515.965 444.049 515.158 444.245 514.238 444.245ZM516.292 439.917L516.271 433.084C516.271 432.578 516.081 432.168 515.702 431.852C515.33 431.536 514.842 431.378 514.238 431.378C513.621 431.378 513.126 431.536 512.754 431.852C512.382 432.168 512.196 432.578 512.196 433.084V439.917C512.196 440.451 512.382 440.872 512.754 441.181C513.126 441.49 513.621 441.644 514.238 441.644C514.842 441.644 515.333 441.49 515.713 441.181C516.099 440.872 516.292 440.451 516.292 439.917ZM528.685 444.035H526.242C526.172 444.035 526.137 443.999 526.137 443.929L526.158 429.114C526.158 429.058 526.186 429.03 526.242 429.03H528.664C528.72 429.03 528.748 429.058 528.748 429.114L528.769 443.929C528.769 443.999 528.741 444.035 528.685 444.035ZM533.013 444.035H530.854C530.742 444.035 530.686 443.985 530.686 443.887L530.665 429.198C530.665 429.086 530.721 429.03 530.833 429.03H532.781L536.424 437.527L536.319 429.198C536.319 429.086 536.382 429.03 536.508 429.03H538.646C538.73 429.03 538.772 429.086 538.772 429.198L538.793 443.908C538.793 443.992 538.758 444.035 538.688 444.035H536.793L533.055 436.095L533.213 443.866C533.213 443.978 533.146 444.035 533.013 444.035ZM554.009 444.035H545.964C545.894 444.035 545.859 443.999 545.859 443.929V441.486C545.859 441.458 545.873 441.43 545.901 441.402L551.229 434.095C551.327 433.961 551.408 433.793 551.471 433.589C551.541 433.379 551.576 433.196 551.576 433.042C551.576 432.62 551.425 432.234 551.124 431.883C550.822 431.532 550.439 431.357 549.976 431.357C549.534 431.357 549.158 431.525 548.849 431.862C548.54 432.199 548.386 432.627 548.386 433.147V434.2C548.386 434.27 548.351 434.305 548.281 434.305H545.859C545.803 434.305 545.774 434.27 545.774 434.2V433.147C545.774 432.34 545.975 431.606 546.375 430.946C546.768 430.286 547.284 429.763 547.923 429.377C548.561 428.984 549.246 428.788 549.976 428.788C550.748 428.788 551.453 428.984 552.092 429.377C552.724 429.777 553.229 430.3 553.609 430.946C553.995 431.592 554.188 432.291 554.188 433.042C554.188 433.512 554.103 433.993 553.935 434.484C553.773 434.969 553.549 435.4 553.261 435.779L549.165 441.402H554.009C554.072 441.402 554.103 441.43 554.103 441.486V443.929C554.103 443.999 554.072 444.035 554.009 444.035ZM377.017 483.035H374.574C374.518 483.035 374.49 482.999 374.49 482.929L374.511 468.114C374.511 468.058 374.546 468.03 374.616 468.03H377.017C377.087 468.03 377.122 468.058 377.122 468.114L377.101 473.979H380.334V468.114C380.334 468.058 380.362 468.03 380.418 468.03H382.819C382.889 468.03 382.924 468.058 382.924 468.114L382.966 482.929C382.966 482.999 382.931 483.035 382.861 483.035H380.439C380.369 483.035 380.334 482.999 380.334 482.929V476.59H377.101V482.929C377.101 482.999 377.073 483.035 377.017 483.035ZM388.715 483.245C387.95 483.245 387.244 483.049 386.599 482.655C385.96 482.262 385.444 481.739 385.051 481.087C384.665 480.427 384.472 479.704 384.472 478.917L384.493 472.084C384.493 471.284 384.686 470.564 385.072 469.925C385.451 469.279 385.963 468.763 386.609 468.377C387.255 467.984 387.957 467.788 388.715 467.788C389.501 467.788 390.207 467.981 390.832 468.367C391.463 468.753 391.969 469.272 392.348 469.925C392.734 470.571 392.927 471.291 392.927 472.084L392.948 478.917C392.948 479.704 392.758 480.423 392.379 481.076C391.993 481.736 391.481 482.262 390.842 482.655C390.203 483.049 389.494 483.245 388.715 483.245ZM388.715 480.644C389.15 480.644 389.529 480.469 389.852 480.118C390.175 479.76 390.337 479.36 390.337 478.917L390.316 472.084C390.316 471.606 390.165 471.203 389.863 470.873C389.561 470.543 389.178 470.378 388.715 470.378C388.273 470.378 387.894 470.539 387.578 470.862C387.262 471.185 387.104 471.592 387.104 472.084V478.917C387.104 479.388 387.262 479.795 387.578 480.139C387.894 480.476 388.273 480.644 388.715 480.644ZM398.55 483.245C397.792 483.245 397.09 483.049 396.444 482.655C395.798 482.262 395.282 481.736 394.896 481.076C394.517 480.409 394.327 479.683 394.327 478.896L394.369 468.114C394.369 468.058 394.398 468.03 394.454 468.03H396.876C396.932 468.03 396.96 468.058 396.96 468.114V478.896C396.96 479.381 397.114 479.795 397.423 480.139C397.732 480.476 398.107 480.644 398.55 480.644C399.013 480.644 399.399 480.476 399.708 480.139C400.017 479.795 400.171 479.381 400.171 478.896V468.114C400.171 468.058 400.199 468.03 400.256 468.03H402.677C402.733 468.03 402.762 468.058 402.762 468.114L402.804 478.896C402.804 479.69 402.614 480.42 402.235 481.087C401.849 481.746 401.337 482.273 400.698 482.666C400.059 483.052 399.343 483.245 398.55 483.245ZM407.026 483.035H404.583C404.527 483.035 404.499 482.999 404.499 482.929L404.541 468.114C404.541 468.058 404.569 468.03 404.625 468.03H408.985C409.764 468.03 410.48 468.219 411.133 468.598C411.785 468.978 412.305 469.486 412.691 470.125C413.084 470.764 413.281 471.487 413.281 472.294C413.281 472.821 413.2 473.298 413.038 473.726C412.877 474.155 412.687 474.516 412.47 474.811C412.259 475.106 412.066 475.323 411.891 475.464C412.67 476.327 413.06 477.342 413.06 478.507L413.081 482.929C413.081 482.999 413.045 483.035 412.975 483.035H410.532C410.476 483.035 410.448 483.013 410.448 482.971V478.507C410.448 477.987 410.266 477.538 409.901 477.159C409.536 476.78 409.086 476.59 408.553 476.59H407.131L407.11 482.929C407.11 482.999 407.082 483.035 407.026 483.035ZM408.985 470.61H407.131V474H408.985C409.427 474 409.82 473.835 410.164 473.505C410.515 473.175 410.69 472.772 410.69 472.294C410.69 471.838 410.522 471.445 410.185 471.115C409.848 470.778 409.448 470.61 408.985 470.61ZM418.566 483.245C417.801 483.245 417.096 483.049 416.45 482.655C415.811 482.262 415.299 481.739 414.913 481.087C414.534 480.427 414.344 479.704 414.344 478.917V477.928C414.344 477.85 414.379 477.812 414.449 477.812H416.871C416.927 477.812 416.955 477.85 416.955 477.928V478.917C416.955 479.388 417.113 479.795 417.429 480.139C417.745 480.476 418.124 480.644 418.566 480.644C419.016 480.644 419.398 480.472 419.714 480.128C420.03 479.777 420.188 479.374 420.188 478.917C420.188 478.391 419.844 477.931 419.156 477.538C419.044 477.468 418.896 477.384 418.714 477.285C418.538 477.18 418.328 477.061 418.082 476.927C417.836 476.794 417.598 476.664 417.366 476.538C417.134 476.404 416.91 476.278 416.692 476.159C415.906 475.695 415.32 475.116 414.934 474.421C414.555 473.719 414.365 472.933 414.365 472.063C414.365 471.262 414.562 470.539 414.955 469.894C415.348 469.255 415.86 468.749 416.492 468.377C417.131 467.998 417.822 467.809 418.566 467.809C419.332 467.809 420.034 467.998 420.672 468.377C421.311 468.763 421.82 469.276 422.199 469.915C422.585 470.553 422.778 471.269 422.778 472.063V473.832C422.778 473.888 422.75 473.916 422.694 473.916H420.272C420.216 473.916 420.188 473.888 420.188 473.832L420.167 472.063C420.167 471.557 420.009 471.147 419.693 470.831C419.377 470.515 419.002 470.357 418.566 470.357C418.124 470.357 417.745 470.525 417.429 470.862C417.113 471.199 416.955 471.599 416.955 472.063C416.955 472.533 417.054 472.926 417.25 473.242C417.454 473.558 417.822 473.86 418.356 474.148C418.412 474.176 418.542 474.246 418.745 474.358C418.949 474.47 419.174 474.597 419.419 474.737C419.672 474.871 419.9 474.993 420.104 475.106C420.307 475.211 420.43 475.274 420.472 475.295C421.188 475.695 421.753 476.187 422.168 476.769C422.589 477.352 422.799 478.068 422.799 478.917C422.799 479.739 422.61 480.476 422.231 481.129C421.845 481.782 421.332 482.297 420.693 482.677C420.055 483.056 419.346 483.245 418.566 483.245ZM426.822 483.035H424.379C424.323 483.035 424.295 483.006 424.295 482.95V480.507C424.295 480.451 424.323 480.423 424.379 480.423H426.822C426.878 480.423 426.906 480.451 426.906 480.507V482.95C426.906 483.006 426.878 483.035 426.822 483.035Z" fill="black"/>
<path d="M438.246 483.245C437.467 483.245 436.755 483.049 436.109 482.655C435.47 482.262 434.961 481.736 434.582 481.076C434.21 480.409 434.024 479.669 434.024 478.854L434.045 472.126C434.045 471.326 434.228 470.603 434.593 469.957C434.958 469.304 435.459 468.781 436.098 468.388C436.744 467.988 437.46 467.788 438.246 467.788C439.047 467.788 439.759 467.981 440.384 468.367C441.016 468.753 441.517 469.276 441.89 469.936C442.269 470.589 442.458 471.319 442.458 472.126V473.116C442.458 473.172 442.43 473.2 442.374 473.2H439.952C439.896 473.2 439.868 473.172 439.868 473.116V472.126C439.868 471.649 439.713 471.238 439.405 470.894C439.096 470.55 438.71 470.378 438.246 470.378C437.734 470.378 437.341 470.553 437.067 470.904C436.793 471.255 436.656 471.663 436.656 472.126V478.854C436.656 479.381 436.811 479.812 437.12 480.149C437.428 480.479 437.804 480.644 438.246 480.644C438.71 480.644 439.096 480.462 439.405 480.097C439.713 479.725 439.868 479.311 439.868 478.854V477.854C439.868 477.798 439.896 477.77 439.952 477.77H442.395C442.451 477.77 442.479 477.798 442.479 477.854V478.854C442.479 479.662 442.29 480.399 441.911 481.066C441.525 481.725 441.016 482.255 440.384 482.655C439.752 483.049 439.04 483.245 438.246 483.245ZM451.103 483.035H444.132C444.076 483.035 444.048 482.999 444.048 482.929L444.069 468.135C444.069 468.065 444.104 468.03 444.174 468.03H446.575C446.645 468.03 446.681 468.065 446.681 468.135L446.659 480.381H451.103C451.173 480.381 451.208 480.416 451.208 480.486V482.929C451.208 482.999 451.173 483.035 451.103 483.035ZM455.167 483.035H452.724C452.654 483.035 452.619 482.999 452.619 482.929L452.64 468.114C452.64 468.058 452.668 468.03 452.724 468.03H455.146C455.202 468.03 455.231 468.058 455.231 468.114L455.252 482.929C455.252 482.999 455.224 483.035 455.167 483.035ZM461.117 483.245C460.337 483.245 459.625 483.049 458.979 482.655C458.34 482.262 457.831 481.736 457.452 481.076C457.08 480.409 456.894 479.669 456.894 478.854L456.915 472.126C456.915 471.326 457.098 470.603 457.463 469.957C457.828 469.304 458.33 468.781 458.969 468.388C459.614 467.988 460.33 467.788 461.117 467.788C461.917 467.788 462.629 467.981 463.254 468.367C463.886 468.753 464.388 469.276 464.76 469.936C465.139 470.589 465.328 471.319 465.328 472.126V473.116C465.328 473.172 465.3 473.2 465.244 473.2H462.822C462.766 473.2 462.738 473.172 462.738 473.116V472.126C462.738 471.649 462.584 471.238 462.275 470.894C461.966 470.55 461.58 470.378 461.117 470.378C460.604 470.378 460.211 470.553 459.937 470.904C459.663 471.255 459.527 471.663 459.527 472.126V478.854C459.527 479.381 459.681 479.812 459.99 480.149C460.299 480.479 460.674 480.644 461.117 480.644C461.58 480.644 461.966 480.462 462.275 480.097C462.584 479.725 462.738 479.311 462.738 478.854V477.854C462.738 477.798 462.766 477.77 462.822 477.77H465.265C465.321 477.77 465.349 477.798 465.349 477.854V478.854C465.349 479.662 465.16 480.399 464.781 481.066C464.395 481.725 463.886 482.255 463.254 482.655C462.622 483.049 461.91 483.245 461.117 483.245ZM469.445 483.035H467.003C466.946 483.035 466.918 482.999 466.918 482.929L466.96 468.135C466.96 468.065 466.989 468.03 467.045 468.03H469.467C469.523 468.03 469.551 468.065 469.551 468.135V473.242L472.931 468.114C472.987 468.058 473.04 468.03 473.089 468.03H475.563C475.626 468.03 475.64 468.058 475.605 468.114L471.878 474.063L476.058 482.95C476.093 483.006 476.058 483.035 475.953 483.035H473.32C473.25 483.035 473.208 483.006 473.194 482.95L470.277 476.611L469.53 477.791V482.929C469.53 482.999 469.502 483.035 469.445 483.035ZM487.23 483.035H484.798C484.734 483.035 484.703 482.999 484.703 482.929V470.631H481.902C481.832 470.631 481.797 470.596 481.797 470.525L481.818 468.114C481.818 468.058 481.846 468.03 481.902 468.03H490.094C490.171 468.03 490.21 468.058 490.21 468.114V470.525C490.21 470.596 490.182 470.631 490.126 470.631H487.293L487.314 482.929C487.314 482.999 487.286 483.035 487.23 483.035ZM493.79 483.035H491.347C491.291 483.035 491.263 482.999 491.263 482.929L491.284 468.114C491.284 468.058 491.319 468.03 491.389 468.03H493.79C493.86 468.03 493.895 468.058 493.895 468.114L493.874 473.979H497.107V468.114C497.107 468.058 497.135 468.03 497.191 468.03H499.592C499.662 468.03 499.697 468.058 499.697 468.114L499.739 482.929C499.739 482.999 499.704 483.035 499.634 483.035H497.212C497.142 483.035 497.107 482.999 497.107 482.929V476.59H493.874V482.929C493.874 482.999 493.846 483.035 493.79 483.035ZM504.046 483.035H501.603C501.533 483.035 501.498 482.999 501.498 482.929L501.519 468.114C501.519 468.058 501.547 468.03 501.603 468.03H504.025C504.081 468.03 504.109 468.058 504.109 468.114L504.13 482.929C504.13 482.999 504.102 483.035 504.046 483.035ZM509.69 483.245C508.924 483.245 508.219 483.049 507.573 482.655C506.934 482.262 506.422 481.739 506.036 481.087C505.657 480.427 505.467 479.704 505.467 478.917V477.928C505.467 477.85 505.502 477.812 505.573 477.812H507.994C508.05 477.812 508.079 477.85 508.079 477.928V478.917C508.079 479.388 508.237 479.795 508.552 480.139C508.868 480.476 509.247 480.644 509.69 480.644C510.139 480.644 510.521 480.472 510.837 480.128C511.153 479.777 511.311 479.374 511.311 478.917C511.311 478.391 510.967 477.931 510.279 477.538C510.167 477.468 510.02 477.384 509.837 477.285C509.662 477.18 509.451 477.061 509.205 476.927C508.96 476.794 508.721 476.664 508.489 476.538C508.258 476.404 508.033 476.278 507.815 476.159C507.029 475.695 506.443 475.116 506.057 474.421C505.678 473.719 505.488 472.933 505.488 472.063C505.488 471.262 505.685 470.539 506.078 469.894C506.471 469.255 506.983 468.749 507.615 468.377C508.254 467.998 508.945 467.809 509.69 467.809C510.455 467.809 511.157 467.998 511.796 468.377C512.434 468.763 512.943 469.276 513.322 469.915C513.708 470.553 513.901 471.269 513.901 472.063V473.832C513.901 473.888 513.873 473.916 513.817 473.916H511.395C511.339 473.916 511.311 473.888 511.311 473.832L511.29 472.063C511.29 471.557 511.132 471.147 510.816 470.831C510.5 470.515 510.125 470.357 509.69 470.357C509.247 470.357 508.868 470.525 508.552 470.862C508.237 471.199 508.079 471.599 508.079 472.063C508.079 472.533 508.177 472.926 508.373 473.242C508.577 473.558 508.945 473.86 509.479 474.148C509.535 474.176 509.665 474.246 509.869 474.358C510.072 474.47 510.297 474.597 510.542 474.737C510.795 474.871 511.023 474.993 511.227 475.106C511.43 475.211 511.553 475.274 511.595 475.295C512.311 475.695 512.877 476.187 513.291 476.769C513.712 477.352 513.922 478.068 513.922 478.917C513.922 479.739 513.733 480.476 513.354 481.129C512.968 481.782 512.455 482.297 511.817 482.677C511.178 483.056 510.469 483.245 509.69 483.245ZM528.074 483.035H521.104C521.048 483.035 521.019 482.999 521.019 482.929L521.04 468.135C521.04 468.065 521.076 468.03 521.146 468.03H523.547C523.617 468.03 523.652 468.065 523.652 468.135L523.631 480.381H528.074C528.144 480.381 528.18 480.416 528.18 480.486V482.929C528.18 482.999 528.144 483.035 528.074 483.035ZM532.139 483.035H529.696C529.626 483.035 529.591 482.999 529.591 482.929L529.612 468.114C529.612 468.058 529.64 468.03 529.696 468.03H532.118C532.174 468.03 532.202 468.058 532.202 468.114L532.223 482.929C532.223 482.999 532.195 483.035 532.139 483.035ZM536.466 483.035H534.308C534.195 483.035 534.139 482.985 534.139 482.887L534.118 468.198C534.118 468.086 534.174 468.03 534.287 468.03H536.235L539.878 476.527L539.773 468.198C539.773 468.086 539.836 468.03 539.962 468.03H542.1C542.184 468.03 542.226 468.086 542.226 468.198L542.247 482.908C542.247 482.992 542.212 483.035 542.142 483.035H540.246L536.508 475.095L536.666 482.866C536.666 482.978 536.6 483.035 536.466 483.035ZM546.648 483.035H544.206C544.149 483.035 544.121 482.999 544.121 482.929L544.163 468.135C544.163 468.065 544.192 468.03 544.248 468.03H546.67C546.726 468.03 546.754 468.065 546.754 468.135V473.242L550.134 468.114C550.19 468.058 550.243 468.03 550.292 468.03H552.766C552.829 468.03 552.843 468.058 552.808 468.114L549.081 474.063L553.261 482.95C553.296 483.006 553.261 483.035 553.156 483.035H550.523C550.453 483.035 550.411 483.006 550.397 482.95L547.48 476.611L546.733 477.791V482.929C546.733 482.999 546.705 483.035 546.648 483.035ZM556.262 479.065H554.788C554.725 479.065 554.69 479.03 554.683 478.96L554.23 474V468.135C554.23 468.065 554.258 468.03 554.314 468.03H556.736C556.806 468.03 556.841 468.065 556.841 468.135L556.82 474L556.367 478.96C556.36 479.03 556.325 479.065 556.262 479.065ZM556.736 483.035H554.314C554.258 483.035 554.23 482.999 554.23 482.929V480.581C554.23 480.518 554.258 480.486 554.314 480.486H556.736C556.792 480.486 556.82 480.518 556.82 480.581V482.929C556.82 482.999 556.792 483.035 556.736 483.035Z" fill="#36B5FF"/>
<path d="M433.424 484.351H557.747V484.877H433.424V484.351Z" fill="#36B5FF"/>
</g>
<defs>
<clipPath id="clip0_60_676">
<rect width="955.596" height="640.043" fill="white"/>
</clipPath>
</defs>
</svg>
