<svg width="956" height="641" viewBox="0 0 956 641" fill="none" xmlns="http://www.w3.org/2000/svg">
<g clip-path="url(#clip0_60_453)">
<rect width="955.596" height="640.043" fill="#36B5FF"/>
<rect x="-0.00488281" y="393.184" width="992.457" height="259.145" fill="white"/>
<ellipse cx="293.255" cy="212.649" rx="154.852" ry="134.46" fill="#3E2A26"/>
<ellipse cx="441.282" cy="271.804" rx="15.3977" ry="23.7207" fill="#FFE6D3"/>
<path d="M465.819 472.681C464.564 423.334 385.934 352.953 385.934 352.953L395.553 526.073C395.553 526.073 467.073 522.028 465.819 472.681Z" fill="#1C5374"/>
<path d="M114.606 471.046C116.611 420.995 195.918 350.765 195.918 350.765L183.693 526.277C183.693 526.277 112.601 521.098 114.606 471.046Z" fill="#1C5374"/>
<path d="M191.414 354.812C191.748 350.476 195.364 347.128 199.712 347.128H381.529C385.889 347.128 389.51 350.493 389.829 354.841L405.668 570.409C406.023 575.233 402.205 579.342 397.368 579.342H183.1C178.252 579.342 174.429 575.213 174.802 570.379L191.414 354.812Z" fill="#3581AE"/>
<path fill-rule="evenodd" clip-rule="evenodd" d="M256.093 342.134L219.888 393.321H256.093L243.192 415.377L288.137 461.57L333.081 415.377L320.181 393.321H356.386L320.181 342.134L302.851 391.196L288.137 461.57L274.173 393.321L256.093 342.134Z" fill="#A9E0FF"/>
<path d="M320.181 342.134L256.093 342.134C256.093 342.134 273.571 373.345 288.137 373.345C302.702 373.345 320.181 342.134 320.181 342.134Z" fill="#FEE6DA"/>
<path fill-rule="evenodd" clip-rule="evenodd" d="M256.093 342.134L274.173 393.321L288.137 373.345L302.851 391.196L320.181 342.134C320.181 342.134 302.702 373.345 288.137 373.345C273.571 373.345 256.093 342.134 256.093 342.134Z" fill="white"/>
<path d="M274.173 393.321L288.137 461.57L302.851 391.196L288.137 373.345L274.173 393.321Z" fill="white"/>
<path d="M427.242 245.58C424.94 289.832 393.298 326.896 347.191 341.812C330.703 347.145 312.366 349.647 292.859 348.632C218.8 344.779 155.927 291.703 159.053 231.627C162.179 171.551 224.749 125.974 298.807 129.827C372.866 133.68 430.368 185.505 427.242 245.58Z" fill="#FEE6DA"/>
<path d="M427.242 245.58C424.94 289.832 393.298 326.896 347.191 341.812C396.955 333.319 423.698 319.151 440.086 283.986C441.37 267.362 438.662 258.927 427.242 245.58Z" fill="#FEE6DA"/>
<path d="M159.053 231.627C154.681 275.71 249.554 326.452 292.859 348.632C172.901 352.496 147.521 306.842 147.041 274.564C146.878 263.625 145.769 242.966 159.053 231.627Z" fill="#FEE6DA"/>
<ellipse cx="192.838" cy="510.261" rx="18.3107" ry="15.8138" fill="#FEE6DA"/>
<ellipse cx="388.429" cy="510.261" rx="18.3107" ry="15.8138" fill="#FEE6DA"/>
<rect x="-23.46" y="510.245" width="637.25" height="161.861" fill="#804C18"/>
<path d="M150.916 132.994L189.423 143.875L291.983 114.514L377.249 136.746L426.443 190.346L440.462 221.921L426.443 261.718L412.387 228.581C405.262 235.585 395.832 242.834 385.021 255.69C389.154 225.49 377.79 228.39 355.856 197.907C333.795 217.572 326.907 229.793 333.608 255.69C317.584 239.22 313.587 230.034 313.499 213.666C307.574 230.626 300.861 239.952 272.853 255.69C286.338 243.698 291.229 236.695 278.415 221.921C238.894 233.03 228.514 244.901 218.089 269.948C208.759 249.077 208.38 238.454 218.089 221.921C218.089 221.921 195.413 235.804 189.423 255.69C183.433 275.577 189.423 280.83 189.423 280.83L164.18 269.948L180.866 221.921C153.558 242.222 138.89 254.138 126.957 287.208C103.065 260.391 101.887 243.858 105.564 213.666C106.17 175.693 120.47 159.683 150.916 132.994Z" fill="#3E2A26"/>
<rect x="655.678" y="83.7744" width="230.103" height="312.202" fill="#804C18"/>
<ellipse cx="682.486" cy="255.233" rx="10.053" ry="16.755" fill="#D9D9D9"/>
</g>
<defs>
<clipPath id="clip0_60_453">
<rect width="955.596" height="640.043" fill="white"/>
</clipPath>
</defs>
</svg>
