<svg width="956" height="641" viewBox="0 0 956 641" fill="none" xmlns="http://www.w3.org/2000/svg">
<g clip-path="url(#clip0_60_532)">
<rect width="955.596" height="640.043" fill="#36B5FF"/>
<rect y="393.184" width="992.457" height="259.145" fill="white"/>
<ellipse cx="293.26" cy="212.649" rx="154.852" ry="134.46" fill="#3E2A26"/>
<ellipse cx="441.287" cy="271.804" rx="15.3977" ry="23.7207" fill="#FFE6D3"/>
<path d="M465.825 472.681C464.57 423.334 385.939 352.953 385.939 352.953L395.559 526.073C395.559 526.073 467.079 522.028 465.825 472.681Z" fill="#1C5374"/>
<path d="M114.607 471.046C116.612 420.995 195.919 350.765 195.919 350.765L183.694 526.277C183.694 526.277 112.602 521.098 114.607 471.046Z" fill="#1C5374"/>
<path d="M191.416 354.812C191.75 350.476 195.366 347.128 199.714 347.128H381.531C385.891 347.128 389.512 350.493 389.831 354.841L405.67 570.409C406.025 575.233 402.207 579.342 397.37 579.342H183.102C178.254 579.342 174.431 575.213 174.804 570.379L191.416 354.812Z" fill="#3581AE"/>
<path fill-rule="evenodd" clip-rule="evenodd" d="M256.097 342.134L219.892 393.321H256.097L243.196 415.377L288.141 461.57L333.085 415.377L320.185 393.321H356.39L320.185 342.134L302.855 391.196L288.141 461.57L274.177 393.321L256.097 342.134Z" fill="#A9E0FF"/>
<path d="M320.185 342.134L256.097 342.134C256.097 342.134 273.575 373.345 288.141 373.345C302.706 373.345 320.185 342.134 320.185 342.134Z" fill="#FEE6DA"/>
<path fill-rule="evenodd" clip-rule="evenodd" d="M256.097 342.134L274.177 393.321L288.141 373.345L302.855 391.196L320.185 342.134C320.185 342.134 302.706 373.345 288.141 373.345C273.575 373.345 256.097 342.134 256.097 342.134Z" fill="white"/>
<path d="M274.177 393.321L288.141 461.57L302.855 391.196L288.141 373.345L274.177 393.321Z" fill="white"/>
<path d="M427.243 245.58C424.941 289.832 393.299 326.896 347.192 341.812C330.704 347.145 312.367 349.647 292.86 348.632C218.801 344.779 155.928 291.703 159.054 231.627C162.18 171.551 224.75 125.974 298.808 129.827C372.867 133.68 430.369 185.505 427.243 245.58Z" fill="#FEE6DA"/>
<path d="M427.243 245.58C424.941 289.832 393.299 326.896 347.192 341.812C396.956 333.319 423.698 319.151 440.087 283.986C441.371 267.362 438.662 258.927 427.243 245.58Z" fill="#FEE6DA"/>
<path d="M159.054 231.627C154.682 275.71 249.555 326.452 292.86 348.632C172.902 352.496 147.522 306.842 147.042 274.564C146.879 263.625 145.77 242.966 159.054 231.627Z" fill="#FEE6DA"/>
<ellipse cx="192.843" cy="510.261" rx="18.3107" ry="15.8138" fill="#FEE6DA"/>
<ellipse cx="388.435" cy="510.261" rx="18.3107" ry="15.8138" fill="#FEE6DA"/>
<rect x="-23.4502" y="510.245" width="637.25" height="161.861" fill="#804C18"/>
<path d="M150.917 132.994L189.424 143.875L291.984 114.514L377.25 136.746L426.444 190.346L440.463 221.921L426.444 261.718L412.388 228.581C405.263 235.585 395.833 242.834 385.022 255.69C389.155 225.49 377.791 228.39 355.857 197.907C333.796 217.572 326.908 229.793 333.609 255.69C317.585 239.22 313.588 230.034 313.5 213.666C307.575 230.626 300.862 239.952 272.854 255.69C286.339 243.698 291.23 236.695 278.416 221.921C238.895 233.03 228.515 244.901 218.09 269.948C208.76 249.077 208.381 238.454 218.09 221.921C218.09 221.921 195.414 235.804 189.424 255.69C183.434 275.577 189.424 280.83 189.424 280.83L164.181 269.948L180.867 221.921C153.559 242.222 138.891 254.138 126.958 287.208C103.066 260.391 101.888 243.858 105.565 213.666C106.171 175.693 120.471 159.683 150.917 132.994Z" fill="#3E2A26"/>
<rect x="663.502" y="91.5934" width="214.464" height="296.564" fill="#776D63" stroke="#804C18" stroke-width="15.638"/>
<path d="M719.634 83.7744H885.788V395.977H777.997L719.634 83.7744Z" fill="#804C18"/>
<ellipse cx="692.95" cy="191.538" rx="7.23637" ry="11.1479" fill="#FFE6D3"/>
<path d="M571.692 393.178H606.505V406.477H562.108L571.692 393.178Z" fill="#291717"/>
<path d="M675.933 393.178H641.12V406.477H685.517L675.933 393.178Z" fill="#291717"/>
<path d="M704.482 285.942C703.892 262.751 666.938 229.674 666.938 229.674L671.459 311.035C671.459 311.035 705.071 309.134 704.482 285.942Z" fill="#323030"/>
<path d="M539.421 285.175C540.363 261.653 577.635 228.647 577.635 228.647L571.889 311.132C571.889 311.132 538.479 308.697 539.421 285.175Z" fill="#323030"/>
<path d="M563.114 391.192L576.558 327.986C576.919 326.286 578.359 325.029 580.091 324.899L662.5 318.713C664.389 318.572 666.108 319.804 666.581 321.638L684.455 391.03C685.092 393.505 683.223 395.917 680.667 395.917H634.808C633.004 395.917 631.434 394.684 631.007 392.931L624.498 366.189L619.432 392.739C619.08 394.583 617.468 395.917 615.59 395.917H566.939C564.452 395.917 562.596 393.625 563.114 391.192Z" fill="#393939"/>
<path d="M575.518 230.549C575.675 228.511 577.375 226.938 579.418 226.938H664.866C666.915 226.938 668.617 228.519 668.767 230.563L676.211 331.872C676.377 334.139 674.583 336.07 672.309 336.07H571.611C569.333 336.07 567.536 334.13 567.711 331.858L575.518 230.549Z" fill="#323030"/>
<path fill-rule="evenodd" clip-rule="evenodd" d="M605.919 224.591L588.903 248.647H605.919L599.856 259.012L620.978 280.722L642.1 259.013L636.038 248.647H653.053L636.038 224.591L627.893 247.649L620.978 280.722L614.415 248.647L605.919 224.591Z" fill="#3F3D3D"/>
<path d="M636.038 224.591L605.919 224.591C605.919 224.591 614.133 239.259 620.978 239.259C627.823 239.259 636.038 224.591 636.038 224.591Z" fill="#FEE6DA"/>
<path fill-rule="evenodd" clip-rule="evenodd" d="M605.919 224.591L614.415 248.647L620.978 239.259L627.893 247.649L636.038 224.591C636.038 224.591 627.823 239.259 620.978 239.259C614.133 239.259 605.919 224.591 605.919 224.591Z" fill="white"/>
<path d="M614.415 248.647L620.978 280.722L627.893 247.649L620.978 239.259L614.415 248.647Z" fill="#EE6363"/>
<path d="M686.352 179.214C685.27 200.011 670.4 217.429 648.731 224.439C640.982 226.946 632.364 228.121 623.196 227.644C588.392 225.833 558.843 200.89 560.312 172.656C561.781 144.422 591.187 123.003 625.992 124.814C660.797 126.624 687.821 150.98 686.352 179.214Z" fill="#FEE6DA"/>
<path d="M686.352 179.214C685.27 200.011 670.4 217.429 648.731 224.439C672.118 220.448 684.686 213.789 692.388 197.263C692.992 189.45 691.719 185.486 686.352 179.214Z" fill="#FEE6DA"/>
<path d="M560.312 172.656C558.258 193.374 602.845 217.22 623.196 227.644C566.82 229.46 554.893 208.005 554.667 192.835C554.591 187.694 554.069 177.985 560.312 172.656Z" fill="#FEE6DA"/>
<ellipse cx="576.189" cy="303.604" rx="8.60541" ry="7.43195" fill="#FEE6DA"/>
<ellipse cx="668.112" cy="303.604" rx="8.60541" ry="7.43195" fill="#FEE6DA"/>
<path d="M654.932 98.2143L673.189 118.179C673.189 118.179 687.4 115.534 690.993 120.076C694.586 124.617 695.853 150.945 710.143 169.939C705.439 170.952 702.118 171.163 698.971 169.562C701.239 181.762 701.208 188.13 693.041 196.534C693.663 191.721 694.038 188.374 692.942 184.395C691.465 191.513 690.782 195.598 683.606 198.995C684.239 183.361 674.665 182.649 656.14 182.554C657.765 169.713 655.013 161.905 649.64 147.9C647.118 155.869 647.517 160.452 650.137 168.746C641.554 157.135 640.351 149.204 642.701 133.299L636.261 139.544L635.121 131.105C620.016 146.365 624.05 155.686 624.322 171.887C617.664 167.087 616.862 163.391 615.577 156.747C612.343 165.944 611.392 173.533 611.332 185.405L604.552 179.831C604.023 183.466 604.893 186.452 606.344 190.765C595.736 182.294 592.85 176.436 592.235 164.311C586.177 171.063 585.481 175.255 582.778 182.364C579.342 177.633 579.026 174.904 580.181 169.958C572.262 182.037 572.522 187.028 575.527 193.027C571.623 189.55 569.528 187.348 565.96 182.998C562.073 188.823 561.706 194.74 562.982 205.553C553.13 203.601 552.03 198.636 553.05 187.168C545.522 194.587 544.474 199.188 546.756 207.983C533.885 190.18 535.914 181.312 549.792 166.721C537.65 167.195 534.242 171.617 529.864 181.579C522.488 163.612 528.068 154.751 543.17 139.583C535.934 141.152 527.92 142.31 517.229 140.727C589.713 117.259 604.335 88.4714 654.932 98.2143Z" fill="#3C3834"/>
<path d="M613.741 209.61C615.101 220.4 622.355 204.939 626.146 210.843C629.861 216.629 636.037 213.973 636.037 207.38" stroke="black" stroke-width="1.17347" stroke-linecap="round"/>
<path d="M640.238 186.867C649.342 183.315 658.904 180.815 666.303 173.791C666.851 173.27 667.005 173.018 667.163 172.758" stroke="black" stroke-width="1.54368" stroke-linecap="round"/>
<path d="M602.965 185.1C593.562 181.432 583.686 178.85 576.044 171.595C575.478 171.058 575.319 170.797 575.155 170.529" stroke="black" stroke-width="1.59436" stroke-linecap="round"/>
<ellipse cx="776.316" cy="248.532" rx="10.053" ry="16.755" fill="#D9D9D9"/>
</g>
<defs>
<clipPath id="clip0_60_532">
<rect width="955.596" height="640.043" fill="white"/>
</clipPath>
</defs>
</svg>
