<svg width="956" height="641" viewBox="0 0 956 641" fill="none" xmlns="http://www.w3.org/2000/svg">
<g clip-path="url(#clip0_140_416)">
<rect width="955.596" height="640.043" fill="#36B5FF"/>
<rect x="195" y="241" width="566" height="294" fill="#A9E0FF"/>
<rect x="79.4111" y="428.552" width="36.8611" height="121.753" fill="#804C18"/>
<ellipse cx="97.5599" cy="394.481" rx="74.5599" ry="73.7222" fill="#6C9D53"/>
<rect x="840.516" y="427.79" width="36.8611" height="121.753" fill="#804C18"/>
<ellipse cx="858.664" cy="393.722" rx="74.5599" ry="73.7222" fill="#6C9D53"/>
<rect x="-10.6162" y="510.469" width="977.377" height="142.976" fill="#64D96D"/>
<path d="M528.9 416.084V508.236H475.843V416.084H528.9ZM471.375 416.084V508.236H418.317V416.084H471.375Z" fill="#157BB7" stroke="#142654" stroke-width="4.46801"/>
<rect x="136" y="171" width="683" height="120" fill="#157BB7"/>
<path d="M377.158 244.427C375.607 244.427 374.177 244.028 372.867 243.231C371.572 242.434 370.533 241.374 369.751 240.051C368.982 238.713 368.598 237.247 368.598 235.653V233.646C368.598 233.489 368.669 233.411 368.811 233.411H373.721C373.835 233.411 373.892 233.489 373.892 233.646V235.653C373.892 236.606 374.212 237.432 374.853 238.129C375.493 238.812 376.262 239.154 377.158 239.154C378.069 239.154 378.845 238.805 379.485 238.108C380.126 237.396 380.446 236.578 380.446 235.653C380.446 234.585 379.749 233.653 378.354 232.856C378.126 232.714 377.827 232.543 377.457 232.344C377.102 232.13 376.675 231.888 376.176 231.618C375.678 231.347 375.194 231.084 374.725 230.828C374.255 230.558 373.8 230.301 373.358 230.059C371.764 229.12 370.576 227.946 369.793 226.537C369.025 225.114 368.64 223.52 368.64 221.755C368.64 220.132 369.039 218.667 369.836 217.357C370.633 216.062 371.672 215.037 372.953 214.283C374.248 213.514 375.65 213.13 377.158 213.13C378.71 213.13 380.133 213.514 381.428 214.283C382.723 215.066 383.755 216.105 384.524 217.4C385.306 218.695 385.698 220.147 385.698 221.755V225.341C385.698 225.455 385.641 225.512 385.527 225.512H380.617C380.503 225.512 380.446 225.455 380.446 225.341L380.403 221.755C380.403 220.73 380.083 219.898 379.443 219.257C378.802 218.617 378.041 218.296 377.158 218.296C376.262 218.296 375.493 218.638 374.853 219.321C374.212 220.004 373.892 220.816 373.892 221.755C373.892 222.708 374.091 223.505 374.49 224.146C374.903 224.786 375.65 225.398 376.732 225.982C376.845 226.039 377.109 226.181 377.521 226.409C377.934 226.637 378.39 226.893 378.888 227.177C379.4 227.448 379.863 227.697 380.275 227.925C380.688 228.138 380.937 228.266 381.023 228.309C382.474 229.12 383.62 230.116 384.46 231.298C385.314 232.479 385.741 233.931 385.741 235.653C385.741 237.318 385.356 238.812 384.588 240.136C383.805 241.46 382.766 242.506 381.471 243.274C380.176 244.043 378.738 244.427 377.158 244.427ZM396.82 244.427C395.283 244.427 393.86 244.028 392.551 243.231C391.241 242.434 390.195 241.367 389.412 240.029C388.644 238.677 388.26 237.204 388.26 235.61L388.345 213.749C388.345 213.635 388.402 213.578 388.516 213.578H393.426C393.54 213.578 393.597 213.635 393.597 213.749V235.61C393.597 236.592 393.91 237.432 394.536 238.129C395.162 238.812 395.924 239.154 396.82 239.154C397.76 239.154 398.543 238.812 399.169 238.129C399.795 237.432 400.108 236.592 400.108 235.61V213.749C400.108 213.635 400.165 213.578 400.279 213.578H405.189C405.303 213.578 405.36 213.635 405.36 213.749L405.445 235.61C405.445 237.218 405.061 238.698 404.292 240.051C403.51 241.388 402.471 242.456 401.175 243.253C399.88 244.036 398.429 244.427 396.82 244.427ZM414.006 244H409.096C408.953 244 408.882 243.929 408.882 243.787L408.968 213.749C408.968 213.635 409.025 213.578 409.138 213.578H417.55C420.225 213.578 422.339 214.397 423.89 216.034C425.456 217.656 426.239 219.869 426.239 222.673C426.239 224.722 425.833 226.509 425.022 228.031C424.196 229.54 423.129 230.707 421.819 231.533C420.51 232.358 419.087 232.771 417.55 232.771H414.219V243.787C414.219 243.929 414.148 244 414.006 244ZM417.55 218.766L414.219 218.809V227.476H417.55C418.475 227.476 419.279 227.035 419.962 226.153C420.645 225.256 420.987 224.096 420.987 222.673C420.987 221.534 420.681 220.602 420.069 219.876C419.457 219.136 418.617 218.766 417.55 218.766ZM443.168 244H429.035C428.921 244 428.864 243.929 428.864 243.787L428.907 213.749C428.907 213.635 428.964 213.578 429.078 213.578H443.125C443.239 213.578 443.296 213.65 443.296 213.792V218.681C443.296 218.795 443.239 218.852 443.125 218.852H434.159V225.683H443.125C443.239 225.683 443.296 225.74 443.296 225.854L443.339 230.807C443.339 230.921 443.282 230.977 443.168 230.977H434.159V238.62H443.168C443.282 238.62 443.339 238.691 443.339 238.834V243.829C443.339 243.943 443.282 244 443.168 244ZM452.348 244H447.395C447.281 244 447.224 243.929 447.224 243.787L447.309 213.749C447.309 213.635 447.366 213.578 447.48 213.578H456.318C457.898 213.578 459.35 213.963 460.674 214.731C461.997 215.5 463.05 216.532 463.833 217.827C464.63 219.122 465.029 220.588 465.029 222.225C465.029 223.292 464.865 224.26 464.538 225.128C464.21 225.996 463.826 226.729 463.385 227.327C462.958 227.925 462.566 228.366 462.211 228.65C463.79 230.401 464.58 232.458 464.58 234.82L464.623 243.787C464.623 243.929 464.552 244 464.41 244H459.457C459.343 244 459.286 243.957 459.286 243.872V234.82C459.286 233.767 458.916 232.856 458.176 232.088C457.436 231.319 456.525 230.935 455.443 230.935H452.561L452.518 243.787C452.518 243.929 452.462 244 452.348 244ZM456.318 218.809H452.561V225.683H456.318C457.215 225.683 458.012 225.349 458.71 224.68C459.421 224.011 459.777 223.192 459.777 222.225C459.777 221.299 459.435 220.502 458.752 219.834C458.069 219.15 457.258 218.809 456.318 218.809ZM473.44 244H468.487C468.373 244 468.316 243.929 468.316 243.787L468.402 213.749C468.402 213.635 468.459 213.578 468.573 213.578H473.91C474.023 213.578 474.123 213.635 474.208 213.749L478.201 219.513L482.171 213.749C482.257 213.635 482.364 213.578 482.492 213.578H487.85C487.978 213.578 488.042 213.635 488.042 213.749L488.128 243.787C488.128 243.929 488.071 244 487.957 244H483.004C482.89 244 482.833 243.929 482.833 243.787L482.791 221.477L478.201 228.138L473.653 221.477L473.611 243.787C473.611 243.929 473.554 244 473.44 244ZM490.327 243.787L495.749 213.749C495.778 213.635 495.849 213.578 495.963 213.578H502.303C502.417 213.578 502.488 213.635 502.517 213.749L507.726 243.787C507.74 243.929 507.683 244 507.555 244H502.709C502.566 244 502.488 243.929 502.474 243.787L502.004 240.584H496.048L495.578 243.787C495.564 243.929 495.493 244 495.365 244H490.497C490.383 244 490.327 243.929 490.327 243.787ZM498.887 223.634L496.923 235.909H501.129L499.336 223.634L499.079 222.011L498.887 223.634ZM515.582 244H510.629C510.515 244 510.458 243.929 510.458 243.787L510.544 213.749C510.544 213.635 510.6 213.578 510.714 213.578H519.553C521.132 213.578 522.584 213.963 523.908 214.731C525.231 215.5 526.284 216.532 527.067 217.827C527.864 219.122 528.263 220.588 528.263 222.225C528.263 223.292 528.099 224.26 527.772 225.128C527.444 225.996 527.06 226.729 526.619 227.327C526.192 227.925 525.801 228.366 525.445 228.65C527.025 230.401 527.814 232.458 527.814 234.82L527.857 243.787C527.857 243.929 527.786 244 527.644 244H522.691C522.577 244 522.52 243.957 522.52 243.872V234.82C522.52 233.767 522.15 232.856 521.41 232.088C520.67 231.319 519.759 230.935 518.677 230.935H515.795L515.753 243.787C515.753 243.929 515.696 244 515.582 244ZM519.553 218.809H515.795V225.683H519.553C520.449 225.683 521.246 225.349 521.944 224.68C522.655 224.011 523.011 223.192 523.011 222.225C523.011 221.299 522.669 220.502 521.986 219.834C521.303 219.15 520.492 218.809 519.553 218.809ZM536.674 244H531.721C531.607 244 531.55 243.929 531.55 243.787L531.636 213.792C531.636 213.65 531.693 213.578 531.807 213.578H536.717C536.831 213.578 536.888 213.65 536.888 213.792V224.146L543.74 213.749C543.854 213.635 543.961 213.578 544.061 213.578H549.077C549.206 213.578 549.234 213.635 549.163 213.749L541.606 225.811L550.081 243.829C550.152 243.943 550.081 244 549.867 244H544.53C544.388 244 544.303 243.943 544.274 243.829L538.361 230.977L536.845 233.368V243.787C536.845 243.929 536.788 244 536.674 244ZM566.348 244H552.216C552.102 244 552.045 243.929 552.045 243.787L552.088 213.749C552.088 213.635 552.145 213.578 552.258 213.578H566.306C566.42 213.578 566.476 213.65 566.476 213.792V218.681C566.476 218.795 566.42 218.852 566.306 218.852H557.339V225.683H566.306C566.42 225.683 566.476 225.74 566.476 225.854L566.519 230.807C566.519 230.921 566.462 230.977 566.348 230.977H557.339V238.62H566.348C566.462 238.62 566.519 238.691 566.519 238.834V243.829C566.519 243.943 566.462 244 566.348 244ZM579.734 244H574.802C574.674 244 574.61 243.929 574.61 243.787V218.852H568.932C568.789 218.852 568.718 218.78 568.718 218.638L568.761 213.749C568.761 213.635 568.818 213.578 568.932 213.578H585.541C585.697 213.578 585.775 213.635 585.775 213.749V218.638C585.775 218.78 585.718 218.852 585.605 218.852H579.862L579.905 243.787C579.905 243.929 579.848 244 579.734 244Z" fill="white"/>
</g>
<defs>
<clipPath id="clip0_140_416">
<rect width="955.596" height="640.043" fill="white"/>
</clipPath>
</defs>
</svg>
