<svg width="623" height="979" viewBox="0 0 623 979" fill="none" xmlns="http://www.w3.org/2000/svg">
<path d="M82.8683 1061.34L134.696 817.687C136.089 811.136 141.637 806.289 148.316 805.788L465.998 781.944C473.28 781.398 479.908 786.148 481.729 793.22L550.631 1060.72C553.089 1070.26 545.883 1079.56 536.029 1079.56H359.245C352.291 1079.56 346.238 1074.8 344.594 1068.05L319.5 964.961L299.974 1067.31C298.617 1074.42 292.4 1079.56 285.162 1079.56H97.6171C88.0266 1079.56 80.873 1070.72 82.8683 1061.34Z" fill="#1C5374"/>
<ellipse cx="325.539" cy="231.276" rx="266.351" ry="231.276" fill="#3E2A26"/>
<ellipse cx="580.153" cy="333.024" rx="26.4846" ry="40.8006" fill="#FFE6D3"/>
<path d="M622.358 678.541C620.199 593.662 484.952 472.605 484.952 472.605L501.498 770.378C501.498 770.378 624.516 763.42 622.358 678.541Z" fill="#1C5374"/>
<path d="M18.2565 675.73C21.7051 589.639 158.116 468.842 158.116 468.842L137.089 770.729C137.089 770.729 14.8078 761.82 18.2565 675.73Z" fill="#1C5374"/>
<path d="M150.37 475.8C150.945 468.342 157.164 462.584 164.644 462.584H477.375C484.874 462.584 491.103 468.372 491.652 475.851L518.896 846.635C519.506 854.932 512.939 862 504.619 862H136.071C127.731 862 121.157 854.899 121.797 846.584L150.37 475.8Z" fill="#3581AE"/>
<path fill-rule="evenodd" clip-rule="evenodd" d="M261.622 453.994L199.348 542.037H261.622L239.432 579.974L316.739 659.428L394.045 579.975L371.855 542.037H434.13L371.855 453.994L342.048 538.383L316.739 659.428L292.72 542.037L261.622 453.994Z" fill="#A9E0FF"/>
<path d="M371.855 453.994L261.622 453.994C261.622 453.994 291.686 507.679 316.739 507.679C341.792 507.679 371.855 453.994 371.855 453.994Z" fill="#FEE6DA"/>
<path fill-rule="evenodd" clip-rule="evenodd" d="M261.622 453.994L292.72 542.037L316.739 507.679L342.048 538.383L371.855 453.994C371.855 453.994 341.792 507.679 316.739 507.679C291.686 507.679 261.622 453.994 261.622 453.994Z" fill="white"/>
<path d="M292.72 542.037L316.739 659.428L342.048 538.383L316.739 507.679L292.72 542.037Z" fill="white"/>
<path d="M555.998 287.918C552.037 364.033 497.613 427.785 418.306 453.44C389.947 462.614 358.406 466.916 324.853 465.17C197.469 458.543 89.3257 367.25 94.702 263.917C100.078 160.585 207.701 82.1897 335.085 88.8173C462.468 95.445 561.374 184.585 555.998 287.918Z" fill="#FEE6DA"/>
<path d="M555.998 287.918C552.037 364.033 497.613 427.785 418.306 453.44C503.903 438.832 549.901 414.463 578.089 353.977C580.298 325.384 575.639 310.874 555.998 287.918Z" fill="#FEE6DA"/>
<path d="M94.702 263.917C87.1822 339.743 250.367 427.02 324.853 465.17C118.521 471.817 74.8671 393.291 74.0408 337.771C73.7602 318.956 71.8522 283.421 94.702 263.917Z" fill="#FEE6DA"/>
<ellipse cx="152.821" cy="743.177" rx="31.4952" ry="27.2004" fill="#FEE6DA"/>
<ellipse cx="489.245" cy="743.177" rx="31.4952" ry="27.2004" fill="#FEE6DA"/>
<path d="M80.7078 94.2643L146.94 112.981L323.348 62.4775L470.008 100.718L554.624 192.913L578.738 247.221L554.624 315.675L530.447 258.678C518.192 270.725 501.972 283.193 483.378 305.306C490.485 253.361 470.939 258.349 433.212 205.917C395.267 239.742 383.418 260.763 394.944 305.306C367.383 276.978 360.507 261.177 360.356 233.023C350.164 262.196 338.618 278.236 290.444 305.306C313.639 284.679 322.052 272.634 300.011 247.221C232.032 266.33 214.179 286.749 196.247 329.831C180.199 293.932 179.548 275.659 196.247 247.221C196.247 247.221 157.243 271.101 146.94 305.306C136.637 339.512 146.94 348.548 146.94 348.548L103.521 329.831L132.222 247.221C85.2519 282.141 60.0217 302.637 39.4964 359.519C-1.59849 313.391 -3.62471 284.955 2.70054 233.023C3.74281 167.708 28.339 140.17 80.7078 94.2643Z" fill="#3E2A26"/>
</svg>
