<svg width="797" height="1059" viewBox="0 0 797 1059" fill="none" xmlns="http://www.w3.org/2000/svg">
<ellipse cx="703.426" cy="415.42" rx="27.8958" ry="42.9745" fill="#FFE6D3"/>
<path d="M747.879 779.348C745.605 689.946 603.152 562.439 603.152 562.439L620.58 876.078C620.58 876.078 750.152 868.75 747.879 779.348Z" fill="#323030"/>
<path d="M111.588 776.386C115.22 685.709 258.9 558.475 258.9 558.475L236.752 876.448C236.752 876.448 107.956 867.064 111.588 776.386Z" fill="#323030"/>
<path d="M202.915 1185.07L254.743 941.415C256.136 934.864 261.684 930.017 268.363 929.515L586.045 905.672C593.327 905.125 599.954 909.875 601.776 916.947L670.678 1184.45C673.135 1193.99 665.93 1203.29 656.075 1203.29H479.292C472.338 1203.29 466.285 1198.53 464.641 1191.77L439.547 1088.69L420.021 1191.03C418.664 1198.14 412.447 1203.29 405.209 1203.29H217.664C208.074 1203.29 200.92 1194.45 202.915 1185.07Z" fill="#393939"/>
<path d="M250.743 565.804C251.348 557.949 257.899 551.884 265.777 551.884H595.172C603.071 551.884 609.631 557.98 610.21 565.857L638.906 956.398C639.548 965.137 632.63 972.582 623.867 972.582H235.682C226.898 972.582 219.973 965.103 220.648 956.344L250.743 565.804Z" fill="#323030"/>
<path fill-rule="evenodd" clip-rule="evenodd" d="M367.923 542.836L302.33 635.571H367.923L344.551 675.529L425.976 759.217L507.402 675.53L484.029 635.571H549.622L484.029 542.836L452.634 631.722L425.976 759.217L400.678 635.571L367.923 542.836Z" fill="#3F3D3D"/>
<path d="M484.029 542.836L367.923 542.836C367.923 542.836 399.588 599.382 425.976 599.382C452.364 599.382 484.029 542.836 484.029 542.836Z" fill="#FEE6DA"/>
<path fill-rule="evenodd" clip-rule="evenodd" d="M367.923 542.836L400.678 635.571L425.976 599.382L452.634 631.722L484.029 542.836C484.029 542.836 452.364 599.382 425.976 599.382C399.588 599.382 367.923 542.836 367.923 542.836Z" fill="white"/>
<path d="M400.678 635.571L425.976 759.217L452.634 631.722L425.976 599.382L400.678 635.571Z" fill="#EE6363"/>
<path d="M677.984 367.911C673.813 448.081 616.488 515.23 532.956 542.252C503.086 551.915 469.864 556.447 434.523 554.608C300.352 547.627 186.446 451.47 192.109 342.631C197.772 233.793 311.129 151.221 445.3 158.201C579.471 165.182 683.647 259.072 677.984 367.911Z" fill="#FEE6DA"/>
<path d="M677.984 367.911C673.813 448.081 616.488 515.23 532.956 542.252C623.114 526.867 671.562 501.198 701.253 437.489C703.579 407.373 698.672 392.09 677.984 367.911Z" fill="#FEE6DA"/>
<path d="M192.109 342.631C184.189 422.497 356.069 514.424 434.523 554.608C217.197 561.608 171.217 478.899 170.347 420.42C170.052 400.603 168.042 363.174 192.109 342.631Z" fill="#FEE6DA"/>
<ellipse cx="253.324" cy="847.428" rx="33.1733" ry="28.6497" fill="#FEE6DA"/>
<ellipse cx="607.676" cy="847.428" rx="33.1733" ry="28.6497" fill="#FEE6DA"/>
<path d="M556.867 55.6648L627.248 132.629C627.248 132.629 682.03 122.432 695.881 139.939C709.732 157.446 714.614 258.937 769.701 332.159C751.568 336.062 738.766 336.879 726.637 330.707C735.379 377.736 735.258 402.286 703.775 434.682C706.174 416.128 707.62 403.225 703.394 387.884C697.701 415.326 695.066 431.074 667.405 444.167C669.843 383.899 632.935 381.154 561.526 380.789C567.789 331.288 557.178 301.19 536.466 247.2C526.744 277.921 528.284 295.586 538.383 327.559C505.296 282.802 500.66 252.228 509.72 190.914L484.892 214.988L480.499 182.458C422.267 241.281 437.819 277.214 438.87 339.67C413.203 321.166 410.109 306.915 405.158 281.306C392.689 316.758 389.026 346.012 388.791 391.78L362.656 370.293C360.618 384.306 363.97 395.814 369.565 412.442C328.672 379.786 317.546 357.206 315.173 310.463C291.823 336.491 289.139 352.65 278.72 380.055C265.472 361.817 264.254 351.301 268.706 332.232C238.179 378.797 239.184 398.038 250.768 421.163C235.718 407.758 227.64 399.271 213.885 382.501C198.902 404.956 197.488 427.764 202.407 469.448C164.427 461.925 160.187 442.783 164.118 398.574C135.1 427.176 131.057 444.912 139.855 478.817C90.2403 410.188 98.0613 376 151.559 319.754C104.754 321.58 91.6153 338.626 74.7376 377.031C46.3032 307.768 67.8132 273.611 126.033 215.138C98.1371 221.187 67.2433 225.653 26.0297 219.548C305.453 129.079 361.82 18.1067 556.867 55.6648Z" fill="#3C3834"/>
<path d="M398.08 485.086C403.323 526.681 431.287 467.079 445.9 489.842C460.219 512.146 484.029 501.905 484.029 476.49" stroke="black" stroke-width="4.52364" stroke-linecap="round"/>
<path d="M500.23 397.419C535.326 383.727 572.186 374.09 600.709 347.012C602.822 345.006 603.415 344.034 604.026 343.032" stroke="black" stroke-width="5.95078" stroke-linecap="round"/>
<path d="M356.535 390.607C320.287 376.465 282.217 366.512 252.757 338.545C250.575 336.473 249.962 335.469 249.331 334.435" stroke="black" stroke-width="6.14614" stroke-linecap="round"/>
</svg>
