<svg width="445" height="592" viewBox="0 0 445 592" fill="none" xmlns="http://www.w3.org/2000/svg">
<ellipse cx="392.868" cy="232.011" rx="15.5798" ry="24.0013" fill="#FFE6D3"/>
<path d="M417.694 435.265C416.425 385.334 336.864 314.121 336.864 314.121L346.598 489.288C346.598 489.288 418.964 485.196 417.694 435.265Z" fill="#323030"/>
<path d="M62.3247 433.613C64.3534 382.969 144.599 311.909 144.599 311.909L132.229 489.497C132.229 489.497 60.2961 484.256 62.3247 433.613Z" fill="#323030"/>
<path d="M113.331 661.864L142.277 525.781C143.055 522.123 146.154 519.416 149.884 519.136L327.31 505.819C331.377 505.514 335.078 508.167 336.096 512.116L374.577 661.516C375.95 666.845 371.926 672.038 366.422 672.038H267.688C263.804 672.038 260.424 669.382 259.505 665.608L245.491 608.034L234.585 665.194C233.828 669.165 230.355 672.038 226.313 672.038H121.569C116.212 672.038 112.217 667.103 113.331 661.864Z" fill="#393939"/>
<path d="M140.047 316.001C140.385 311.614 144.043 308.227 148.443 308.227H332.41C336.822 308.227 340.486 311.631 340.809 316.031L356.836 534.148C357.195 539.029 353.331 543.187 348.437 543.187H131.635C126.729 543.187 122.861 539.01 123.238 534.118L140.047 316.001Z" fill="#323030"/>
<path fill-rule="evenodd" clip-rule="evenodd" d="M205.491 303.174L168.857 354.966H205.491L192.437 377.283L237.913 424.023L283.39 377.283L270.336 354.966H306.97L270.336 303.174L252.802 352.817L237.913 424.023L223.784 354.966L205.491 303.174Z" fill="#3F3D3D"/>
<path d="M270.336 303.174L205.491 303.174C205.491 303.174 223.176 334.754 237.913 334.754C252.651 334.754 270.336 303.174 270.336 303.174Z" fill="#FEE6DA"/>
<path fill-rule="evenodd" clip-rule="evenodd" d="M205.491 303.174L223.784 354.966L237.913 334.754L252.802 352.817L270.336 303.174C270.336 303.174 252.651 334.754 237.913 334.754C223.176 334.754 205.491 303.174 205.491 303.174Z" fill="white"/>
<path d="M223.784 354.966L237.913 424.023L252.802 352.817L237.913 334.754L223.784 354.966Z" fill="#EE6363"/>
<path d="M378.659 205.478C376.33 250.253 344.314 287.756 297.661 302.848C280.978 308.244 262.424 310.775 242.686 309.748C167.752 305.85 104.135 252.146 107.298 191.359C110.46 130.573 173.771 84.4561 248.705 88.3549C323.639 92.2536 381.822 144.691 378.659 205.478Z" fill="#FEE6DA"/>
<path d="M378.659 205.478C376.33 250.253 344.314 287.756 297.661 302.848C348.014 294.255 375.073 279.919 391.655 244.338C392.954 227.517 390.214 218.982 378.659 205.478Z" fill="#FEE6DA"/>
<path d="M107.298 191.359C102.874 235.964 198.869 287.306 242.686 309.748C121.309 313.658 95.6295 267.465 95.1434 234.804C94.9784 223.736 93.856 202.832 107.298 191.359Z" fill="#FEE6DA"/>
<ellipse cx="141.485" cy="473.289" rx="18.5273" ry="16.0009" fill="#FEE6DA"/>
<ellipse cx="339.392" cy="473.289" rx="18.5273" ry="16.0009" fill="#FEE6DA"/>
<path d="M311.011 31.0888L350.319 74.0734C350.319 74.0734 380.914 68.3786 388.65 78.1563C396.386 87.934 399.113 144.617 429.879 185.511C419.752 187.691 412.602 188.147 405.828 184.701C410.71 210.966 410.642 224.677 393.059 242.77C394.399 232.408 395.206 225.202 392.846 216.634C389.667 231.96 388.195 240.755 372.746 248.068C374.108 214.408 353.495 212.875 313.613 212.671C317.111 185.025 311.185 168.215 299.617 138.061C294.187 155.219 295.047 165.085 300.688 182.942C282.208 157.945 279.619 140.87 284.679 106.626L270.812 120.071L268.359 101.903C235.836 134.756 244.522 154.825 245.109 189.706C230.774 179.372 229.046 171.413 226.281 157.11C219.317 176.91 217.271 193.248 217.14 218.809L202.544 206.809C201.405 214.636 203.278 221.063 206.402 230.35C183.564 212.111 177.35 199.5 176.024 173.394C162.983 187.93 161.484 196.956 155.665 212.261C148.266 202.075 147.586 196.202 150.072 185.552C133.023 211.558 133.584 222.305 140.054 235.22C131.649 227.734 127.137 222.994 119.455 213.627C111.087 226.168 110.297 238.907 113.044 262.188C91.8324 257.986 89.4647 247.295 91.66 222.604C75.4535 238.578 73.1954 248.484 78.1091 267.42C50.3991 229.091 54.7671 209.997 84.6459 178.583C58.5049 179.603 51.167 189.123 41.7408 210.572C25.8602 171.889 37.8735 152.812 70.3891 120.155C54.8095 123.533 37.5553 126.027 14.5374 122.618C170.596 72.091 202.077 10.1126 311.011 31.0888Z" fill="#3C3834"/>
<path d="M295.442 182.64C329.789 164.385 343.142 181.99 347.206 218.168C347.388 219.784 349.392 218.687 350.047 218.715" stroke="black" stroke-width="3.32352" stroke-linecap="round"/>
<path d="M199.998 188.57C181.297 199.638 163.811 212.95 141.369 216.273C139.706 216.519 139.054 216.443 138.382 216.364" stroke="black" stroke-width="3.43263" stroke-linecap="round"/>
<circle cx="240.335" cy="282.909" r="11.5" fill="#FFACAC"/>
</svg>
