<svg width="378" height="688" viewBox="0 0 378 688" fill="none" xmlns="http://www.w3.org/2000/svg">
<path d="M80.6247 642.772H165.846V687.424H52.8516L80.6247 642.772Z" fill="#4C1515"/>
<path d="M306.658 642.772H221.436V687.424H334.431L306.658 642.772Z" fill="#4C1515"/>
<ellipse cx="197.821" cy="132.595" rx="152.704" ry="132.595" fill="#3E2A26"/>
<path d="M377.064 414.626C375.72 361.772 291.503 286.392 291.503 286.392L301.806 471.811C301.806 471.811 378.407 467.479 377.064 414.626Z" fill="#323030"/>
<path d="M0.894439 412.876C3.04185 359.269 87.9834 284.049 87.9834 284.049L74.8899 472.031C74.8899 472.031 -1.25298 466.483 0.894439 412.876Z" fill="#323030"/>
<path d="M54.8893 654.486L85.5291 510.439C86.3529 506.566 89.6327 503.701 93.5812 503.404L281.391 489.308C285.696 488.985 289.614 491.793 290.691 495.974L331.425 654.117C332.878 659.759 328.618 665.255 322.792 665.255H218.28C214.168 665.255 210.59 662.443 209.618 658.449L194.783 597.506L183.239 658.011C182.437 662.214 178.762 665.255 174.483 665.255H63.6086C57.9388 665.255 53.7097 660.032 54.8893 654.486Z" fill="#393939"/>
<path d="M83.1656 288.384C83.5234 283.74 87.396 280.154 92.0536 280.154H286.787C291.457 280.154 295.336 283.758 295.678 288.415L312.642 519.298C313.022 524.465 308.932 528.866 303.752 528.866H74.2616C69.0684 528.866 64.9745 524.444 65.3735 519.267L83.1656 288.384Z" fill="#323030"/>
<path fill-rule="evenodd" clip-rule="evenodd" d="M152.435 274.802L113.657 329.626H152.435L138.618 353.249L186.755 402.724L234.893 353.249L221.076 329.626H259.853L221.076 274.802L202.515 327.351L186.755 402.724L171.799 329.626L152.435 274.802Z" fill="#3F3D3D"/>
<path d="M221.076 274.802L152.435 274.802C152.435 274.802 171.155 308.231 186.755 308.231C202.355 308.231 221.076 274.802 221.076 274.802Z" fill="#FEE6DA"/>
<path fill-rule="evenodd" clip-rule="evenodd" d="M152.435 274.802L171.799 329.626L186.755 308.231L202.515 327.351L221.076 274.802C221.076 274.802 202.355 308.231 186.755 308.231C171.155 308.231 152.435 274.802 152.435 274.802Z" fill="white"/>
<path d="M171.799 329.626L186.755 402.724L202.515 327.351L186.755 308.231L171.799 329.626Z" fill="#EE6363"/>
<path d="M335.742 171.39C333.276 218.786 299.386 258.483 250.003 274.458C232.344 280.171 212.704 282.85 191.811 281.763C112.491 277.636 45.1507 220.789 48.4985 156.445C51.8463 92.101 118.862 43.2854 198.182 47.4124C277.502 51.5393 339.089 107.046 335.742 171.39Z" fill="#FEE6DA"/>
<path d="M335.742 171.39C333.276 218.786 299.386 258.483 250.003 274.458C303.303 265.363 331.945 250.188 349.498 212.524C350.873 194.719 347.972 185.684 335.742 171.39Z" fill="#FEE6DA"/>
<path d="M48.4985 156.445C43.816 203.661 145.429 258.007 191.811 281.763C63.3302 285.901 36.1476 237.004 35.633 202.433C35.4583 190.717 34.2703 168.59 48.4985 156.445Z" fill="#FEE6DA"/>
<ellipse cx="84.6898" cy="454.874" rx="19.6117" ry="16.9373" fill="#FEE6DA"/>
<ellipse cx="294.177" cy="454.874" rx="19.6117" ry="16.9373" fill="#FEE6DA"/>
<path d="M57.4646 54.0393L95.4369 64.7697L196.574 35.8154L280.657 57.7395L329.169 110.596L342.994 141.732L329.169 180.978L315.308 148.301C308.282 155.207 298.983 162.356 288.322 175.034C292.397 145.252 281.191 148.112 259.562 118.052C237.807 137.445 231.014 149.496 237.622 175.034C221.821 158.792 217.879 149.733 217.792 133.592C211.949 150.317 205.329 159.513 177.71 175.034C191.008 163.207 195.831 156.302 183.195 141.732C144.222 152.688 133.986 164.394 123.705 189.094C114.505 168.513 114.131 158.036 123.705 141.732C123.705 141.732 101.344 155.423 95.4369 175.034C89.5301 194.644 95.4369 199.824 95.4369 199.824L70.5439 189.094L86.9986 141.732C60.0698 161.752 45.6049 173.503 33.8374 206.115C10.2769 179.669 9.11525 163.366 12.7416 133.592C13.3392 96.1459 27.4406 80.358 57.4646 54.0393Z" fill="#3E2A26"/>
</svg>
