<svg width="380" height="666" viewBox="0 0 380 666" fill="none" xmlns="http://www.w3.org/2000/svg">
<path d="M54.5563 654.486L85.1961 510.439C86.0199 506.566 89.2997 503.701 93.2482 503.404L281.058 489.308C285.363 488.985 289.281 491.793 290.358 495.974L331.092 654.117C332.545 659.759 328.285 665.255 322.459 665.255H217.947C213.835 665.255 210.257 662.443 209.285 658.449L194.45 597.506L182.906 658.011C182.104 662.214 178.429 665.255 174.15 665.255H63.2756C57.6058 665.255 53.3767 660.032 54.5563 654.486Z" fill="#1C5374"/>
<ellipse cx="354.016" cy="203.215" rx="16.1611" ry="24.8969" fill="#FFE6D3"/>
<path d="M379.765 414.053C378.448 362.259 295.919 288.389 295.919 288.389L306.016 470.092C306.016 470.092 381.082 465.847 379.765 414.053Z" fill="#1C5374"/>
<path d="M11.1388 412.337C13.2431 359.804 96.4824 286.092 96.4824 286.092L83.6514 470.306C83.6514 470.306 9.03438 464.87 11.1388 412.337Z" fill="#1C5374"/>
<path d="M91.7532 290.338C92.1038 285.787 95.8988 282.273 100.463 282.273H291.294C295.871 282.273 299.671 285.805 300.007 290.369L316.631 516.624C317.003 521.687 312.996 526 307.919 526H83.0276C77.9385 526 73.9267 521.667 74.3177 516.593L91.7532 290.338Z" fill="#3581AE"/>
<path fill-rule="evenodd" clip-rule="evenodd" d="M159.643 277.032L121.643 330.757H159.643L146.103 353.906L193.276 402.39L240.449 353.906L226.908 330.757H264.909L226.908 277.032L208.72 328.527L193.276 402.39L178.619 330.757L159.643 277.032Z" fill="#A9E0FF"/>
<path d="M226.908 277.032L159.643 277.032C159.643 277.032 177.988 309.791 193.276 309.791C208.563 309.791 226.908 277.032 226.908 277.032Z" fill="#FEE6DA"/>
<path fill-rule="evenodd" clip-rule="evenodd" d="M159.643 277.032L178.619 330.757L193.276 309.791L208.72 328.527L226.908 277.032C226.908 277.032 208.563 309.791 193.276 309.791C177.988 309.791 159.643 277.032 159.643 277.032Z" fill="white"/>
<path d="M178.619 330.757L193.276 402.39L208.72 328.527L193.276 309.791L178.619 330.757Z" fill="white"/>
<ellipse cx="93.2489" cy="453.494" rx="19.2186" ry="16.5979" fill="#FEE6DA"/>
<ellipse cx="298.544" cy="453.494" rx="19.2186" ry="16.5979" fill="#FEE6DA"/>
<ellipse cx="198.646" cy="141.127" rx="162.53" ry="141.127" fill="#3E2A26"/>
<path d="M339.274 175.691C336.857 222.137 303.647 261.039 255.253 276.694C237.948 282.292 218.702 284.917 198.227 283.852C120.497 279.808 54.5065 224.1 57.7872 161.045C61.0679 97.9908 126.74 50.1536 204.471 54.1978C282.201 58.2421 342.555 112.636 339.274 175.691Z" fill="url(#paint0_linear_132_97)"/>
<path d="M339.274 175.691C336.857 222.137 303.647 261.039 255.253 276.694C307.485 267.78 335.553 252.91 352.754 216C354.102 198.553 351.259 189.699 339.274 175.691Z" fill="url(#paint1_linear_132_97)"/>
<path d="M57.7872 161.045C53.1985 207.315 152.775 260.572 198.227 283.852C72.3217 287.907 45.6838 239.99 45.1795 206.111C45.0083 194.63 43.8441 172.947 57.7872 161.045Z" fill="url(#paint2_linear_132_97)"/>
<path d="M49.2486 57.5215L89.6643 68.9424L197.31 38.125L286.803 61.4598L338.436 117.718L353.151 150.857L338.436 192.629L323.683 157.849C316.205 165.199 306.308 172.808 294.961 186.301C299.298 154.604 287.371 157.647 264.35 125.653C241.195 146.294 233.965 159.12 240.999 186.301C224.18 169.015 219.985 159.373 219.893 142.193C213.673 159.995 206.628 169.782 177.232 186.301C191.385 173.714 196.519 166.364 183.069 150.857C141.588 162.518 130.694 174.977 119.751 201.267C109.959 179.361 109.562 168.21 119.751 150.857C119.751 150.857 95.9511 165.429 89.6643 186.301C83.3774 207.174 89.6643 212.687 89.6643 212.687L63.1695 201.267L80.683 150.857C52.0215 172.165 36.6258 184.672 24.101 219.382C-0.975413 191.235 -2.21183 173.883 1.64789 142.193C2.28389 102.337 17.2927 85.5337 49.2486 57.5215Z" fill="#3E2A26"/>
<path d="M240.193 271.389C240.193 225.968 212.236 255.863 184.382 251.505C167.802 248.911 150.94 250.376 150.94 273.423L240.193 271.389Z" fill="#FFA7A7"/>
<rect x="281.085" y="27.5669" width="22.1436" height="158.621" fill="#853EA1"/>
<rect x="315.882" y="27.5669" width="22.1436" height="126.535" fill="#853EA1"/>
<rect x="350.684" y="27.5669" width="22.1436" height="96.709" fill="#853EA1"/>
<defs>
<linearGradient id="paint0_linear_132_97" x1="192.739" y1="83.1522" x2="194.805" y2="285.212" gradientUnits="userSpaceOnUse">
<stop stop-color="#988A82"/>
<stop offset="0.614717" stop-color="#FEE6DA"/>
</linearGradient>
<linearGradient id="paint1_linear_132_97" x1="192.739" y1="83.1522" x2="194.805" y2="285.212" gradientUnits="userSpaceOnUse">
<stop stop-color="#988A82"/>
<stop offset="0.614717" stop-color="#FEE6DA"/>
</linearGradient>
<linearGradient id="paint2_linear_132_97" x1="192.739" y1="83.1522" x2="194.805" y2="285.212" gradientUnits="userSpaceOnUse">
<stop stop-color="#988A82"/>
<stop offset="0.614717" stop-color="#FEE6DA"/>
</linearGradient>
</defs>
</svg>
