<svg width="387" height="690" viewBox="0 0 387 690" fill="none" xmlns="http://www.w3.org/2000/svg">
<path d="M89.6237 644.772H174.845V689.424H61.8506L89.6237 644.772Z" fill="#4C1515"/>
<path d="M315.657 644.772H230.435V689.424H343.43L315.657 644.772Z" fill="#4C1515"/>
<path d="M386.063 416.626C384.719 363.772 300.502 288.392 300.502 288.392L310.805 473.811C310.805 473.811 387.407 469.479 386.063 416.626Z" fill="#323030"/>
<path d="M9.89346 414.876C12.0409 361.269 96.9824 286.049 96.9824 286.049L83.889 474.031C83.889 474.031 7.74605 468.483 9.89346 414.876Z" fill="#323030"/>
<path d="M63.8883 656.486L94.5281 512.439C95.3519 508.566 98.6317 505.701 102.58 505.404L290.39 491.308C294.695 490.985 298.613 493.793 299.69 497.974L340.424 656.117C341.877 661.759 337.617 667.255 331.791 667.255H227.279C223.167 667.255 219.589 664.443 218.617 660.449L203.782 599.506L192.238 660.011C191.436 664.214 187.761 667.255 183.482 667.255H72.6076C66.9378 667.255 62.7087 662.032 63.8883 656.486Z" fill="#393939"/>
<path d="M92.1656 290.384C92.5234 285.74 96.396 282.154 101.054 282.154H295.787C300.457 282.154 304.336 285.758 304.678 290.415L321.642 521.298C322.022 526.465 317.932 530.866 312.752 530.866H83.2616C78.0684 530.866 73.9745 526.444 74.3735 521.267L92.1656 290.384Z" fill="#323030"/>
<path fill-rule="evenodd" clip-rule="evenodd" d="M161.434 276.802L122.656 331.626H161.434L147.617 355.249L195.754 404.724L243.892 355.249L230.075 331.626H268.852L230.075 276.802L211.514 329.351L195.754 404.724L180.798 331.626L161.434 276.802Z" fill="#3F3D3D"/>
<path d="M230.075 276.802L161.434 276.802C161.434 276.802 180.154 310.231 195.754 310.231C211.354 310.231 230.075 276.802 230.075 276.802Z" fill="#FEE6DA"/>
<path fill-rule="evenodd" clip-rule="evenodd" d="M161.434 276.802L180.798 331.626L195.754 310.231L211.514 329.351L230.075 276.802C230.075 276.802 211.354 310.231 195.754 310.231C180.154 310.231 161.434 276.802 161.434 276.802Z" fill="white"/>
<path d="M180.798 331.626L195.754 404.724L211.514 329.351L195.754 310.231L180.798 331.626Z" fill="#EE6363"/>
<ellipse cx="93.6898" cy="456.874" rx="19.6117" ry="16.9373" fill="#FEE6DA"/>
<ellipse cx="303.177" cy="456.874" rx="19.6117" ry="16.9373" fill="#FEE6DA"/>
<ellipse cx="198.646" cy="141.127" rx="162.53" ry="141.127" fill="#3E2A26"/>
<path d="M339.274 175.691C336.857 222.137 303.647 261.039 255.253 276.694C237.948 282.292 218.702 284.917 198.227 283.852C120.497 279.808 54.5065 224.1 57.7872 161.045C61.0679 97.9908 126.74 50.1536 204.471 54.1978C282.201 58.2421 342.555 112.636 339.274 175.691Z" fill="#FEE6DA"/>
<path d="M339.274 175.691C336.857 222.137 303.647 261.039 255.253 276.694C307.485 267.78 335.553 252.91 352.754 216C354.102 198.553 351.259 189.699 339.274 175.691Z" fill="#FEE6DA"/>
<path d="M57.7872 161.045C53.1985 207.315 152.775 260.572 198.227 283.852C72.3217 287.907 45.6838 239.99 45.1795 206.111C45.0083 194.63 43.8441 172.947 57.7872 161.045Z" fill="#FEE6DA"/>
<path d="M49.2486 57.5215L89.6643 68.9424L197.31 38.125L286.803 61.4598L338.436 117.718L353.151 150.857L338.436 192.629L323.683 157.849C316.205 165.199 306.308 172.808 294.961 186.301C299.298 154.604 287.371 157.647 264.35 125.653C241.195 146.294 233.965 159.12 240.999 186.301C224.18 169.015 219.985 159.373 219.893 142.193C213.673 159.995 206.628 169.782 177.232 186.301C191.385 173.714 196.519 166.364 183.069 150.857C141.588 162.518 130.694 174.977 119.751 201.267C109.959 179.361 109.562 168.21 119.751 150.857C119.751 150.857 95.9511 165.429 89.6643 186.301C83.3774 207.174 89.6643 212.687 89.6643 212.687L63.1695 201.267L80.683 150.857C52.0215 172.165 36.6258 184.672 24.101 219.382C-0.975413 191.235 -2.21183 173.883 1.64789 142.193C2.28389 102.337 17.2927 85.5337 49.2486 57.5215Z" fill="#3E2A26"/>
<path d="M240.193 247.874C240.193 293.294 212.236 263.4 184.382 267.758C167.802 270.352 150.94 268.887 150.94 245.84L240.193 247.874Z" fill="#FFA7A7"/>
<rect x="97" y="172.697" width="20.5371" height="85" transform="rotate(-66.1652 97 172.697)" fill="#3D3D3D"/>
<rect width="16.0133" height="85" transform="matrix(-0.404101 -0.914714 -0.914714 0.404101 302.661 169.697)" fill="#3D3D3D"/>
</svg>
