<svg width="387" height="690" viewBox="0 0 387 690" fill="none" xmlns="http://www.w3.org/2000/svg">
<path d="M89.6237 644.772H174.845V689.424H61.8506L89.6237 644.772Z" fill="#4C1515"/>
<path d="M315.657 644.772H230.435V689.424H343.43L315.657 644.772Z" fill="#4C1515"/>
<path d="M386.063 416.626C384.719 363.772 300.502 288.392 300.502 288.392L310.805 473.811C310.805 473.811 387.407 469.479 386.063 416.626Z" fill="#323030"/>
<path d="M9.89346 414.876C12.0409 361.269 96.9824 286.049 96.9824 286.049L83.889 474.031C83.889 474.031 7.74605 468.483 9.89346 414.876Z" fill="#323030"/>
<path d="M63.8883 656.486L94.5281 512.439C95.3519 508.566 98.6317 505.701 102.58 505.404L290.39 491.308C294.695 490.985 298.613 493.793 299.69 497.974L340.424 656.117C341.877 661.759 337.617 667.255 331.791 667.255H227.279C223.167 667.255 219.589 664.443 218.617 660.449L203.782 599.506L192.238 660.011C191.436 664.214 187.761 667.255 183.482 667.255H72.6076C66.9378 667.255 62.7087 662.032 63.8883 656.486Z" fill="#393939"/>
<path d="M92.1656 290.384C92.5234 285.74 96.396 282.154 101.054 282.154H295.787C300.457 282.154 304.336 285.758 304.678 290.415L321.642 521.298C322.022 526.465 317.932 530.866 312.752 530.866H83.2616C78.0684 530.866 73.9745 526.444 74.3735 521.267L92.1656 290.384Z" fill="#323030"/>
<path fill-rule="evenodd" clip-rule="evenodd" d="M161.434 276.802L122.656 331.626H161.434L147.617 355.249L195.754 404.724L243.892 355.249L230.075 331.626H268.852L230.075 276.802L211.514 329.351L195.754 404.724L180.798 331.626L161.434 276.802Z" fill="#3F3D3D"/>
<path d="M230.075 276.802L161.434 276.802C161.434 276.802 180.154 310.231 195.754 310.231C211.354 310.231 230.075 276.802 230.075 276.802Z" fill="#FEE6DA"/>
<path fill-rule="evenodd" clip-rule="evenodd" d="M161.434 276.802L180.798 331.626L195.754 310.231L211.514 329.351L230.075 276.802C230.075 276.802 211.354 310.231 195.754 310.231C180.154 310.231 161.434 276.802 161.434 276.802Z" fill="white"/>
<path d="M180.798 331.626L195.754 404.724L211.514 329.351L195.754 310.231L180.798 331.626Z" fill="#EE6363"/>
<ellipse cx="93.6898" cy="456.874" rx="19.6117" ry="16.9373" fill="#FEE6DA"/>
<ellipse cx="303.177" cy="456.874" rx="19.6117" ry="16.9373" fill="#FEE6DA"/>
<ellipse cx="198.646" cy="141.127" rx="162.53" ry="141.127" fill="#3E2A26"/>
<path d="M339.274 175.691C336.857 222.137 303.647 261.039 255.253 276.694C237.948 282.292 218.702 284.917 198.227 283.852C120.497 279.808 54.5065 224.1 57.7872 161.045C61.0679 97.9908 126.74 50.1536 204.471 54.1978C282.201 58.2421 342.555 112.636 339.274 175.691Z" fill="#FEE6DA"/>
<path d="M339.274 175.691C336.857 222.137 303.647 261.039 255.253 276.694C307.485 267.78 335.553 252.91 352.754 216C354.102 198.553 351.259 189.699 339.274 175.691Z" fill="#FEE6DA"/>
<path d="M57.7872 161.045C53.1985 207.315 152.775 260.572 198.227 283.852C72.3217 287.907 45.6838 239.99 45.1795 206.111C45.0083 194.63 43.8441 172.947 57.7872 161.045Z" fill="#FEE6DA"/>
<path d="M49.2486 57.5215L89.6643 68.9424L197.31 38.125L286.803 61.4598L338.436 117.718L353.151 150.857L338.436 192.629L323.683 157.849C316.205 165.199 306.308 172.808 294.961 186.301C299.298 154.604 287.371 157.647 264.35 125.653C241.195 146.294 233.965 159.12 240.999 186.301C224.18 169.015 219.985 159.373 219.893 142.193C213.673 159.995 206.628 169.782 177.232 186.301C191.385 173.714 196.519 166.364 183.069 150.857C141.588 162.518 130.694 174.977 119.751 201.267C109.959 179.361 109.562 168.21 119.751 150.857C119.751 150.857 95.9511 165.429 89.6643 186.301C83.3774 207.174 89.6643 212.687 89.6643 212.687L63.1695 201.267L80.683 150.857C52.0215 172.165 36.6258 184.672 24.101 219.382C-0.975413 191.235 -2.21183 173.883 1.64789 142.193C2.28389 102.337 17.2927 85.5337 49.2486 57.5215Z" fill="#3E2A26"/>
<path d="M240.193 271.389C240.193 225.968 212.236 255.863 184.382 251.505C167.802 248.911 150.94 250.376 150.94 273.423L240.193 271.389Z" fill="#FFA7A7"/>
<rect x="106" y="211" width="27" height="85" fill="#36B5FF"/>
<rect x="255" y="208" width="27" height="88" fill="#36B5FF"/>
<path d="M121.907 181.187C120.583 184.044 120.374 187.165 120.166 190.287C120.023 190.501 119.252 191.34 119.039 191.48C118.548 191.689 117.983 191.83 117.423 192.041C116.441 192.885 115.668 195.741 113.622 195.858C111.798 195.962 110.332 195.775 109.161 195.786C105.481 195.823 104.033 196.084 102.426 197.298C99.9954 199.132 98.0125 201.49 97.5504 202.8C96.9194 204.588 96.6299 209.434 97.8022 213.666C98.2573 215.308 99.2315 218.097 101.86 221.493C103.278 223.325 105.035 225.253 106.706 226.706L106.717 226.716C109.724 229.331 112.637 231.864 116.215 232.961C118.493 233.66 120.624 234.189 122.142 233.936C123.402 233.725 124.376 233.28 124.909 232.602C125.294 232.113 126.248 228.081 128.919 223.022C130 220.973 130.394 219.483 131.832 218.305C133.024 217.328 134.337 216.545 135.91 216.455C137.732 216.351 139.368 216.439 142.438 217.416C144.9 218.2 149.071 219.588 152.303 220.246C155.535 220.904 157.854 221.184 159.123 220.657C161.746 219.567 163.326 218.522 164.554 216.342C165.184 215.224 166.539 212.389 167.433 208.556C167.921 206.465 168.128 204.901 167.919 203.095C167.708 201.278 167.038 198.454 165.064 195.699C163.488 193.501 162.343 192.418 161.701 191.965C161.105 191.546 160.256 191.214 157.378 191.126C155.059 191.056 151.086 191.104 148.685 190.845C145.439 190.495 141.863 190.526 139.332 187.198C138.209 185.721 137.954 183.861 137.37 180.467C136.949 178.016 136.813 175.159 135.612 173.783C135.398 173.539 135.054 173.389 134.733 173.295C134.138 173.12 131.539 172.294 127.857 174.513C125.665 175.834 123.231 178.331 121.907 181.187Z" fill="#0F0F0F"/>
<path d="M245.907 178.187C244.583 181.044 244.374 184.165 244.166 187.287C244.023 187.501 243.252 188.34 243.039 188.48C242.548 188.689 241.983 188.83 241.423 189.041C240.441 189.885 239.668 192.741 237.622 192.858C235.798 192.962 234.332 192.775 233.161 192.786C229.481 192.823 228.033 193.084 226.426 194.298C223.995 196.132 222.012 198.49 221.55 199.8C220.919 201.588 220.63 206.434 221.802 210.666C222.257 212.308 223.232 215.097 225.86 218.493C227.278 220.325 229.035 222.253 230.706 223.706L230.717 223.716C233.724 226.331 236.637 228.864 240.215 229.961C242.493 230.66 244.624 231.189 246.142 230.936C247.402 230.725 248.376 230.28 248.909 229.602C249.294 229.113 250.248 225.081 252.919 220.022C254 217.973 254.394 216.483 255.832 215.305C257.024 214.328 258.337 213.545 259.91 213.455C261.732 213.351 263.368 213.439 266.438 214.416C268.9 215.2 273.071 216.588 276.303 217.246C279.535 217.904 281.854 218.184 283.123 217.657C285.746 216.567 287.326 215.522 288.554 213.342C289.184 212.224 290.539 209.389 291.433 205.556C291.921 203.465 292.128 201.901 291.919 200.095C291.708 198.278 291.038 195.454 289.064 192.699C287.488 190.501 286.343 189.418 285.701 188.965C285.105 188.546 284.256 188.214 281.378 188.126C279.059 188.056 275.086 188.104 272.685 187.845C269.439 187.495 265.863 187.526 263.332 184.198C262.209 182.721 261.954 180.861 261.37 177.467C260.949 175.016 260.813 172.159 259.612 170.783C259.398 170.539 259.054 170.389 258.733 170.295C258.138 170.12 255.539 169.294 251.857 171.513C249.665 172.834 247.231 175.331 245.907 178.187Z" fill="#0F0F0F"/>
<ellipse cx="123" cy="200.5" rx="6" ry="7.5" fill="white"/>
<ellipse cx="247" cy="200.5" rx="6" ry="7.5" fill="white"/>
<ellipse cx="142" cy="207.5" rx="6" ry="7.5" fill="white"/>
<ellipse cx="266" cy="207.5" rx="6" ry="7.5" fill="white"/>
</svg>
