<svg width="230" height="112" viewBox="0 0 230 112" fill="none" xmlns="http://www.w3.org/2000/svg">
<g filter="url(#filter0_i_122_11)">
<rect y="8" width="230" height="96" rx="48" fill="#FF8B07"/>
</g>
<path d="M72.8157 76H61.6965C61.5349 76 61.4541 75.899 61.4541 75.697L61.5753 33.0683C61.5753 32.9067 61.6561 32.8259 61.8177 32.8259H73.7549C76.0778 32.8259 78.1885 33.3914 80.0871 34.5226C81.9454 35.6537 83.4098 37.1585 84.4803 39.0369C85.5508 40.8952 86.0861 42.915 86.0861 45.0964C86.0861 46.8739 85.6821 48.5302 84.8742 50.0652C84.0662 51.6003 83.1068 52.8425 81.9959 53.7918C83.1876 54.9836 84.1167 56.3671 84.7833 57.9426C85.4498 59.5181 85.7831 61.1744 85.7831 62.9114C85.7831 65.315 85.2074 67.5066 84.0561 69.486C82.8846 71.4655 81.3192 73.051 79.36 74.2427C77.4008 75.4142 75.2193 76 72.8157 76ZM73.7549 40.1882H69.0285V49.944H73.7549C75.189 49.944 76.3504 49.4391 77.2392 48.4292C78.1279 47.399 78.5723 46.2881 78.5723 45.0964C78.5723 43.7835 78.0976 42.6423 77.1483 41.6728C76.1989 40.6831 75.0678 40.1882 73.7549 40.1882ZM72.8157 57.4579H69.0285L68.9679 68.4256H72.8157C74.3104 68.4256 75.593 67.8802 76.6635 66.7895C77.734 65.6988 78.2693 64.4061 78.2693 62.9114C78.2693 61.4167 77.734 60.1341 76.6635 59.0636C75.593 57.9931 74.3104 57.4579 72.8157 57.4579ZM88.1463 75.697L95.8419 33.0683C95.8823 32.9067 95.9833 32.8259 96.1449 32.8259H105.143C105.305 32.8259 105.406 32.9067 105.446 33.0683L112.839 75.697C112.859 75.899 112.778 76 112.596 76H105.719C105.517 76 105.406 75.899 105.386 75.697L104.719 71.1524H96.2661L95.5995 75.697C95.5793 75.899 95.4783 76 95.2965 76H88.3887C88.2271 76 88.1463 75.899 88.1463 75.697ZM100.296 47.0961L97.5083 64.5172H103.477L100.932 47.0961L100.568 44.7935L100.296 47.0961ZM128.139 76.606C125.897 76.606 123.847 76.0404 121.989 74.9093C120.151 73.7782 118.686 72.2633 117.596 70.3646C116.525 68.4458 115.99 66.3149 115.99 63.9718L116.05 44.6117C116.05 42.309 116.576 40.2286 117.626 38.3704C118.676 36.4919 120.12 34.9871 121.958 33.856C123.817 32.7047 125.877 32.129 128.139 32.129C130.442 32.129 132.492 32.6845 134.29 33.7954C136.107 34.9063 137.552 36.4111 138.622 38.3098C139.713 40.1882 140.258 42.2888 140.258 44.6117V47.4596C140.258 47.6212 140.177 47.702 140.016 47.702H133.047C132.886 47.702 132.805 47.6212 132.805 47.4596V44.6117C132.805 43.2382 132.361 42.0566 131.472 41.0668C130.583 40.0771 129.472 39.5823 128.139 39.5823C126.665 39.5823 125.534 40.0872 124.746 41.0971C123.958 42.1071 123.564 43.2786 123.564 44.6117V63.9718C123.564 65.4867 124.009 66.7289 124.897 67.6985C125.786 68.6478 126.867 69.1224 128.139 69.1224C129.472 69.1224 130.583 68.5973 131.472 67.547C132.361 66.4764 132.805 65.2847 132.805 63.9718V61.0936C132.805 60.932 132.886 60.8512 133.047 60.8512H140.076C140.238 60.8512 140.319 60.932 140.319 61.0936V63.9718C140.319 66.2947 139.773 68.4155 138.683 70.3343C137.572 72.233 136.107 73.758 134.29 74.9093C132.472 76.0404 130.422 76.606 128.139 76.606ZM152.105 76H145.076C144.914 76 144.833 75.899 144.833 75.697L144.954 33.1289C144.954 32.9269 145.035 32.8259 145.197 32.8259H152.165C152.327 32.8259 152.408 32.9269 152.408 33.1289V47.8232L162.133 33.0683C162.295 32.9067 162.446 32.8259 162.588 32.8259H169.708C169.889 32.8259 169.93 32.9067 169.829 33.0683L159.103 50.1864L171.131 75.7576C171.232 75.9192 171.131 76 170.829 76H163.254C163.052 76 162.931 75.9192 162.891 75.7576L154.498 57.5185L152.347 60.9118V75.697C152.347 75.899 152.266 76 152.105 76Z" fill="white"/>
<defs>
<filter id="filter0_i_122_11" x="0" y="5.766" width="230" height="98.234" filterUnits="userSpaceOnUse" color-interpolation-filters="sRGB">
<feFlood flood-opacity="0" result="BackgroundImageFix"/>
<feBlend mode="normal" in="SourceGraphic" in2="BackgroundImageFix" result="shape"/>
<feColorMatrix in="SourceAlpha" type="matrix" values="0 0 0 0 0 0 0 0 0 0 0 0 0 0 0 0 0 0 127 0" result="hardAlpha"/>
<feOffset dy="-11.17"/>
<feGaussianBlur stdDeviation="1.117"/>
<feComposite in2="hardAlpha" operator="arithmetic" k2="-1" k3="1"/>
<feColorMatrix type="matrix" values="0 0 0 0 0 0 0 0 0 0 0 0 0 0 0 0 0 0 0.25 0"/>
<feBlend mode="normal" in2="shape" result="effect1_innerShadow_122_11"/>
</filter>
</defs>
</svg>
