<svg width="410" height="112" viewBox="0 0 410 112" fill="none" xmlns="http://www.w3.org/2000/svg">
<g filter="url(#filter0_i_60_342)">
<rect y="8.37695" width="409.381" height="96.0622" rx="48.0311" fill="#FF8B07"/>
</g>
<path d="M66.8255 75.697L74.5211 33.0683C74.5615 32.9067 74.6625 32.8259 74.8241 32.8259H83.8225C83.984 32.8259 84.085 32.9067 84.1254 33.0683L91.518 75.697C91.5382 75.899 91.4575 76 91.2757 76H84.3981C84.1961 76 84.085 75.899 84.0648 75.697L83.3983 71.1524H74.9452L74.2787 75.697C74.2585 75.899 74.1575 76 73.9757 76H67.0679C66.9063 76 66.8255 75.899 66.8255 75.697ZM78.9748 47.0961L76.1875 64.5172H82.1561L79.6111 47.0961L79.2475 44.7935L78.9748 47.0961ZM106.758 76H95.6385C95.4769 76 95.3961 75.899 95.3961 75.697L95.5173 33.0683C95.5173 32.9067 95.5981 32.8259 95.7597 32.8259H107.697C110.02 32.8259 112.131 33.3914 114.029 34.5226C115.887 35.6537 117.352 37.1585 118.422 39.0369C119.493 40.8952 120.028 42.915 120.028 45.0964C120.028 46.8739 119.624 48.5302 118.816 50.0652C118.008 51.6003 117.049 52.8425 115.938 53.7918C117.13 54.9836 118.059 56.3671 118.725 57.9426C119.392 59.5181 119.725 61.1744 119.725 62.9114C119.725 65.315 119.149 67.5066 117.998 69.486C116.827 71.4655 115.261 73.051 113.302 74.2427C111.343 75.4142 109.161 76 106.758 76ZM107.697 40.1882H102.971V49.944H107.697C109.131 49.944 110.292 49.4391 111.181 48.4292C112.07 47.399 112.514 46.2881 112.514 45.0964C112.514 43.7835 112.04 42.6423 111.09 41.6728C110.141 40.6831 109.01 40.1882 107.697 40.1882ZM106.758 57.4579H102.971L102.91 68.4256H106.758C108.252 68.4256 109.535 67.8802 110.606 66.7895C111.676 65.6988 112.211 64.4061 112.211 62.9114C112.211 61.4167 111.676 60.1341 110.606 59.0636C109.535 57.9931 108.252 57.4579 106.758 57.4579ZM134.722 76.606C132.521 76.606 130.491 76.0404 128.633 74.9093C126.795 73.7782 125.32 72.2734 124.209 70.3949C123.118 68.4963 122.573 66.4159 122.573 64.1536V61.3057C122.573 61.0835 122.674 60.9724 122.876 60.9724H129.845C130.006 60.9724 130.087 61.0835 130.087 61.3057V64.1536C130.087 65.5069 130.541 66.6784 131.45 67.6682C132.359 68.6377 133.45 69.1224 134.722 69.1224C136.015 69.1224 137.116 68.6276 138.025 67.6379C138.934 66.6279 139.388 65.4665 139.388 64.1536C139.388 62.6387 138.399 61.3158 136.419 60.1846C136.096 59.9827 135.672 59.7403 135.147 59.4575C134.642 59.1545 134.036 58.8112 133.329 58.4274C132.622 58.0436 131.935 57.6699 131.269 57.3064C130.602 56.9226 129.956 56.559 129.329 56.2157C127.067 54.8826 125.381 53.2162 124.27 51.2165C123.179 49.1967 122.634 46.9345 122.634 44.4299C122.634 42.1273 123.199 40.0468 124.33 38.1886C125.461 36.3505 126.936 34.8962 128.754 33.8257C130.592 32.735 132.581 32.1896 134.722 32.1896C136.924 32.1896 138.944 32.735 140.782 33.8257C142.62 34.9366 144.084 36.4111 145.175 38.2492C146.286 40.0872 146.842 42.1475 146.842 44.4299V49.5199C146.842 49.6815 146.761 49.7623 146.599 49.7623H139.631C139.469 49.7623 139.388 49.6815 139.388 49.5199L139.328 44.4299C139.328 42.9756 138.873 41.794 137.964 40.8851C137.055 39.9761 135.975 39.5217 134.722 39.5217C133.45 39.5217 132.359 40.0064 131.45 40.976C130.541 41.9455 130.087 43.0968 130.087 44.4299C130.087 45.7832 130.37 46.9143 130.935 47.8232C131.521 48.7321 132.581 49.6007 134.117 50.4288C134.278 50.5096 134.652 50.7116 135.238 51.0348C135.823 51.3579 136.47 51.7215 137.177 52.1255C137.904 52.5092 138.56 52.8627 139.146 53.1859C139.732 53.4889 140.085 53.6707 140.206 53.7312C142.267 54.8826 143.893 56.2964 145.084 57.9729C146.296 59.6494 146.902 61.7096 146.902 64.1536C146.902 66.5168 146.357 68.6377 145.266 70.5161C144.155 72.3946 142.681 73.8792 140.843 74.9699C139.005 76.0606 136.964 76.606 134.722 76.606ZM162.687 76.606C160.486 76.606 158.456 76.0404 156.597 74.9093C154.759 73.7782 153.275 72.2734 152.144 70.3949C151.033 68.4963 150.477 66.4159 150.477 64.1536L150.538 44.4905C150.538 42.1879 151.093 40.1175 152.204 38.2795C153.295 36.4212 154.769 34.9366 156.628 33.8257C158.486 32.6946 160.506 32.129 162.687 32.129C164.949 32.129 166.979 32.6845 168.777 33.7954C170.595 34.9063 172.049 36.401 173.14 38.2795C174.251 40.1377 174.806 42.2081 174.806 44.4905L174.867 64.1536C174.867 66.4159 174.321 68.4862 173.231 70.3646C172.12 72.2633 170.645 73.7782 168.807 74.9093C166.969 76.0404 164.929 76.606 162.687 76.606ZM162.687 69.1224C163.939 69.1224 165.03 68.6175 165.959 67.6076C166.888 66.5774 167.353 65.4261 167.353 64.1536L167.292 44.4905C167.292 43.117 166.858 41.9556 165.99 41.0062C165.121 40.0569 164.02 39.5823 162.687 39.5823C161.415 39.5823 160.324 40.0468 159.415 40.976C158.506 41.9051 158.052 43.0766 158.052 44.4905V64.1536C158.052 65.5069 158.506 66.6784 159.415 67.6682C160.324 68.6377 161.415 69.1224 162.687 69.1224ZM199.862 76H179.805C179.644 76 179.563 75.899 179.563 75.697L179.624 33.1289C179.624 32.9269 179.725 32.8259 179.927 32.8259H186.834C187.036 32.8259 187.137 32.9269 187.137 33.1289L187.077 68.365H199.862C200.064 68.365 200.165 68.466 200.165 68.668V75.697C200.165 75.899 200.064 76 199.862 76ZM215.647 76.606C213.466 76.606 211.446 76.0404 209.588 74.9093C207.73 73.7782 206.245 72.2633 205.134 70.3646C204.043 68.4458 203.498 66.3553 203.498 64.093L203.619 33.0683C203.619 32.9067 203.7 32.8259 203.862 32.8259H210.83C210.992 32.8259 211.072 32.9067 211.072 33.0683V64.093C211.072 65.4867 211.517 66.6784 212.406 67.6682C213.294 68.6377 214.375 69.1224 215.647 69.1224C216.98 69.1224 218.091 68.6377 218.98 67.6682C219.869 66.6784 220.313 65.4867 220.313 64.093V33.0683C220.313 32.9067 220.394 32.8259 220.556 32.8259H227.524C227.686 32.8259 227.766 32.9067 227.766 33.0683L227.888 64.093C227.888 66.3755 227.342 68.4761 226.252 70.3949C225.141 72.2936 223.666 73.8085 221.828 74.9396C219.99 76.0505 217.93 76.606 215.647 76.606ZM246.006 76H239.007C238.825 76 238.734 75.899 238.734 75.697V40.3094H230.675C230.473 40.3094 230.372 40.2084 230.372 40.0064L230.433 33.0683C230.433 32.9067 230.513 32.8259 230.675 32.8259H254.247C254.469 32.8259 254.58 32.9067 254.58 33.0683V40.0064C254.58 40.2084 254.499 40.3094 254.337 40.3094H246.187L246.248 75.697C246.248 75.899 246.167 76 246.006 76ZM277.909 76H257.852C257.69 76 257.61 75.899 257.61 75.697L257.67 33.0683C257.67 32.9067 257.751 32.8259 257.913 32.8259H277.848C278.01 32.8259 278.091 32.9269 278.091 33.1289V40.067C278.091 40.2286 278.01 40.3094 277.848 40.3094H265.123V50.0046H277.848C278.01 50.0046 278.091 50.0854 278.091 50.247L278.151 57.2761C278.151 57.4377 278.071 57.5185 277.909 57.5185H265.123V68.365H277.909C278.071 68.365 278.151 68.466 278.151 68.668V75.7576C278.151 75.9192 278.071 76 277.909 76ZM303.965 76H283.908C283.746 76 283.666 75.899 283.666 75.697L283.726 33.1289C283.726 32.9269 283.827 32.8259 284.029 32.8259H290.937C291.139 32.8259 291.24 32.9269 291.24 33.1289L291.179 68.365H303.965C304.167 68.365 304.268 68.466 304.268 68.668V75.697C304.268 75.899 304.167 76 303.965 76ZM321.265 76H314.145C314.004 76 313.933 75.9192 313.933 75.7576L313.993 58.1244L305.692 33.0683C305.652 32.9067 305.712 32.8259 305.874 32.8259H312.782C312.984 32.8259 313.105 32.9067 313.145 33.0683L317.72 49.7623L322.386 33.0683C322.426 32.9067 322.527 32.8259 322.689 32.8259H329.657C329.819 32.8259 329.88 32.9067 329.839 33.0683L321.447 57.882L321.507 75.7576C321.507 75.9192 321.426 76 321.265 76ZM339.08 64.5778H334.838C334.656 64.5778 334.555 64.4768 334.535 64.2748L333.232 50.0046V33.1289C333.232 32.9269 333.313 32.8259 333.475 32.8259H340.443C340.645 32.8259 340.746 32.9269 340.746 33.1289L340.686 50.0046L339.383 64.2748C339.363 64.4768 339.262 64.5778 339.08 64.5778ZM340.443 76H333.475C333.313 76 333.232 75.899 333.232 75.697V68.9407C333.232 68.7589 333.313 68.668 333.475 68.668H340.443C340.605 68.668 340.686 68.7589 340.686 68.9407V75.697C340.686 75.899 340.605 76 340.443 76Z" fill="white"/>
<defs>
<filter id="filter0_i_60_342" x="0" y="6.14295" width="409.381" height="98.2963" filterUnits="userSpaceOnUse" color-interpolation-filters="sRGB">
<feFlood flood-opacity="0" result="BackgroundImageFix"/>
<feBlend mode="normal" in="SourceGraphic" in2="BackgroundImageFix" result="shape"/>
<feColorMatrix in="SourceAlpha" type="matrix" values="0 0 0 0 0 0 0 0 0 0 0 0 0 0 0 0 0 0 127 0" result="hardAlpha"/>
<feOffset dy="-11.17"/>
<feGaussianBlur stdDeviation="1.117"/>
<feComposite in2="hardAlpha" operator="arithmetic" k2="-1" k3="1"/>
<feColorMatrix type="matrix" values="0 0 0 0 0 0 0 0 0 0 0 0 0 0 0 0 0 0 0.25 0"/>
<feBlend mode="normal" in2="shape" result="effect1_innerShadow_60_342"/>
</filter>
</defs>
</svg>
