<svg width="708" height="671" viewBox="0 0 708 671" fill="none" xmlns="http://www.w3.org/2000/svg">
<rect width="708" height="671" rx="100" fill="#157BB7"/>
<mask id="mask0_142_494" style="mask-type:alpha" maskUnits="userSpaceOnUse" x="68" y="65" width="572" height="542">
<rect x="68" y="65" width="572" height="542" rx="100" fill="white"/>
</mask>
<g mask="url(#mask0_142_494)">
<rect x="68" y="65" width="572" height="542" rx="100" fill="white"/>
<rect x="-99" y="354" width="937" height="253" rx="100" fill="#64D96D"/>
<rect x="158.009" y="257.654" width="393.401" height="204.346" fill="#A9E0FF"/>
<path d="M390.087 379.346V443.397H353.209V379.346H390.087ZM350.104 379.346V443.397H313.226V379.346H350.104Z" fill="#157BB7" stroke="#142654" stroke-width="3.10551"/>
<rect x="117" y="209" width="474.723" height="83.4066" fill="#157BB7"/>
<path d="M284.619 260.198C283.54 260.198 282.546 259.921 281.636 259.367C280.736 258.813 280.014 258.076 279.47 257.156C278.935 256.226 278.668 255.207 278.668 254.099V252.705C278.668 252.596 278.718 252.541 278.817 252.541H282.23C282.309 252.541 282.348 252.596 282.348 252.705V254.099C282.348 254.762 282.571 255.336 283.016 255.821C283.461 256.295 283.995 256.533 284.619 256.533C285.252 256.533 285.791 256.29 286.236 255.806C286.681 255.311 286.904 254.742 286.904 254.099C286.904 253.357 286.419 252.709 285.45 252.156C285.291 252.057 285.084 251.938 284.826 251.799C284.579 251.651 284.282 251.483 283.936 251.295C283.59 251.107 283.253 250.924 282.927 250.746C282.601 250.558 282.284 250.38 281.977 250.212C280.869 249.559 280.043 248.743 279.499 247.763C278.965 246.774 278.698 245.666 278.698 244.44C278.698 243.312 278.975 242.293 279.529 241.383C280.083 240.483 280.805 239.77 281.695 239.246C282.596 238.712 283.57 238.445 284.619 238.445C285.697 238.445 286.686 238.712 287.586 239.246C288.486 239.79 289.204 240.512 289.738 241.413C290.282 242.313 290.554 243.322 290.554 244.44V246.932C290.554 247.012 290.514 247.051 290.435 247.051H287.022C286.943 247.051 286.904 247.012 286.904 246.932L286.874 244.44C286.874 243.727 286.651 243.149 286.206 242.703C285.761 242.258 285.232 242.036 284.619 242.036C283.995 242.036 283.461 242.273 283.016 242.748C282.571 243.223 282.348 243.787 282.348 244.44C282.348 245.102 282.487 245.656 282.764 246.101C283.051 246.547 283.57 246.972 284.322 247.378C284.401 247.417 284.584 247.516 284.871 247.674C285.158 247.833 285.474 248.011 285.82 248.209C286.177 248.396 286.498 248.57 286.785 248.728C287.072 248.876 287.245 248.965 287.304 248.995C288.313 249.559 289.11 250.251 289.693 251.072C290.287 251.893 290.584 252.902 290.584 254.099C290.584 255.257 290.316 256.295 289.782 257.215C289.238 258.135 288.516 258.862 287.616 259.397C286.716 259.931 285.717 260.198 284.619 260.198ZM298.285 260.198C297.216 260.198 296.227 259.921 295.317 259.367C294.407 258.813 293.68 258.071 293.136 257.141C292.602 256.201 292.335 255.178 292.335 254.07L292.394 238.875C292.394 238.796 292.433 238.756 292.513 238.756H295.925C296.005 238.756 296.044 238.796 296.044 238.875V254.07C296.044 254.752 296.262 255.336 296.697 255.821C297.132 256.295 297.661 256.533 298.285 256.533C298.938 256.533 299.482 256.295 299.917 255.821C300.352 255.336 300.57 254.752 300.57 254.07V238.875C300.57 238.796 300.609 238.756 300.688 238.756H304.101C304.18 238.756 304.22 238.796 304.22 238.875L304.279 254.07C304.279 255.187 304.012 256.216 303.478 257.156C302.934 258.086 302.212 258.828 301.312 259.382C300.412 259.926 299.403 260.198 298.285 260.198ZM310.23 259.901H306.817C306.718 259.901 306.668 259.852 306.668 259.753L306.728 238.875C306.728 238.796 306.767 238.756 306.846 238.756H312.693C314.552 238.756 316.021 239.325 317.1 240.463C318.188 241.591 318.732 243.129 318.732 245.078C318.732 246.502 318.45 247.744 317.886 248.802C317.312 249.851 316.57 250.662 315.66 251.236C314.75 251.809 313.761 252.096 312.693 252.096H310.378V259.753C310.378 259.852 310.328 259.901 310.23 259.901ZM312.693 242.362L310.378 242.392V248.416H312.693C313.336 248.416 313.895 248.11 314.369 247.496C314.844 246.873 315.082 246.067 315.082 245.078C315.082 244.286 314.869 243.638 314.444 243.134C314.018 242.619 313.435 242.362 312.693 242.362ZM330.499 259.901H320.676C320.597 259.901 320.557 259.852 320.557 259.753L320.587 238.875C320.587 238.796 320.626 238.756 320.705 238.756H330.469C330.548 238.756 330.588 238.806 330.588 238.905V242.303C330.588 242.382 330.548 242.422 330.469 242.422H324.237V247.17H330.469C330.548 247.17 330.588 247.209 330.588 247.289L330.617 250.731C330.617 250.81 330.578 250.85 330.499 250.85H324.237V256.162H330.499C330.578 256.162 330.617 256.211 330.617 256.31V259.782C330.617 259.862 330.578 259.901 330.499 259.901ZM336.879 259.901H333.437C333.358 259.901 333.318 259.852 333.318 259.753L333.377 238.875C333.377 238.796 333.417 238.756 333.496 238.756H339.639C340.737 238.756 341.746 239.024 342.666 239.558C343.586 240.092 344.318 240.809 344.862 241.709C345.416 242.61 345.693 243.628 345.693 244.766C345.693 245.508 345.579 246.181 345.352 246.784C345.124 247.387 344.857 247.897 344.551 248.312C344.254 248.728 343.982 249.035 343.735 249.232C344.833 250.449 345.382 251.879 345.382 253.521L345.411 259.753C345.411 259.852 345.362 259.901 345.263 259.901H341.82C341.741 259.901 341.702 259.871 341.702 259.812V253.521C341.702 252.789 341.444 252.156 340.93 251.621C340.416 251.087 339.783 250.82 339.031 250.82H337.028L336.998 259.753C336.998 259.852 336.958 259.901 336.879 259.901ZM339.639 242.392H337.028V247.17H339.639C340.262 247.17 340.816 246.937 341.301 246.472C341.796 246.007 342.043 245.439 342.043 244.766C342.043 244.123 341.806 243.569 341.331 243.104C340.856 242.629 340.292 242.392 339.639 242.392ZM351.539 259.901H348.097C348.018 259.901 347.978 259.852 347.978 259.753L348.038 238.875C348.038 238.796 348.077 238.756 348.156 238.756H351.866C351.945 238.756 352.014 238.796 352.074 238.875L354.848 242.882L357.608 238.875C357.668 238.796 357.742 238.756 357.831 238.756H361.555C361.644 238.756 361.689 238.796 361.689 238.875L361.748 259.753C361.748 259.852 361.709 259.901 361.63 259.901H358.187C358.108 259.901 358.068 259.852 358.068 259.753L358.039 244.247L354.848 248.876L351.688 244.247L351.658 259.753C351.658 259.852 351.619 259.901 351.539 259.901ZM363.277 259.753L367.046 238.875C367.065 238.796 367.115 238.756 367.194 238.756H371.601C371.68 238.756 371.73 238.796 371.749 238.875L375.37 259.753C375.38 259.852 375.34 259.901 375.251 259.901H371.883C371.784 259.901 371.73 259.852 371.72 259.753L371.393 257.527H367.253L366.927 259.753C366.917 259.852 366.867 259.901 366.778 259.901H363.395C363.316 259.901 363.277 259.852 363.277 259.753ZM369.227 245.745L367.862 254.277H370.785L369.538 245.745L369.36 244.618L369.227 245.745ZM380.83 259.901H377.388C377.309 259.901 377.269 259.852 377.269 259.753L377.329 238.875C377.329 238.796 377.368 238.756 377.447 238.756H383.59C384.688 238.756 385.697 239.024 386.617 239.558C387.537 240.092 388.269 240.809 388.813 241.709C389.367 242.61 389.644 243.628 389.644 244.766C389.644 245.508 389.531 246.181 389.303 246.784C389.076 247.387 388.808 247.897 388.502 248.312C388.205 248.728 387.933 249.035 387.686 249.232C388.784 250.449 389.333 251.879 389.333 253.521L389.362 259.753C389.362 259.852 389.313 259.901 389.214 259.901H385.772C385.692 259.901 385.653 259.871 385.653 259.812V253.521C385.653 252.789 385.396 252.156 384.881 251.621C384.367 251.087 383.734 250.82 382.982 250.82H380.979L380.949 259.753C380.949 259.852 380.909 259.901 380.83 259.901ZM383.59 242.392H380.979V247.17H383.59C384.214 247.17 384.767 246.937 385.252 246.472C385.747 246.007 385.994 245.439 385.994 244.766C385.994 244.123 385.757 243.569 385.282 243.104C384.807 242.629 384.243 242.392 383.59 242.392ZM395.491 259.901H392.048C391.969 259.901 391.929 259.852 391.929 259.753L391.989 238.905C391.989 238.806 392.028 238.756 392.107 238.756H395.52C395.599 238.756 395.639 238.806 395.639 238.905V246.101L400.402 238.875C400.481 238.796 400.555 238.756 400.625 238.756H404.112C404.201 238.756 404.221 238.796 404.171 238.875L398.918 247.259L404.809 259.782C404.859 259.862 404.809 259.901 404.661 259.901H400.951C400.852 259.901 400.793 259.862 400.773 259.782L396.663 250.85L395.609 252.512V259.753C395.609 259.852 395.57 259.901 395.491 259.901ZM416.116 259.901H406.293C406.214 259.901 406.174 259.852 406.174 259.753L406.204 238.875C406.204 238.796 406.243 238.756 406.323 238.756H416.086C416.165 238.756 416.205 238.806 416.205 238.905V242.303C416.205 242.382 416.165 242.422 416.086 242.422H409.854V247.17H416.086C416.165 247.17 416.205 247.209 416.205 247.289L416.235 250.731C416.235 250.81 416.195 250.85 416.116 250.85H409.854V256.162H416.116C416.195 256.162 416.235 256.211 416.235 256.31V259.782C416.235 259.862 416.195 259.901 416.116 259.901ZM425.42 259.901H421.992C421.903 259.901 421.858 259.852 421.858 259.753V242.422H417.911C417.812 242.422 417.763 242.372 417.763 242.273L417.793 238.875C417.793 238.796 417.832 238.756 417.911 238.756H429.456C429.564 238.756 429.619 238.796 429.619 238.875V242.273C429.619 242.372 429.579 242.422 429.5 242.422H425.509L425.538 259.753C425.538 259.852 425.499 259.901 425.42 259.901Z" fill="white"/>
</g>
</svg>
