<svg width="708" height="671" viewBox="0 0 708 671" fill="none" xmlns="http://www.w3.org/2000/svg">
<rect width="708" height="671" rx="100" fill="#157BB7"/>
<mask id="mask0_142_517" style="mask-type:alpha" maskUnits="userSpaceOnUse" x="68" y="65" width="572" height="542">
<rect x="68" y="65" width="572" height="542" rx="100" fill="white"/>
</mask>
<g mask="url(#mask0_142_517)">
<rect x="68" y="65" width="572" height="542" rx="100" fill="white"/>
<rect x="129" y="148.621" width="397" height="462" transform="rotate(-7.03469 129 148.621)" fill="#F2AE6B"/>
<path d="M224.264 243.432L214.979 244.355C214.766 244.377 214.646 244.254 214.619 243.987L209.181 187.663C209.16 187.45 209.256 187.332 209.47 187.311L226.038 185.664C228.999 185.37 231.792 185.82 234.417 187.014C237.041 188.208 239.208 189.946 240.917 192.228C242.652 194.507 243.672 197.181 243.977 200.249C244.176 202.25 244.05 204.095 243.598 205.783C243.146 207.472 242.562 208.917 241.847 210.12C241.158 211.32 240.506 212.22 239.892 212.82C243.18 215.807 245.044 219.515 245.484 223.944L247.235 240.745C247.262 241.011 247.142 241.158 246.875 241.185L237.59 242.108C237.377 242.129 237.262 242.059 237.246 241.899L235.559 224.931C235.363 222.957 234.5 221.318 232.969 220.015C231.438 218.712 229.659 218.162 227.632 218.363L222.229 218.901L224.544 243C224.57 243.267 224.477 243.411 224.264 243.432ZM227.013 195.469L219.969 196.169L221.25 209.056L228.294 208.355C229.975 208.188 231.406 207.413 232.589 206.029C233.798 204.642 234.313 203.042 234.132 201.228C233.96 199.494 233.171 198.063 231.766 196.936C230.358 195.783 228.774 195.294 227.013 195.469ZM281.012 237.791L254.519 240.425C254.305 240.446 254.185 240.323 254.159 240.056L248.641 183.741C248.62 183.527 248.716 183.41 248.929 183.389L275.262 180.771C275.476 180.749 275.596 180.872 275.622 181.139L276.533 190.304C276.555 190.517 276.459 190.634 276.245 190.656L259.437 192.327L260.71 205.133L277.518 203.462C277.732 203.441 277.849 203.537 277.87 203.75L278.873 213.027C278.894 213.24 278.798 213.358 278.585 213.379L261.696 215.058L263.121 229.385L280.009 227.706C280.223 227.685 280.343 227.808 280.369 228.074L281.3 237.439C281.321 237.652 281.225 237.77 281.012 237.791ZM303.783 236.336C300.821 236.63 298.039 236.152 295.436 234.902C292.859 233.649 290.726 231.841 289.036 229.476C287.37 227.082 286.383 224.338 286.076 221.243L283.613 195.662C283.311 192.621 283.732 189.804 284.875 187.211C286.016 184.592 287.726 182.415 290.005 180.679C292.308 178.914 294.954 177.884 297.942 177.587C300.984 177.284 303.765 177.749 306.285 178.98C308.832 180.209 310.937 182.007 312.601 184.374C314.288 186.712 315.284 189.415 315.589 192.483L315.963 196.245C315.984 196.459 315.888 196.576 315.675 196.597L306.47 197.512C306.257 197.533 306.14 197.437 306.118 197.224L305.744 193.462C305.564 191.648 304.822 190.145 303.518 188.955C302.214 187.764 300.682 187.256 298.921 187.431C296.973 187.625 295.546 188.441 294.638 189.878C293.73 191.315 293.363 192.915 293.538 194.675L296.081 220.248C296.279 222.249 297.03 223.832 298.331 224.996C299.629 226.133 301.119 226.618 302.8 226.451C304.561 226.276 305.959 225.436 306.995 223.932C308.029 222.401 308.459 220.769 308.287 219.035L307.909 215.233C307.887 215.019 307.984 214.902 308.197 214.881L317.482 213.958C317.695 213.937 317.812 214.033 317.834 214.246L318.212 218.048C318.517 221.116 318.075 223.989 316.886 226.667C315.668 229.321 313.934 231.527 311.684 233.287C309.431 235.02 306.797 236.036 303.783 236.336ZM352.567 230.678L326.074 233.311C325.861 233.333 325.741 233.21 325.714 232.943L320.197 176.627C320.175 176.414 320.271 176.296 320.485 176.275L346.818 173.657C347.031 173.636 347.151 173.759 347.178 174.026L348.089 183.19C348.11 183.404 348.014 183.521 347.801 183.542L330.992 185.213L332.265 198.019L349.074 196.348C349.287 196.327 349.404 196.423 349.426 196.637L350.429 205.913C350.45 206.127 350.354 206.244 350.14 206.265L333.252 207.944L334.676 222.271L351.565 220.593C351.778 220.571 351.898 220.694 351.925 220.961L352.856 230.326C352.877 230.539 352.781 230.656 352.567 230.678ZM369.856 228.959L360.571 229.882C360.304 229.908 360.158 229.788 360.131 229.521L354.614 173.206C354.592 172.992 354.688 172.875 354.902 172.854L364.106 171.939C364.32 171.917 364.437 172.013 364.458 172.227L370.136 228.527C370.163 228.794 370.069 228.938 369.856 228.959ZM386.984 227.256L377.78 228.171C377.513 228.198 377.366 228.078 377.34 227.811L371.902 171.487C371.881 171.273 371.977 171.156 372.19 171.135L387.958 169.567C392.974 169.069 397.089 170.209 400.302 172.988C403.539 175.738 405.419 179.741 405.941 184.997C406.323 188.839 405.896 192.262 404.659 195.268C403.392 198.25 401.609 200.637 399.308 202.428C397.007 204.22 394.416 205.259 391.535 205.545L385.292 206.166L387.345 226.816C387.371 227.083 387.251 227.23 386.984 227.256ZM388.925 179.292L382.69 179.993L384.305 196.241L390.548 195.62C392.282 195.448 393.708 194.471 394.824 192.69C395.937 190.881 396.362 188.643 396.096 185.975C395.884 183.841 395.137 182.15 393.854 180.904C392.569 179.63 390.926 179.093 388.925 179.292ZM432.327 222.749L423.082 223.668C422.842 223.691 422.709 223.57 422.682 223.303L418.035 176.56L407.39 177.618C407.123 177.645 406.977 177.525 406.95 177.258L406.119 168.085C406.098 167.872 406.194 167.755 406.407 167.733L437.543 164.638C437.836 164.609 437.994 164.701 438.015 164.914L438.926 174.079C438.953 174.346 438.859 174.49 438.646 174.511L427.88 175.581L432.607 222.316C432.634 222.583 432.54 222.727 432.327 222.749Z" fill="white"/>
</g>
</svg>
