<svg width="708" height="671" viewBox="0 0 708 671" fill="none" xmlns="http://www.w3.org/2000/svg">
<rect width="708" height="671" rx="100" fill="#157BB7"/>
<mask id="mask0_125_84" style="mask-type:alpha" maskUnits="userSpaceOnUse" x="68" y="65" width="572" height="542">
<rect x="68" y="65" width="572" height="542" rx="100" fill="white"/>
</mask>
<g mask="url(#mask0_125_84)">
<rect x="68" y="65" width="572" height="542" rx="100" fill="white"/>
<ellipse cx="376.821" cy="243.595" rx="152.704" ry="132.595" fill="#3E2A26"/>
<path d="M556.064 525.626C554.72 472.772 470.503 397.392 470.503 397.392L480.806 582.811C480.806 582.811 557.407 578.479 556.064 525.626Z" fill="#323030"/>
<path d="M179.894 523.876C182.042 470.269 266.983 395.049 266.983 395.049L253.89 583.031C253.89 583.031 177.747 577.483 179.894 523.876Z" fill="#323030"/>
<path d="M233.889 765.486L264.529 621.439C265.353 617.566 268.633 614.701 272.581 614.404L460.391 600.308C464.696 599.985 468.614 602.793 469.691 606.974L510.425 765.117C511.878 770.759 507.618 776.255 501.792 776.255H397.28C393.168 776.255 389.59 773.443 388.618 769.449L373.783 708.506L362.239 769.011C361.437 773.214 357.762 776.255 353.483 776.255H242.609C236.939 776.255 232.71 771.032 233.889 765.486Z" fill="#393939"/>
<path d="M262.166 399.384C262.523 394.74 266.396 391.154 271.054 391.154H465.787C470.457 391.154 474.336 394.758 474.678 399.415L491.642 630.298C492.022 635.465 487.932 639.866 482.752 639.866H253.262C248.068 639.866 243.975 635.444 244.374 630.267L262.166 399.384Z" fill="#323030"/>
<path fill-rule="evenodd" clip-rule="evenodd" d="M331.435 385.802L292.657 440.626H331.435L317.618 464.249L365.755 513.724L413.893 464.249L400.076 440.626H438.853L400.076 385.802L381.515 438.351L365.755 513.724L350.799 440.626L331.435 385.802Z" fill="#3F3D3D"/>
<path d="M400.076 385.802L331.435 385.802C331.435 385.802 350.155 419.231 365.755 419.231C381.355 419.231 400.076 385.802 400.076 385.802Z" fill="#FEE6DA"/>
<path fill-rule="evenodd" clip-rule="evenodd" d="M331.435 385.802L350.799 440.626L365.755 419.231L381.515 438.351L400.076 385.802C400.076 385.802 381.355 419.231 365.755 419.231C350.155 419.231 331.435 385.802 331.435 385.802Z" fill="white"/>
<path d="M350.799 440.626L365.755 513.724L381.515 438.351L365.755 419.231L350.799 440.626Z" fill="#EE6363"/>
<path d="M514.742 282.39C512.276 329.785 478.386 369.483 429.003 385.458C411.344 391.171 391.704 393.85 370.811 392.763C291.491 388.636 224.151 331.789 227.499 267.445C230.846 203.101 297.862 154.285 377.182 158.412C456.502 162.539 518.089 218.046 514.742 282.39Z" fill="#FEE6DA"/>
<path d="M514.742 282.39C512.276 329.785 478.386 369.483 429.003 385.458C482.303 376.362 510.945 361.188 528.498 323.524C529.873 305.719 526.972 296.684 514.742 282.39Z" fill="#FEE6DA"/>
<path d="M227.499 267.445C222.816 314.66 324.429 369.007 370.811 392.763C242.33 396.901 215.148 348.004 214.633 313.433C214.458 301.717 213.27 279.589 227.499 267.445Z" fill="#FEE6DA"/>
<ellipse cx="263.69" cy="565.875" rx="19.6117" ry="16.9373" fill="#FEE6DA"/>
<ellipse cx="473.177" cy="565.875" rx="19.6117" ry="16.9373" fill="#FEE6DA"/>
<path d="M236.465 165.039L274.437 175.77L375.574 146.815L459.657 168.739L508.169 221.596L521.994 252.732L508.169 291.978L494.308 259.301C487.282 266.207 477.983 273.356 467.322 286.034C471.397 256.252 460.191 259.112 438.562 229.052C416.807 248.445 410.014 260.496 416.622 286.034C400.821 269.792 396.879 260.733 396.792 244.592C390.949 261.317 384.329 270.513 356.71 286.034C370.008 274.207 374.831 267.302 362.195 252.732C323.222 263.688 312.986 275.394 302.705 300.094C293.505 279.513 293.131 269.036 302.705 252.732C302.705 252.732 280.344 266.423 274.437 286.034C268.53 305.644 274.437 310.824 274.437 310.824L249.544 300.094L265.999 252.732C239.07 272.752 224.605 284.503 212.837 317.115C189.277 290.669 188.115 274.366 191.742 244.592C192.339 207.146 206.441 191.358 236.465 165.039Z" fill="#3E2A26"/>
<rect x="263" y="532.615" width="208.321" height="75.3977" fill="#804C18"/>
<rect x="286.454" y="519.198" width="59.7596" height="106.674" transform="rotate(-42.2726 286.454 519.198)" fill="#69B940"/>
<rect x="307.118" y="519.198" width="59.7596" height="106.674" transform="rotate(-42.2726 307.118 519.198)" fill="#409713"/>
<rect x="276.403" y="550.489" width="194.917" height="57.5256" fill="#462709"/>
</g>
</svg>
