<svg width="708" height="671" viewBox="0 0 708 671" fill="none" xmlns="http://www.w3.org/2000/svg">
<rect width="708" height="671" rx="100" fill="#157BB7"/>
<mask id="mask0_125_85" style="mask-type:alpha" maskUnits="userSpaceOnUse" x="68" y="65" width="572" height="542">
<rect x="68" y="65" width="572" height="542" rx="100" fill="white"/>
</mask>
<g mask="url(#mask0_125_85)">
<rect x="68" y="65" width="572" height="542" rx="100" fill="white"/>
<rect x="104" y="152.07" width="342.143" height="167.984" transform="rotate(-7.90748 104 152.07)" fill="#FF2626"/>
<path d="M166.866 264.05L155.754 265.489C155.435 265.531 155.254 265.392 155.213 265.072L146.578 197.668C146.545 197.412 146.656 197.268 146.912 197.235L157.928 195.808C158.184 195.774 158.328 195.886 158.361 196.141L167.188 263.521C167.229 263.84 167.122 264.017 166.866 264.05ZM196.112 261.235C191.961 261.773 188.157 261.356 184.701 259.986C181.276 258.611 178.461 256.557 176.256 253.823C174.079 251.053 172.759 247.88 172.295 244.304L168.364 213.206C167.892 209.566 168.378 206.175 169.822 203.033C171.23 199.864 173.416 197.194 176.382 195.024C179.343 192.822 182.884 191.454 187.003 190.921C191.218 190.375 195.004 190.777 198.361 192.128C201.718 193.479 204.483 195.523 206.655 198.261C208.856 200.963 210.19 204.118 210.658 207.726L214.781 238.8C215.24 242.344 214.77 245.733 213.371 248.966C211.939 252.204 209.743 254.923 206.781 257.125C203.852 259.323 200.295 260.693 196.112 261.235ZM202.902 240.339L198.779 209.265C198.481 206.966 197.377 205.21 195.467 203.996C193.588 202.779 191.276 202.348 188.53 202.704C185.72 203.068 183.561 204.078 182.055 205.734C180.549 207.39 179.945 209.368 180.243 211.667L184.27 242.753C184.584 245.179 185.679 246.986 187.553 248.171C189.427 249.357 191.77 249.768 194.58 249.404C197.326 249.048 199.47 248.056 201.012 246.428C202.587 244.795 203.217 242.766 202.902 240.339ZM268.158 250.83L250.592 253.203C250.273 253.244 250.092 253.105 250.051 252.786L241.512 185.369C241.478 185.113 241.59 184.969 241.845 184.936L260.178 182.463C263.805 181.896 267.202 182.3 270.367 183.676C273.564 185.047 276.236 187.12 278.381 189.894C280.554 192.632 281.874 195.805 282.341 199.414L285.99 227.578C286.478 231.346 286.015 234.912 284.6 238.277C283.149 241.615 281.011 244.408 278.186 246.657C275.356 248.874 272.013 250.265 268.158 250.83ZM261.698 194.198L254.861 195.182L260.524 239.643L266.607 238.855C269.033 238.541 270.967 237.43 272.409 235.522C273.85 233.615 274.417 231.48 274.111 229.117L270.45 200.857C270.181 198.781 269.181 197.076 267.45 195.742C265.714 194.376 263.797 193.862 261.698 194.198ZM291.099 247.468L294.535 178.499C294.565 178.236 294.708 178.087 294.964 178.054L309.19 176.211C309.445 176.178 309.621 176.285 309.718 176.532L330.136 242.411C330.209 242.726 330.102 242.902 329.815 242.939L318.942 244.348C318.623 244.389 318.426 244.252 318.353 243.937L316.369 236.889L303.005 238.62L302.882 245.941C302.892 246.265 302.753 246.445 302.465 246.482L291.545 247.897C291.289 247.93 291.141 247.787 291.099 247.468ZM304.449 199.764L303.61 227.876L313.046 226.654L305.454 199.634L304.408 196.068L304.449 199.764ZM349.98 240.327L338.724 241.785C338.5 241.814 338.372 241.701 338.339 241.445L334.823 213.556L316.568 175.645C316.471 175.398 316.55 175.258 316.805 175.225L327.726 173.81C328.045 173.768 328.253 173.871 328.35 174.119L339.002 199.573L342.959 172.226C342.99 171.962 343.133 171.814 343.389 171.781L354.405 170.353C354.661 170.32 354.773 170.436 354.742 170.699L346.557 211.647L350.313 239.894C350.347 240.149 350.235 240.294 349.98 240.327ZM383.776 236.922C380.296 237.373 376.971 236.895 373.801 235.487C370.664 234.076 368.025 231.999 365.884 229.257C363.77 226.478 362.482 223.301 362.019 219.725L361.436 215.222C361.39 214.871 361.527 214.675 361.846 214.633L372.863 213.206C373.118 213.173 373.269 213.332 373.314 213.683L373.897 218.186C374.175 220.325 375.133 222.084 376.773 223.463C378.408 224.809 380.232 225.352 382.244 225.092C384.287 224.827 385.926 223.819 387.16 222.068C388.39 220.285 388.871 218.356 388.602 216.281C388.292 213.886 386.456 211.997 383.095 210.614C382.543 210.361 381.823 210.065 380.935 209.725C380.074 209.35 379.046 208.931 377.85 208.469C376.654 208.007 375.491 207.557 374.363 207.119C373.231 206.649 372.134 206.206 371.074 205.792C367.225 204.147 364.217 201.859 362.051 198.925C359.913 195.955 358.588 192.49 358.075 188.531C357.603 184.891 358.071 181.486 359.479 178.316C360.891 175.179 362.924 172.578 365.578 170.513C368.261 168.412 371.294 167.143 374.679 166.704C378.16 166.253 381.465 166.702 384.594 168.05C387.727 169.429 390.344 171.46 392.445 174.143C394.578 176.821 395.878 179.964 396.345 183.573L397.388 191.62C397.421 191.875 397.31 192.019 397.054 192.052L386.038 193.48C385.782 193.513 385.638 193.402 385.605 193.146L384.467 185.112C384.169 182.813 383.208 181.038 381.585 179.787C379.962 178.536 378.161 178.039 376.181 178.295C374.169 178.556 372.544 179.546 371.306 181.265C370.067 182.984 369.585 184.897 369.858 187.004C370.135 189.144 370.814 190.874 371.894 192.195C373.006 193.512 374.86 194.668 377.457 195.663C377.729 195.757 378.361 196 379.353 196.391C380.345 196.782 381.442 197.224 382.642 197.718C383.87 198.176 384.98 198.6 385.973 198.991C386.961 199.35 387.557 199.565 387.761 199.636C391.254 201.035 394.114 202.937 396.341 205.343C398.6 207.745 399.98 210.878 400.481 214.742C400.965 218.478 400.537 221.942 399.197 225.135C397.826 228.333 395.799 230.982 393.116 233.082C390.434 235.183 387.321 236.463 383.776 236.922ZM416.613 213.334L409.908 214.202C409.62 214.24 409.44 214.101 409.367 213.785L404.384 191.492L400.928 164.813C400.887 164.494 400.994 164.318 401.249 164.285L412.266 162.857C412.585 162.816 412.765 162.955 412.807 163.274L416.167 189.966L417.03 212.793C417.04 213.116 416.901 213.296 416.613 213.334ZM421.108 231.112L410.092 232.539C409.836 232.572 409.688 232.429 409.646 232.11L408.263 221.429C408.225 221.141 408.335 220.981 408.59 220.948L419.607 219.521C419.862 219.488 420.008 219.615 420.046 219.902L421.429 230.583C421.471 230.903 421.364 231.079 421.108 231.112Z" fill="white"/>
<ellipse cx="610.102" cy="444.112" rx="16.1149" ry="24.8257" transform="rotate(4.94414 610.102 444.112)" fill="#FFE6D3"/>
<path d="M617.562 655.778C620.705 604.211 545.066 523.733 545.066 523.733L539.481 705.111C539.481 705.111 614.42 707.345 617.562 655.778Z" fill="#323030"/>
<path d="M251.507 622.393C258.112 570.386 347.14 504.312 347.14 504.312L318.562 686.214C318.562 686.214 244.902 674.401 251.507 622.393Z" fill="#323030"/>
<path d="M342.08 508.122C342.82 503.631 346.892 500.466 351.426 500.858L541.004 517.258C545.55 517.651 549.022 521.487 548.963 526.049L546.035 752.248C545.969 757.309 541.617 761.249 536.574 760.813L313.16 741.486C308.104 741.049 304.491 736.4 305.316 731.393L342.08 508.122Z" fill="#323030"/>
<path fill-rule="evenodd" clip-rule="evenodd" d="M410.662 500.739L368.294 550.845L406.045 554.111L390.604 575.945L433.301 628.164L484.33 584.053L472.868 559.892L510.619 563.157L477.485 506.52L454.991 556.114L433.301 628.164L424.897 555.742L410.662 500.739Z" fill="#3F3D3D"/>
<path d="M477.485 506.52L410.662 500.739C410.662 500.739 426.071 534.86 441.258 536.173C456.446 537.487 477.485 506.52 477.485 506.52Z" fill="#FEE6DA"/>
<path fill-rule="evenodd" clip-rule="evenodd" d="M410.662 500.739L424.897 555.742L441.258 536.173L454.991 556.114L477.485 506.52C477.485 506.52 456.446 537.487 441.258 536.173C426.071 534.86 410.662 500.739 410.662 500.739Z" fill="white"/>
<path d="M424.897 555.742L433.301 628.164L454.991 556.114L441.258 536.173L424.897 555.742Z" fill="#EE6363"/>
<path d="M597.822 415.501C591.429 461.435 555.094 497.227 505.673 508.62C488 512.694 468.654 513.648 448.406 510.831C371.534 500.133 310.764 439.12 319.442 376.762C328.12 314.403 397.472 272.524 474.345 283.222C551.217 293.919 606.499 353.143 597.822 415.501Z" fill="#FEE6DA"/>
<path d="M597.822 415.501C591.429 461.435 555.094 497.227 505.673 508.62C558.328 504.254 587.49 491.893 607.749 456.705C610.588 439.487 608.525 430.447 597.822 415.501Z" fill="#FEE6DA"/>
<path d="M319.442 376.762C310.908 422.333 405.254 483.798 448.406 510.831C322.979 504.04 300.634 454.148 303.045 420.448C303.861 409.028 304.568 387.386 319.442 376.762Z" fill="#FEE6DA"/>
<path d="M543.661 229.762L580.336 277.561C580.336 277.561 612.372 274.42 619.472 285.186C626.572 295.951 624.329 354.606 652.388 399.49C641.758 400.834 634.349 400.667 627.676 396.511C630.365 424.013 629.073 438.136 609.341 455.213C611.646 444.654 613.12 437.3 611.452 428.261C606.809 443.771 604.508 452.703 587.936 458.862C592.341 424.297 571.235 420.88 530.155 417.114C536.224 388.936 531.616 371.086 522.383 338.981C515.258 356.178 515.265 366.422 519.486 385.326C502.671 357.92 501.525 340.092 509.792 305.255L494.304 317.874L493.395 298.934C456.952 329.889 464.114 351.344 461.609 387.342C447.759 375.414 446.687 367.058 445.113 352.073C436.172 371.856 432.607 388.51 430.193 414.84L416.221 401.172C414.35 409.136 415.707 415.926 418.099 425.774C396.19 404.944 390.911 391.394 391.872 364.374C377.137 378.191 374.788 387.358 367.427 402.612C360.711 391.456 360.533 385.342 364.044 374.589C344.157 399.869 343.777 410.993 349.293 424.879C341.299 416.415 337.072 411.128 329.99 400.791C320.249 412.969 318.3 426.025 319.055 450.261C297.571 444.04 296.084 432.812 300.548 407.564C282.423 422.581 279.213 432.587 282.588 452.538C257.45 410.57 263.654 391.283 297.244 361.575C270.215 360.296 261.804 369.452 250.179 390.715C237.262 349.436 251.342 330.849 287.761 300.094C271.405 302.187 253.402 303.219 229.986 297.653C395.308 259.497 433.274 198.435 543.661 229.762Z" fill="#3C3834"/>
<path d="M430.889 469.004C431.836 493.204 450.898 460.293 458.175 474.122C465.306 487.672 479.519 482.963 480.784 468.336" stroke="black" stroke-width="2.61323" stroke-linecap="round"/>
<path d="M494.049 423.634C514.93 417.501 536.623 413.79 554.388 399.626C555.704 398.577 556.094 398.047 556.495 397.501" stroke="black" stroke-width="3.43767" stroke-linecap="round"/>
<path d="M411.685 412.558C391.527 402.614 370.112 394.991 354.549 377.428C353.396 376.127 353.093 375.518 352.782 374.892" stroke="black" stroke-width="3.55053" stroke-linecap="round"/>
</g>
</svg>
