<svg width="230" height="112" viewBox="0 0 230 112" fill="none" xmlns="http://www.w3.org/2000/svg">
<g filter="url(#filter0_i_136_124)">
<rect y="8" width="230" height="96" rx="48" fill="#FF8B07"/>
</g>
<path d="M69.7255 76H62.6965C62.5349 76 62.4541 75.899 62.4541 75.697L62.5147 33.0683C62.5147 32.9067 62.6157 32.8259 62.8177 32.8259H69.7255C69.9275 32.8259 70.0285 32.9067 70.0285 33.0683L69.9679 49.944H79.2693V33.0683C79.2693 32.9067 79.3501 32.8259 79.5117 32.8259H86.4195C86.6215 32.8259 86.7225 32.9067 86.7225 33.0683L86.8437 75.697C86.8437 75.899 86.7427 76 86.5407 76H79.5723C79.3703 76 79.2693 75.899 79.2693 75.697V57.4579H69.9679V75.697C69.9679 75.899 69.8871 76 69.7255 76ZM112.203 76H92.1458C91.9842 76 91.9034 75.899 91.9034 75.697L91.964 33.0683C91.964 32.9067 92.0448 32.8259 92.2064 32.8259H112.142C112.304 32.8259 112.385 32.9269 112.385 33.1289V40.067C112.385 40.2286 112.304 40.3094 112.142 40.3094H99.4172V50.0046H112.142C112.304 50.0046 112.385 50.0854 112.385 50.247L112.445 57.2761C112.445 57.4377 112.364 57.5185 112.203 57.5185H99.4172V68.365H112.203C112.364 68.365 112.445 68.466 112.445 68.668V75.7576C112.445 75.9192 112.364 76 112.203 76ZM138.259 76H118.202C118.04 76 117.959 75.899 117.959 75.697L118.02 33.1289C118.02 32.9269 118.121 32.8259 118.323 32.8259H125.231C125.433 32.8259 125.534 32.9269 125.534 33.1289L125.473 68.365H138.259C138.461 68.365 138.562 68.466 138.562 68.668V75.697C138.562 75.899 138.461 76 138.259 76ZM149.893 76H142.925C142.723 76 142.622 75.899 142.622 75.697L142.743 33.0683C142.743 32.9067 142.824 32.8259 142.985 32.8259H154.922C158.72 32.8259 161.719 33.9873 163.921 36.3101C166.143 38.6127 167.254 41.7536 167.254 45.7327C167.254 48.6412 166.678 51.1761 165.527 53.3374C164.355 55.4784 162.84 57.1347 160.982 58.3062C159.124 59.4777 157.104 60.0635 154.922 60.0635H150.196V75.697C150.196 75.899 150.095 76 149.893 76ZM154.922 40.1882L150.196 40.2488V52.5496H154.922C156.235 52.5496 157.377 51.9235 158.346 50.6712C159.316 49.3987 159.8 47.7525 159.8 45.7327C159.8 44.1168 159.366 42.7938 158.498 41.7637C157.629 40.7134 156.437 40.1882 154.922 40.1882Z" fill="white"/>
<defs>
<filter id="filter0_i_136_124" x="0" y="5.766" width="230" height="98.234" filterUnits="userSpaceOnUse" color-interpolation-filters="sRGB">
<feFlood flood-opacity="0" result="BackgroundImageFix"/>
<feBlend mode="normal" in="SourceGraphic" in2="BackgroundImageFix" result="shape"/>
<feColorMatrix in="SourceAlpha" type="matrix" values="0 0 0 0 0 0 0 0 0 0 0 0 0 0 0 0 0 0 127 0" result="hardAlpha"/>
<feOffset dy="-11.17"/>
<feGaussianBlur stdDeviation="1.117"/>
<feComposite in2="hardAlpha" operator="arithmetic" k2="-1" k3="1"/>
<feColorMatrix type="matrix" values="0 0 0 0 0 0 0 0 0 0 0 0 0 0 0 0 0 0 0.25 0"/>
<feBlend mode="normal" in2="shape" result="effect1_innerShadow_136_124"/>
</filter>
</defs>
</svg>
